<svg xmlns="http://www.w3.org/2000/svg" viewBox="0 0 80 80"><path d="M57 34c-1.4 0-2.9.2-4.2.7L48.5 25h6c.8 0 1.5.7 1.5 1.5s-.7 1.5-1.5 1.5H52v2h2.5c1.9 0 3.5-1.6 3.5-3.5S56.4 23 54.5 23H47c-.6 0-1 .4-1 1 0 .1 0 .3.1.4l2 4.6H31.4l-1-3.1-1.9.6.9 2.7c-.1.1-.2.2-.2.3l-2.9 5.6c-6.6-2.9-14.2.1-17.1 6.7s.1 14.2 6.7 17.1c6.6 2.9 14.2-.1 17.1-6.7.3-.6.5-1.2.6-1.8l.5.1c.2 1.3 1.2 2.3 2.4 2.5l1.1 3.3c.1.4.5.7.9.7H42v-2l-2.8-.1-.8-2.3c1.4-.8 2-2.6 1.2-4-.1-.1-.1-.2-.2-.3L50 33.6l.8 1.9c-6.3 3.4-8.7 11.2-5.4 17.6 3.4 6.3 11.2 8.7 17.6 5.4 6.3-3.4 8.7-11.2 5.4-17.6C66.2 36.6 61.8 34 57 34zM21 57c-5.5 0-10-4.5-10-10s4.5-10 10-10c1.3 0 2.6.3 3.8.7l-4.7 8.8c-.3.5-.1 1.1.4 1.4.1 0 .2.1.3.1l9.8 1.8C29.3 54.1 25.4 57 21 57zm10-9.2l-8.4-1.6 4-7.6c2.8 1.9 4.5 5 4.5 8.3-.1.4-.1.7-.1.9zm3.4.7l-.5-.1c.5-4.9-1.8-9.7-6-12.4l2.2-4.2 5 15.8c-.2.3-.5.6-.7.9zm3.4-1.4c-.2-.1-.5-.1-.7-.1L32 31h17l.2.5-11.4 15.6zM57 57c-5.5 0-10-4.5-10-10 0-3.6 2-7 5.1-8.7l4 9.1 1.8-.8-4-9.1c5.3-1.7 10.9 1.2 12.6 6.5 1.7 5.3-1.2 10.9-6.5 12.6-.9.2-2 .4-3 .4zM25.4 21c-.8 0-1.4.6-1.4 1.4 0 .4.1.7.4 1l.6.6c.9.9 2.3 1.3 3.5.8l4.7-1.6c.5-.2.8-.6.8-1.1 0-.6-.5-1.2-1.2-1.2h-7.4z" fill="#595959"/></svg>