<svg xmlns="http://www.w3.org/2000/svg" height="620" width="620"><path fill-rule="evenodd" fill="#b09b50" d="M336.313 55.525c8.018-.387 15.215-.848 16.412 6.024 1.596 9.216-3.58 22.747-3.355 31.663 9.254.25 11.411 11.935 8.38 20.59 1.66 1.41 8.045 1.946 9.703 3.355 6.872-18.919 12.733-15.376 18.433-14.404 2.394-3.866 4.39-12.845 6.697-18.756 1.995-5.138 3.704-9.64 7.532-11.723 4.577-2.494 11.361.25 15.078 3.692 8.143-14.616 9.041-29.481 32.986-30.99 16.05-1.01 28.271 12.334 27.611 28.796-.511 12.371-11.311 20.278-16.05 29.481 5.862 2.432 13.83 6.41 11.286 14.479-2.332 7.433-15.215 17.185-18.993 23.371 11.05 7.695 2.232 18.919-3.854 23.109 1.671-.05 7.221 6.535 8.543 6.697.96.125 8.43-5.562 10.376-6.36 5.5-2.257 8.206.86 12.234 4.028 3.542-2.52 9.091-7.445 13.394-10.887 3.853-3.093 7.744-7.982 12.06-8.38 7.357-.674 11.323 4.152 13.555 10.225 10.127-5.038 15.414-13.568 31.153-14.08 13.469-.424 25.166 10.788 26.301 25.454.674 8.917-3.94 18.395-10.9 23.908-5.724 4.54-14.205 6.821-21.587 11.099 8.53 11.386 5.799 16.3-1.559 20.116-6.984 3.642-18.045 5.45-24.106 8.605 3.716 13.656-6.161 15.676-14.579 17.834.81 2.145 2.744 7.894 3.055 10.55 12.397-3.005 19.468.45 21.275 8.88 8.219.125 21.413-5.388 31.315-3.854 6.622 1.023 6.635 8.88 6.036 16.749 6.822.611 16-.96 22.773-.836 26.102.487 31.701 30.642 15.9 46.38-3.916 3.904-11.91 7.458-17.909 7.832-6.697.4-13.767-1.546-21.874-1.596.375 8.056 1.247 15.501-5.6 16.711-9.165 1.609-22.273-4.577-31.152-4.352-.262 9.453-9.378 11.56-21.088 7.87-.761 2.206-2.993 8.94-4.19 10.724 14.902 5.35 17.072 7.346 15.227 18.245 6.684 4.814 21.525 6.46 28.309 11.56 6.697 5.027 2.68 12.908-1.834 17.747 14.928 7.695 28.46 10.55 31.64 32.325.91 6.21-2.57 13.506-6.024 17.746-6.86 8.418-20.715 12.87-33.335 7.196-6.785-3.043-11.599-8.88-18.408-12.559-3.853 9.89-9.89 14.08-18.432 8.88-3.393-2.07-7.171-5.176-10.713-8.194-3.816-3.267-6.747-5.612-9.54-8.38-5.2 9.877-14.903 3.679-22.947-3.193-1.658 1.746-5.35 5.674-7.532 6.872 5.687 7.532 10.712 15.24 3.679 22.772 2.694 3.43 5.6 8.044 9.216 12.571 7.857 9.852 7.67 9.403 8.368 11.212 3.854 10.051-4.465 13.905-10.214 16.25 4.951 10.6 17.398 18.606 14.742 35.169-2.183 13.556-13.32 20.602-28.31 21.6-4.152.286-18.918-3.18-22.772-13.232-2.456-6.422-5.013-11.498-8.879-18.593 4.327-3.243-12.259 13.518-20.59-2.67-3.617-7.02-5.562-17.695-8.717-23.782-11.885 6.024-15.925-5.1-18.083-13.568-2.232.848-7.72 1.434-10.55 1.67 3.492 9.03.835 21.95-8.044 21.114-.424 9.329 6.622 25.978 2.856 34.495-2.183 4.927-8.443 4.153-15.739 3.517-.624 6.86 1.297 12.958 1.16 19.754-.45 24.543-29.22 37.875-46.205 20.939-4.066-4.028-6.26-6.76-7.545-13.058-1.51-7.37.262-20.427.337-28.47-8.381 3.18-16.238-.176-15.913-8.369.374-9.34 3.904-19.568 3.691-28.484-10.388-.162-11.074-12.446-8.043-21.089-1.672-1.421-8.892-2.456-10.551-3.853-2.357 7.732-5.2 18.756-18.42 15.227-4.028 7.882-6.672 22.074-12.06 28.647-3.928 4.789-13.094 1.87-17.92-2.682-7.446 13.67-8.469 30.842-27.126 32.488-19.542 1.708-29.806-8.044-32.162-27.798-1.447-12.259 10.002-22.136 14.741-31.315-5.75-2.357-12.757-6.909-9.702-15.24 1.322-3.641 6.135-8.804 9.203-12.396 3.405-3.99 5.812-7.395 8.368-9.877-7.62-6.31-2.843-17.584 3.692-23.62-1.721-1.67-5.675-4.664-6.872-6.859-10.251 7.183-11.885 12.06-22.274 3.18-6.884 3.804-14.205 12.67-21.725 17.023-9.091 5.25-16.436-2.295-18.295-8.655-9.216 4.614-12.52 7.67-16.923 10.051-29.807 16.25-40.494-17.01-41.018-23.945-.736-9.552 5.824-17.497 13.394-22.447 6.036-3.94 12.571-5.961 19.255-9.715-.786-2.569-3.342-1.497-5.188-8.368-4.29-15.988 21.437-13.73 31.152-21.438-3.03-11.61 2.008-13.905 14.73-17.583-.836-2.233-2.27-8.132-2.507-10.987-13.232 4.801-20.29.124-22.274-7.932-10.538-.162-23.146 5.65-30.479 4.514-6.622-1.01-8.318-8.53-7.707-16.4-6.934-.648-12.546.898-19.455.711-25.454-.723-35.305-30.005-19.729-45.756 4.04-4.09 8.568-7.495 14.741-7.882 6.685-.411 17.51.287 25.615.337-.386-8.056.524-14.541 7.37-15.739 9.167-1.608 21.276 3.068 30.143 2.844.25-9.291 12.484-11.25 21.102-8.206 1.409-1.671 1.496-8.98 2.893-10.638-10.763-1.085-16.449-6.922-14.616-17.821-6.149-4.228-20.428-6.223-27.624-10.738-5.562-3.467-3.455-12.621 1.833-18.407-14.529-8.194-32.749-11.985-30.941-35.867.66-8.78 3.791-13.867 11.174-18.893 6.572-4.478 16.4-8.07 25.965-3.517 6.348 3.005 14.541 9.702 21.264 13.057 2.756-6.16 6.659-12.807 15.077-9.715 3.741 1.372 8.019 5.35 11.548 8.38 3.816 3.256 8.418 7.271 11.224 10.04 5.363-9.54 16.413-2.681 22.274 2.681 1.659-1.733 6.186-5.5 8.38-6.697-8.417-7.358-12.396-17.746-3.354-23.271-3.904-6.996-15.714-15.789-19.218-23.981-2.993-6.972 5.176-13.183 11.511-15.04-4.963-10.526-16.25-17.223-14.902-33.672 1.147-13.98 12.458-22.822 26.8-23.77 9.066-.61 17.11 1.996 22.435 10.214 3.753 5.787 5.86 13.319 9.715 20.428 6.273-4.59 16.312-6.86 20.09.835 3.356 6.834 7.795 20.415 10.726 26.289 11.573-3.03 15.09 6.447 17.247 14.915 2.22-.836 7.558-2.444 10.376-2.681-3.48-9.017.362-18.957 8.38-20.939.138-8.904-5.91-22.086-4.526-31.153 1.022-6.647 10.089-7.644 17.921-7.033.636-6.971-1.197-17.846-1.01-24.78.474-16.436 11.66-22.473 28.484-21.264 13.43.973 24.306 9.179 24.942 22.274.337 6.71-1.26 16.4-1.334 24.444"/><path fill="#fff" d="M230.975 255.538l154.063.897v144.688l-2.682 10.713-4.9 8.492-15.19 10.264-21.887 9.378-30.816 14.741-59.388-25.902-11.161-7.595-5.363-8.48-2.681-11.162V255.535z"/><path fill="red" d="M298.725 279.575l-.1.175-.087.224-.1.237-.062.212-.05.237-.05.224-.037.225-.025.224-.013.325v.174l.013.15.037.35.025.186.05.175.112.374.05.187.075.187.1.225.112.236.125.225.137.224.162.225.137.212.175.212.174.2.2.199.2.187.199.187.224.187.2.162.224.138.225.137.224.124.374.175.375.175.374.15.424.124.411.125.424.1.661.137.661.1.711.1.723.062 1.385.062.636.012.66-.012 3.929-.125H313.703l.274.025.836.087.823.1 1.746.337.573.137-.024-.15-.088-.56-.262-.911-.324-.112-.337-.113-.349-.075-.411-.074-.424-.063-.424-.05-2.769-.15-2.868-.112-.724-.075-.735-.074-.686-.113-.674-.112-.81-.174-.823-.212-.686-.188-.699-.237-.411-.162-.412-.187-.424-.2-.349-.199-.35-.2-.336-.236-.237-.162-.212-.175-.2-.2-.211-.187-.187-.224-.188-.225-.187-.249-.15-.25-.124-.199-.112-.2-.112-.211-.088-.2-.087-.212-.062-.212-.275-.885-.112-.25-.037-.062-.25.025z"/><path fill="#231f20" d="M325.6 428.038l-.2.05-.411.1-.212.062-.187.074-.212.1-.2.112-.2.113-.211.124-.25.175-.212.187-.336.35-.212.236-.337.437-.312.424-.2.299.35-.075.449-.112.499-.125.498-.112.262-.025h.075l2.108-.062.2-.025.211-.1.212-.337.013-.112-.013-.275-.025-.174-.074-.25-.3-.848-.162-.15-.2-.087-.199-.012-.212.037z"/><path d="M326.675 429.1l-.3-.848-.161-.162-.2-.075-.212-.012-.212.037-.2.037-.411.1-.2.075-.2.075-.199.1-.212.1-.2.112-.199.124-.25.187-.224.187-.336.35-.2.237-.337.436-.324.424-.2.3.35-.076.449-.112.511-.125.499-.112.25-.025h.087l2.107-.062.2-.025.212-.1.2-.337.012-.112-.013-.274-.025-.175-.062-.25z" stroke="#fff" stroke-width=".27375" fill="red"/><path fill="#231f20" d="M267.762 405.488l-.236.012-.25.025-.237.025-.224.037-.25.05-.174.05-.162.062-.175.05-.162.075-.162.062-.312.175-.661.436.81.188.462.124.461.15.3.112.125.063.274.15.461.274.5.261.174.063.212.025.3-.038.199-.062.249-.175.162-.124.175-.25.05-.087.087-.187.075-.175.062-.187.062-.187.05-.187.013-.262-.075-.15-.112-.124-.187-.087-.412-.075-.399-.05-.411-.038-.4-.025h-.261z"/><path d="M269.675 407.213l.087-.175.063-.187.074-.175.063-.187.05-.2.012-.249-.075-.15-.112-.124-.187-.087-.411-.075-.412-.05-.4-.038-.41-.024h-.25l-.237.012-.237.013-.25.037-.236.037-.237.05-.175.05-.174.05-.163.062-.162.063-.162.075-.324.174-.649.437.811.174.474.137.461.138.275.112.137.062.274.162.462.275.486.262.187.062.212.025.3-.025.199-.075.262-.162.15-.137.174-.262.05-.087z" stroke="#fff" stroke-width=".27375" fill="red"/><path fill="#231f20" d="M266.725 408h-.224l-.225.013-.212.037-.224.012-.212.05-.138.05-.262.075-.112.05-.125.062-.224.125-.125.075-.1.062-.15.125-.236.225-.225.224-.249.262.35-.013.36-.025.238.013.15.025.15.037.298.063.287.112.275.1.299.124.262.137.212.1.212.087.224.088.212.075.225.062.212.025.212-.025.287-.112.15-.15.074-.137.137-.25.063-.137.112-.262.037-.212.025-.299-.025-.212-.062-.2-.2-.236-.212-.1-.66-.063-.637-.062h-.224z"/><path d="M268.663 409.388l.05-.212.012-.3-.013-.212-.074-.2-.2-.236-.2-.1-.66-.075-.649-.05h-.437l-.224.013-.212.025-.224.037-.213.037-.137.038-.262.087-.112.05-.125.062-.237.125-.124.075-.075.062-.162.125-.237.224-.237.237-.237.25h.35l.36-.025.225.012.162.025.15.025.3.075.286.1.287.112.274.112.275.138.212.1.212.099.212.075.224.075.225.062.2.025.211-.012.3-.125.15-.15.074-.137.137-.25.063-.124.1-.274z" stroke="#fff" stroke-width=".27375" fill="red"/><path fill="#231f20" d="M266.25 410.588l-.461.037-.188.025-.199.025-.187.037-.187.05-.175.063-.2.062-.124.05-.25.125-.124.074-.237.163-.112.087-.125.1-.45.436.936.075.374.037.374.05.375.05.1.025.199.062.1.025.1.05.448.2.474.174.474.163.225.012.212-.075.137-.174.05-.113.05-.112.062-.237.062-.224.013-.287v-.087l-.038-.287-.074-.2-.05-.1-.262-.237-.3-.112-.56-.025-.462.013z"/><path d="M267.975 411.913l.025-.287v-.1l-.05-.274-.062-.2-.063-.1-.25-.25-.298-.111-.562-.013-.461.013-.462.037-.187.025-.2.025-.186.037-.187.05-.187.05-.187.075-.138.05-.249.112-.112.087-.25.15-.112.1-.112.087-.462.449.948.075.362.024.374.05.374.063.1.025.212.062.087.025.1.05.461.2.462.162.474.174.224.013.225-.075.137-.175.037-.112.05-.112.075-.237.05-.225z" stroke="#fff" stroke-width=".27375" fill="red"/><path fill="#231f20" d="M266.112 412.85l-.162.025-.299.087-.15.05-.286.137-.138.075-.261.175-.225.15-.2.161-.187.188-.336.324-.325.349-.224.262.35-.013.36-.037.325-.025.212.025.2.012.212.025.399.088.399.1.399.1.262.074.237.062.2.025.199.025.112.013h.187l.2-.025.112-.025.2-.112.074-.088.075-.25-.037-.31-.05-.275-.075-.287-.025-.1-.025-.1-.037-.087-.137-.287-.125-.162-.087-.075-.15-.112-.162-.087-.287-.075-.175-.037-.299-.013-.25.05z"/><path d="M267.975 415.05l.062-.25-.037-.311-.05-.275-.075-.286-.025-.1-.025-.1-.037-.087-.137-.287-.112-.162-.1-.062-.137-.125-.175-.075-.274-.087-.187-.038h-.3l-.237.038-.162.025-.312.087-.15.05-.286.137-.137.075-.262.174-.212.15-.2.162-.2.187-.336.325-.312.349-.237.262.35-.025.374-.038.311-.012.212.012.2.025.212.025.4.075.41.1.4.112.25.075.249.05.187.037.2.025.099.012h.2l.199-.012.112-.025.212-.125.075-.087z" stroke="#fff" stroke-width=".27375" fill="red"/><path fill="#231f20" d="M266.875 415.575l-.524.15-.524.162-.249.1-.262.112-.25.125-.249.124-.386.237-.187.137-.175.138-.274.237-.237.274.349-.013.524-.074.311-.038h.163l.311.038.15.012.324.075.1.037.274.137.275.15.174.137.275.262.2.175.224.162.237.062.237-.087.15-.162.112-.175.062-.2.05-.236.012-.112.025-.237v-.162l-.012-.325-.025-.15-.075-.448-.087-.45-.212-.236-.15-.063-.661.125z"/><path d="M268.012 417.863l.05-.237.013-.113.025-.237.012-.162-.025-.312-.012-.162-.075-.436-.1-.462-.212-.237-.15-.062-.66.137-.524.137-.511.175-.262.1-.262.1-.25.124-.237.125-.386.237-.187.137-.175.137-.274.25-.25.262.362-.013.524-.075.312-.025h.15l.311.025.162.013.3.075.112.037.287.125.262.162.174.137.274.262.212.175.212.162.237.062.237-.075.162-.162.1-.187.063-.2z" stroke="#fff" stroke-width=".27375" fill="red"/><path fill="#231f20" d="M324.862 419.488l-.236.05-.237.05-.3.087-.311.1-.312.112-.312.112-.25.112-.236.137-.212.137-.237.138-.15.112-.15.112-.461.4-.3.298-.286.312-.237.275.361-.025.474-.088.424-.05.437-.05h.561l.25.013.249.05.224.062 1.01.437.175.062.15.038.262.05.174-.063.162-.137.088-.2.037-.1.013-.211-.013-.262-.012-.262-.025-.362-.05-.349-.038-.3-.062-.299-.062-.311-.05-.088-.175-.137-.087-.012-.25.05z"/><path d="M325.387 422.463l.163-.15.087-.187.037-.1.013-.212-.013-.262-.012-.274-.025-.35-.05-.349-.05-.299-.05-.3-.062-.298-.05-.1-.187-.137h-.087l-.25.037-.224.05-.237.05-.312.087-.312.1-.311.112-.3.125-.25.112-.236.125-.225.137-.237.137-.137.1-.15.125-.46.399-.3.299-.3.312-.224.274.35-.037.486-.075.424-.063.436-.037H322.893l.25.013.25.05.224.062 1.01.436.162.05.162.05.262.05.175-.062z" stroke="#fff" stroke-width=".27375" fill="red"/><path fill="#231f20" d="M323.963 422.688l-.188.012-.399.062-.187.05-.187.05-.174.05-.175.062-.175.075-.162.088-.162.074-.15.1-.174.112-.175.125-.162.125-.461.387-.262.249.35.012h.685l.324.013.35.062.349.05.399.075.361.087 1.098.574.15.05.174.05.237-.025.25-.187.187-.337.012-.075.075-.3.012-.186-.012-.2-.075-.299-.062-.187-.175-.287-.162-.15-.162-.124-.35-.162-.1-.013-.236-.037-.324-.025h-.162z"/><path d="M325.712 424.65l.063-.287v-.399l-.063-.287-.074-.2-.187-.274-.15-.15-.162-.124-.35-.162-.1-.025-.236-.038-.324-.012h-.162l-.2.012-.374.063-.2.037-.174.05-.187.05-.175.075-.175.075-.162.075-.162.087-.15.1-.174.112-.175.125-.162.124-.449.374-.262.25.35.012H321.822l.311.025.362.05.35.05.373.075.387.087 1.072.574.162.062.175.05.237-.025.25-.187.174-.337.037-.087z" stroke="#fff" stroke-width=".27375" fill="red"/><path fill="#231f20" d="M324.875 425.388l-.3.062-.311.1-.312.087-.274.112-.287.125-.274.125-.275.15-.361.236-.163.125-.174.137-.162.137-.1.1-.499.511-.224.275.349-.038.411-.062.362-.037.35-.038.373-.012.2.012.174.038.2.037 1.684.449.237-.025.212-.087.174-.125.063-.1.124-.262.025-.075.05-.286V426.772l-.012-.087-.038-.2-.05-.2-.1-.374-.087-.174-.037-.1-.125-.162-.174-.1-.237-.05-.412.063z"/><path d="M326.125 426.675l-.037-.2-.05-.187-.112-.374-.063-.187-.037-.087-.137-.162-.175-.112-.225-.038-.424.05-.299.075-.312.087-.299.1-.287.1-.274.124-.287.138-.262.15-.362.224-.174.125-.175.137-.162.15-.1.1-.498.51-.225.275.362-.038.399-.062.362-.05.361-.025.362-.012.2.012.186.025.188.05 1.696.437.236-.013.2-.087.175-.137.062-.088.125-.274.025-.075.062-.274v-.1l-.013-.2-.012-.087z" stroke="#fff" stroke-width=".27375" fill="red"/><path fill="#231f20" d="M326.488 430.45l-.312.1-.15.075-.274.137-.137.075-.275.187-.262.174-.262.2-.237.187-.249.224-.25.225-.186.175-.175.2-.387.498-.187.312.35-.088.61-.224.213-.062.212-.063.224-.037.225-.05.212-.025.311-.013h.15l.324.038.15.037.386.05.35.062.374.013.386.025.088-.013.324-.25.025-.286-.025-.162-.125-.4-.05-.149-.15-.262-.074-.15-.212-.299-.125-.162-.15-.15-.2-.137-.174-.037-.287.025z"/><path d="M324.113 432.913l.212-.075.212-.05.212-.05.224-.037.212-.025.312-.013h.162l.312.025.162.038.374.062.362.05.374.025.374.012h.1l.311-.262.038-.286-.025-.163-.125-.386-.062-.15-.138-.274-.087-.137-.212-.3-.125-.162-.137-.162-.2-.125-.186-.037-.287.025-.3.1-.15.062-.286.15-.137.074-.274.188-.262.174-.25.187-.25.2-.249.212-.237.224-.187.187-.174.187-.387.5-.187.323.337-.087.623-.224z" stroke="#fff" stroke-width=".27375" fill="red"/><path fill="#231f20" d="M260.063 280.863l.15.386.086.237.075.25.075.236.063.262.05.262.012.287v.636l.025.499.05.499.037.187.075.187.25.324.187.112.1.038.199.025.2-.013.199-.05.087-.037.162-.112.15-.112.112-.15.1-.162.075-.162.062-.275.025-.174v-.325l-.062-.224-.063-.237-.1-.224-.112-.225-.187-.312-.124-.174-.15-.187-.25-.287-.249-.275-.224-.224-.237-.212-.237-.2-.424-.249-.3-.175.113.35z"/><path d="M262.15 285.075l.137-.125.125-.15.1-.149.062-.175.075-.262.025-.187-.013-.311-.05-.237-.074-.237-.088-.225-.112-.212-.187-.312-.137-.187-.15-.187-.237-.274-.25-.287-.224-.224-.237-.212-.236-.187-.424-.262-.312-.162.112.336.15.387.087.237.087.262.075.237.05.25.05.273.025.275v.636l.025.499.05.499.037.187.062.187.262.336.187.113.087.025.212.025h.2l.187-.05.087-.05.175-.1z" stroke="#fff" stroke-width=".27375" fill="red"/><path fill="#231f20" d="M257.512 282.063l.811 1.384.087.262.038.137.05.3.024.186.013.324-.013.4v.336l.013.35.137.261.499.1.187.025.287-.013.262-.062.15-.05.199-.112.087-.062.137-.138.138-.174.05-.1.074-.2.013-.336-.038-.162-.261-.574-.2-.312-.187-.3-.112-.149-.125-.15-.125-.137-.125-.15-.137-.124-.137-.112-.15-.112-.137-.1-.15-.1-.523-.287-.337-.05h-.499z"/><path d="M260.063 286l.187-.112.087-.063.15-.15.137-.161.05-.1.062-.2.025-.336-.038-.15-.274-.574-.187-.311-.2-.312-.1-.15-.124-.15-.125-.137-.137-.137-.125-.125-.137-.124-.15-.113-.15-.1-.149-.1-.524-.298-.336-.038h-.487l.798 1.384.088.262.037.15.062.3.013.174.012.324-.012.4.012.336.013.35.137.261.499.1.174.025.3-.013.25-.062.161-.05z" stroke="#fff" stroke-width=".27375" fill="red"/><path fill="#231f20" d="M256.112 284.1l.113.237.124.262.1.25.087.249.088.287.062.274.05.287.05.274.037.25.05.249.075.25.062.236.075.262.225.262.312.062.112-.012.1-.037.187-.15.162-.137.124-.187.163-.325.037-.087.05-.374.012-.187-.012-.2-.038-.187-.074-.249-.038-.137-.062-.137-.137-.287-.1-.162-.2-.325-.124-.137-.113-.162-.137-.125-.125-.137-.137-.112-.187-.15-.087-.062-.2-.112-.087-.038-.2-.075-.274-.074-.598-.163.474.836z"/><path d="M258.313 287.275l.162-.337.024-.075.063-.374.012-.2-.025-.186-.037-.187-.062-.25-.05-.137-.062-.15-.125-.274-.1-.175-.212-.311-.125-.15-.112-.15-.137-.124-.125-.138-.137-.124-.187-.15-.087-.05-.2-.112-.087-.05-.187-.062-.275-.075-.598-.162.461.835.125.237.112.25.1.261.087.25.087.274.063.287.062.274.038.287.037.25.062.25.063.249.062.237.075.249.237.274.3.063.111-.013.1-.05.2-.137.15-.137.137-.187z" stroke="#fff" stroke-width=".27375" fill="red"/><path fill="#231f20" d="M260.6 322.9l.262.274.162.262.1.175.087.162.087.187.075.212.075.212.112.362.113.361-.013 1.422v.2l.1.2.15.161.087.038.087.062.2.037.199.013.2-.037.224-.075.287-.137.087-.075.087-.05.088-.087.137-.125.262-.324.137-.262.025-.088.037-.112.037-.212v-.125l-.037-.299-.025-.087-.037-.1-.187-.312-.237-.299-.25-.274-.262-.275-.349-.324-.174-.15-.2-.124-.262-.175-.15-.062-.286-.138-.2-.074-.399-.113-.287-.062-.361-.05.212.287z"/><path d="M263.463 326.788l.137-.138.25-.311.149-.275.025-.087.037-.112.025-.2.013-.137-.038-.287-.025-.1-.037-.1-.187-.311-.237-.3-.25-.274-.262-.274-.349-.312-.187-.15-.187-.137-.274-.174-.137-.063-.3-.137-.2-.075-.386-.1-.3-.074-.348-.05.212.287.249.286.175.262.087.162.087.175.087.187.088.2.062.212.125.361.112.374-.025 1.41.025.2.075.199.15.162.1.05.087.05.2.05.199.012.2-.05.211-.062.287-.15.1-.062.087-.075.087-.063z" stroke="#fff" stroke-width=".27375" fill="red"/><path fill="#231f20" d="M257.787 324.525l.537.723.112.15.112.187.1.187.187.374.037.113.075.212.063.336.1.898.112.81.05.113.51-.037.525-.225.174-.062.162-.075.337-.2.15-.124.137-.175.05-.1.1-.311.012-.188-.025-.212-.075-.261-.062-.163-.063-.15-.074-.149-.088-.15-.087-.124-.187-.262-.212-.25-.237-.212-.237-.174-.262-.175-.137-.037-.112-.075-.137-.037-.25-.1-.137-.025-.15-.025-.137-.013-.224-.025-.749.013z"/><path d="M260.3 328.375l.175-.062.174-.075.324-.212.15-.125.137-.175.05-.087.1-.312.012-.2-.025-.199-.074-.262-.063-.162-.062-.15-.075-.149-.087-.137-.088-.15-.187-.25-.2-.249-.236-.212-.262-.187-.25-.162-.124-.05-.125-.062-.125-.05-.262-.087-.137-.025-.137-.025-.137-.025-.237-.013-.748.013.536.723.112.162.112.175.113.187.174.374.038.1.074.224.063.325.1.898.112.81.05.112.511-.025.524-.224z" stroke="#fff" stroke-width=".27375" fill="red"/><path fill="#231f20" d="M251.938 331.663l.51.66.225.275.175.262.174.3.175.286.037.087.038.1.062.1.075.311.1.55.1.448.124.45.187.248.1.025.3-.037.187-.075.187-.087.1-.05.161-.125.175-.15.125-.15.162-.26.112-.263.063-.262.025-.212v-.187l-.025-.187-.038-.2-.062-.174-.038-.1-.162-.287-.137-.2-.125-.161-.15-.15-.161-.137-.175-.125-.125-.075-.137-.062-.137-.087-.262-.113-.162-.05-.275-.074-.86-.2-.511-.1-.337-.05.2.287z"/><path d="M254.788 335.513l.174-.125.162-.15.137-.162.163-.25.1-.261.074-.262.013-.2v-.2l-.013-.186-.05-.187-.062-.187-.037-.1-.163-.287-.124-.187-.138-.175-.137-.15-.174-.137-.175-.124-.125-.075-.137-.075-.125-.062-.274-.125-.15-.05-.286-.075-.86-.2-.512-.1-.337-.05.2.288.523.66.212.275.175.274.187.287.162.287.05.1.037.087.05.1.075.312.1.548.112.45.112.448.2.25.087.037.3-.05.199-.075.187-.075.087-.062z" stroke="#fff" stroke-width=".27375" fill="red"/><path fill="#231f20" d="M255.963 326.613l-.25.05-.337.087-.486.15.661.436.137.112.112.087.113.1.212.225.1.124.074.113.088.137.112.174.1.187.174.387.075.212.062.2.063.199.062.2.087.187.088.2.074.111.138.1.386-.112.15-.062.374-.188.162-.1.15-.112.15-.124.236-.325.038-.112.075-.324-.013-.187-.062-.162-.063-.175-.224-.312-.187-.237-.187-.212-.2-.2-.124-.111-.25-.2-.262-.162-.1-.075-.112-.05-.224-.087-.225-.075-.224-.05-.212-.037-.312-.013-.2.025z"/><path d="M258.325 330.038l.162-.088.162-.124.137-.138.237-.311.05-.1.063-.324-.013-.2-.05-.175-.075-.162-.224-.311-.175-.237-.187-.212-.212-.2-.125-.112-.249-.2-.262-.162-.1-.062-.112-.063-.212-.087-.237-.075-.212-.05-.212-.024-.324-.013-.2.013-.237.05-.336.087-.5.162.662.424.15.112.112.087.112.1.2.225.1.124.087.113.074.137.113.174.112.187.162.387.087.212.063.2.05.199.074.2.075.2.088.199.087.1.137.1.374-.113.162-.062.362-.188z" stroke="#fff" stroke-width=".27375" fill="red"/><path fill="#231f20" d="M254.55 328.963l-.35.012-.348.025-.362.037-.337.1.3.187.137.063.15.087.074.062.512.624.137.187.137.187.062.112.063.112.1.212.05.125.1.275.099.299.05.162.05.125.074.162.138.274.224.3.187.087.112.025h.113l.124-.038.25-.15.137-.124.224-.3.1-.161.137-.35.025-.087.063-.3.025-.199.012-.2v-.211l-.037-.312-.113-.274-.087-.175-.25-.3-.136-.124-.188-.137-.087-.05-.1-.063-.199-.074-.2-.088-.224-.062-.312-.037-.212-.013-.212-.012h-.212z"/><path d="M256.537 332.488l.225-.3.1-.162.137-.35.025-.086.062-.287.025-.212.013-.2v-.212l-.05-.311-.1-.275-.087-.174-.25-.287-.137-.125-.187-.137-.087-.063-.1-.05-.2-.087-.211-.087-.212-.05-.312-.037-.212-.025-.212-.013h-.212l-.35.013-.349.025-.361.05-.337.075.3.2.149.074.137.087.075.05.511.624.138.187.124.2.075.099.063.112.112.225.037.112.1.287.1.287.05.15.05.149.062.15.137.274.224.3.188.099.124.025.113-.013.112-.025.262-.15.137-.136z" stroke="#fff" stroke-width=".27375" fill="red"/><path fill="#231f20" d="M262.4 280.725l.062.274.05.25.038.262.025.274.037.262v.274l.012.237.025.237.038.237.037.237.025.1.087.174.162.138.088.062.224.062h.2l.287-.074.187-.05.25-.125.248-.187.138-.162.124-.175.088-.187.037-.1.025-.1v-.411l-.012-.087-.063-.162-.05-.187-.1-.212-.112-.188-.1-.212-.124-.187-.237-.336-.225-.25-.124-.124-.125-.113-.187-.162-.212-.125-.212-.112-.275-.1-.237-.087-.486-.137.387 1.272z"/><path d="M264.237 283.55l.25-.187.137-.162.125-.162.087-.2.037-.087.025-.112v-.4l-.012-.087-.05-.174-.062-.175-.1-.212-.112-.2-.113-.199-.112-.2-.237-.324-.224-.25-.125-.136-.125-.113-.2-.15-.199-.136-.212-.1-.274-.112-.225-.075-.499-.15.387 1.285.05.261.062.262.038.262.037.262.025.262v.274l.012.237.025.237.025.237.05.237.025.1.087.175.15.15.1.062.224.062.2-.013.287-.062.174-.062.262-.125z" stroke="#fff" stroke-width=".27375" fill="red"/><path fill="#231f20" d="M264.5 278.925l.2.599.1.311.087.3.074.311.05.312.038.25.012.25.013.249v.261l-.013.275.013.274.025.25.037.2.125.161.112.075.35.062.249.025.237.013h.237l.1-.013.261-.05.275-.112.174-.1.125-.162.062-.1.038-.224-.013-.212-.262-.574-.25-.449-.261-.448-.162-.25-.175-.237-.174-.237-.088-.112-.112-.125-.212-.212-.25-.187-.46-.324-.35-.225-.3-.174.088.349z"/><path d="M266.45 283.1h.1l.262-.062.274-.1.162-.112.137-.162.063-.088.037-.224-.012-.212-.262-.574-.25-.461-.262-.45-.162-.249-.174-.237-.175-.224-.1-.112-.1-.125-.211-.225-.25-.187-.461-.324-.35-.212-.311-.174.1.349.199.586.1.312.075.311.075.312.062.3.037.261.013.25.012.25v.249l-.012.274.012.274.013.262.05.187.137.175.1.062.349.063.25.037h.474z" stroke="#fff" stroke-width=".27375" fill="red"/><path fill-rule="evenodd" d="M349.787 411.713c-.199-.462-.386-.91-.548-1.385-.886-2.78-1.035-5.861-1.322-8.742-.5-5.2-1.048-10.413-1.21-15.626l-.012-2.357v-2.357l2.22-.087c-.025-1.335.1-2.644.199-3.991-.012-.649-.324-1.06-.624-1.634-.91-1.596-1.97-3.105-2.718-4.789-.998-2.556-1.434-5.412-1.97-8.106-.562-3.38-.998-6.784-1.547-10.164-1.023-4.963-2.656-9.765-3.604-14.741-.225-1.46-.087-2.769.274-4.203 1.11-3.779 2.27-7.52 3.517-11.261l.437-1.422c.473-1.746.848-3.454 1.085-5.238.124-1.658.112-3.217-.212-4.839l-.574-2.594-.624-2.594-.474-1.883c.075-1.11.125-1.945.487-3.005.736-1.933 1.534-3.854 2.058-5.862 1.134-5.2.91-10.587.074-15.813l-.598-2.881c.237-.225.461-.449.686-.686 2.32-2.818 1.696-6.335-1.322-8.28-1.671-.924-3.305-1.086-5.089-.412l-1.446.698-1.572-.574c-1.858-.586-3.641-.922-5.574-1.097-4.003-.15-8.218-.312-12.085.96-1.995.749-3.703 2.095-5.599 3.018-.885.387-1.571.337-2.532.337-2.432.062-4.888.224-7.32.35-.487.062-.886.149-1.06.673-.075 1.01.287 1.833.399 2.818.237 1.596 1.072 2.893 2.02 4.14.3.35.586.612.935.886-.112 1.372-.037 2.432.786 3.567l.162.187.162.174.512.537c.2-1.023.461-1.784 1.284-2.482.3-.225.636-.4.96-.561-.112.91-.386 2.432.824 2.718.86.187 1.334.212 2.02-.299.274.748.573.786 1.297.998.636.162 1.185.374 1.72-.137.213-.225.437-.412.674-.624.898.873 2.145 2.033 2.607 3.28.287 1.11.474 2.27.523 3.405.025.673.3 1.434-.498 1.521l-.474.05-.3.037c-.224-.91-.536-1.633-1.459-1.958-1.01-.237-1.92-.187-2.444.836l-.087.187c-.25-.486-.462-.636-.973-.786-1.023-.15-2.045.175-2.37 1.26-.56-.549-.885-.886-1.06-1.684l-.062-.361c-.873.76-1.46 1.409-1.596 2.631-.025.399.062.81-.412.823-1.31.449-.66 1.746.162 2.32 1.36.723 2.844.66 4.353.748l3.28.125 2.282.087c-.063.474-.125.898-.262 1.347-.574 1.634-2.095 2.83-3.492 3.679l-3.853 2.232-2.12 1.36c-1.684 1.359-3.368 2.693-4.939 4.202-.81.823-1.497 1.671-2.195 2.594-2.182 3.205-3.554 6.834-3.94 10.738a20.505 20.505 0 0 0 0 2.768l.249 2.445 2.693-1.06.35 1.446a379.218 379.218 0 0 0-11.387 5.912c-2.768 1.484-5.537 3.055-8.418 4.302-1.696.686-3.878 1.41-5.724 1.035-.885-.25-1.147-.723-1.584-1.509l-1.396-2.594-1.21-2.07-1.31-1.995-1.359-1.846-1.447-1.771-1.11-1.06c-.174.823-.66 1.222-1.396 1.521-.474 0-1.135-.349-1.36.287-.224.474-.374.574-.848.81l-.673.263-.686.411c-.225.836-.586.948-1.297 1.272l-.561.275c-.2.835-.225 1.608-.948 2.12l-.175.1-.224.087-.225.087c-.037.462-.037.923-.087 1.36-.187.947-.76 1.321-1.658 1.459 2.556 3.703 5.138 7.47 8.293 10.662a30.256 30.256 0 0 0 4.676 3.592c1.597.91 3.143 1.646 4.877 2.245 1.72.511 3.354.773 5.138.948 6.347.311 12.646-1.01 18.793-2.52l2.806-.773 2.781-.885 3.28-1.185.761 1.571-4.926 2.208.885 2.993c1.073 3.092 2.333 6.31 4.266 8.966l.262.337.286.324 2.544 2.482 1.584 1.858.113.1.848.636-1.285.786-1.87-1.646-.923-.836-1.01-.898c-1.809.81-3.592 1.634-5.363 2.544a37.848 37.848 0 0 0-4.714 3.093 61.19 61.19 0 0 0-3.754 3.455c-2.332 2.581-4.59 5.175-6.31 8.243-.786 1.571-1.372 3.08-1.896 4.764-.573 2.232-.885 4.415-1.072 6.734a60.94 60.94 0 0 0 .224 7.234c.25 2.07.586 4.065.998 6.098.2 1.397-.1 2.407-1.559 2.681-2.157.075-3.829-1.609-5.35-2.918-1.584-1.347-2.956-2.607-5.05-2.819-.75-.037-1.485.013-2.22.063.112.81-.175 1.31-.737 1.858-.249.137-.486.212-.748.287.35.81.35 1.284-.125 2.058-.249.212-.486.411-.735.636.1.1.2.187.274.299.25.698.162 1.447-.536 1.808.087.275.137.312.3.524.186.374.573 1.397.249 1.734l-.212.174c.374.736.486 1.46.411 2.295-.075.474-.274.648-.623.935 1.172.599 2.357 1.272 3.604 1.684l3.192.947 1.434.462c3.767 1.36 7.284 3.267 11.012 4.689.624.2 1.26.412 1.909.536.536.088 1.072.1 1.62.1 1.672-.1 3.642-.985 4.49-2.532.986-1.945 1.322-4.215 1.771-6.347.4-1.634.848-3.218 1.384-4.814a52.713 52.713 0 0 1 1.66-3.854 42.43 42.43 0 0 1 3.703-5.886 40.16 40.16 0 0 1 3.829-4.14c1.471-1.26 2.918-2.32 4.601-3.268l.724-.362 2.93-1.384c-.66-2.893-1.284-5.761-1.82-8.692-.287-1.87-.574-3.617-.537-5.525.038-.735.1-1.446.25-2.182l.3-1.21 1.508.4c.374 5.25 1.035 10.438 2.52 15.488a63.544 63.544 0 0 0 1.558 4.128l.936 1.97c.922 1.746 1.87 3.43 2.943 5.089.848 1.184 1.696 2.332 2.631 3.442 2.02 2.157 4.278 4.065 6.198 6.335.274.374.536.748.773 1.147.973 1.808.287 3.317-1.571 3.928-1.896.524-3.791.587-5.762.699.15.81.3 1.584.325 2.42-.075.56-.225.685-.699.935.661.698.898.972.724 1.933l-.175.586c.536.785.773 1.509.474 2.469-.137.35.05.262.312.474.249.399.461 1.085.474 1.571-.125.462-.312.5.199.736.499.374 1.185 1.347 1.06 2.033l-.1.25-.05.111c.624 0 1.248.038 1.884-.012 2.855-.374 5.25-1.596 7.682-3.168l1.509-1.085 1.459-1.172 1.384-1.222 1.322-1.31c2.095-2.494 4.228-4.976 6.273-7.52.175-.224.337-.449.486-.673.636-1.023 1.023-2.295.611-3.467-.61-1.596-.897-3.13-.61-1.546"/><path fill-rule="evenodd" d="M267.413 282.575a2.566 2.566 0 0 1-.362.374c-.45.337-1.21.137-1.709.025-.2-.037-.361-.274-.474-.436-.05.274-.112.548-.299.748-.3.324-1.135.748-1.521.411a2.844 2.844 0 0 1-.275-.274c-.112.362-.15.673-.212 1.06-.062.486-.723.86-1.185.836-.174-.013-.486-.375-.536-.35-.025 0-.05.013-.087.025-.037.25-.087.512-.274.699-.55.561-1.123.474-1.821.336-.1.325-.137.587-.2.936-.05.312-.461.81-.81.81-.1 0-.2-.012-.312-.024a100.42 100.42 0 0 1 2.157 3.74c.175.338.325.687.437 1.048l2.07 6.573c1.085 3.467 2.781 6.722 5.226 9.378a38.574 38.574 0 0 0 3.878 3.679c4.577 3.853 9.453 7.308 14.454 10.563 2.706 1.77 5.487 3.417 8.293 5 0-2.419-.05-4.838.112-7.245.175-2.432 1.073-4.64 2.046-6.822.848-1.895 1.808-3.79 3.043-5.45.274-.374.586-.71.885-1.047a462.094 462.094 0 0 0-8.98-2.656l-6.671-1.92c-2.42-.687-4.764-1.635-6.921-2.932a11.524 11.524 0 0 1-2.694-2.22 5.604 5.604 0 0 1-1.235-2.082l-3.018-8.767c-.461-1.335-1.172-2.594-2.245-3.505-.224-.187-.51-.349-.76-.511"/><path fill-rule="evenodd" fill="#fff" d="M305.113 279.238a7.492 7.492 0 0 0-.05.523c-.013.113-.025.225-.025.337 0 .137 0 .25.025.4.012.149.037.286.075.436.037.162.074.286.137.436.037.125.087.237.162.35.05.099.1.174.15.261.1.15.174.262.261.4.063-.138.1-.263.15-.4.037-.1.062-.187.112-.274.05-.112.1-.212.175-.324.062-.113.125-.2.212-.3.087-.112.162-.187.262-.287.087-.087.174-.15.262-.224.075-.062.15-.112.237-.175.124-.075.212-.137.336-.224-.137-.038-.25-.075-.374-.112-.062-.013-.125-.025-.187-.05-.1-.038-.174-.063-.274-.1-.125-.037-.212-.075-.312-.112-.1-.038-.175-.063-.25-.1-.124-.05-.224-.087-.349-.137-.087-.038-.15-.075-.25-.1-.161-.087-.31-.15-.485-.224M308.962 280.538c-.024.15-.037.274-.062.411-.025.112-.037.2-.062.312-.013.137-.025.262-.025.399 0 .125.012.237.037.362a.949.949 0 0 0 .075.249c.025.05.063.1.1.15.025.012.05.037.075.05.1.05.162.087.25.112.099.05.174.075.261.112.1.025.175.037.262.05.125.025.212.025.337.012.1-.012.187-.037.287-.074a.758.758 0 0 0 .261-.15.734.734 0 0 0 .225-.212c.062-.087.1-.162.162-.25.037-.087.075-.162.1-.261.012-.075.037-.125.05-.2.024-.1.037-.187.062-.287-.112-.062-.212-.1-.324-.162a2.022 2.022 0 0 1-.162-.075c-.1-.037-.175-.062-.262-.1-.113-.05-.2-.074-.312-.1-.075-.024-.137-.05-.225-.062-.112-.037-.224-.062-.349-.1l-.76-.187zM311.825 281.538a3.984 3.984 0 0 0-.087.411c-.025.112-.025.2-.038.312a.736.736 0 0 0 .013.237c.025.1.05.174.087.25a.524.524 0 0 0 .112.174c.038.05.063.087.125.125.063.062.125.1.187.137.087.037.162.075.25.1.112.037.2.062.311.1.113.024.2.037.312.062.112.012.225.024.337.024.087 0 .162-.012.25-.024a.531.531 0 0 0 .149-.05l.187-.113c.05-.037.1-.074.137-.124a.27.27 0 0 0 .087-.113c.025-.025.038-.062.063-.1.025-.062.037-.124.062-.199-.062-.05-.137-.1-.2-.162-.037-.025-.062-.05-.1-.075a3.438 3.438 0 0 0-.348-.237c-.187-.1-.337-.187-.537-.287a7.64 7.64 0 0 0-.473-.2c-.125-.061-.225-.086-.35-.136a.441.441 0 0 1-.174-.038c-.137-.025-.237-.05-.362-.075M307.337 292.05l.113.15c.025.025.037.037.062.05.05.024.087.037.137.05.088.012.162.012.25.012.174-.013.311-.037.486-.062.2-.038.374-.063.574-.125.087-.013.15-.038.237-.063.062-.025.124-.05.187-.087a.333.333 0 0 0 .075-.062.378.378 0 0 0 .062-.087c.025-.038.025-.063.025-.088 0-.037 0-.062-.025-.1a.54.54 0 0 0-.112-.15c-.112-.061-.2-.136-.312-.199a1.317 1.317 0 0 0-.137-.112c-.063-.062-.125-.112-.175-.174a4.313 4.313 0 0 1-.2-.25c-.062-.087-.112-.174-.174-.274a1.43 1.43 0 0 1-.125-.237c-.025-.063-.05-.112-.062-.175-.05-.125-.075-.224-.112-.361-.088.112-.162.2-.237.311-.05.063-.1.125-.137.2-.063.1-.113.174-.138.274-.062.112-.1.225-.137.35a3.566 3.566 0 0 0-.087.349 1.442 1.442 0 0 0-.037.324v.536M313.188 291.675c.062.025.124.05.187.062.025.013.05.025.087.025a.96.96 0 0 0 .187.025c.125 0 .224-.012.337-.025l1.097-.112c.175-.025.324-.05.511-.087.1-.025.187-.062.275-.1.025-.012.037-.025.062-.037.075-.038.125-.075.175-.112.012-.075.037-.138.037-.2v-.075a.522.522 0 0 0-.05-.2 2.239 2.239 0 0 0-.511-.673c-.125-.1-.25-.174-.387-.25a1.338 1.338 0 0 0-.474-.124 1.58 1.58 0 0 0-.536.062 1.88 1.88 0 0 0-.35.187 1.361 1.361 0 0 0-.298.3 1.384 1.384 0 0 0-.212.374c-.05.15-.088.274-.1.436-.013.075-.013.15-.025.237 0 .088-.012.187-.012.287M310.05 291.825c.05.037.087.062.137.1.013.012.025.012.038.012.062.025.124.05.187.05.162.013.274 0 .436-.012.05-.013.087-.013.15-.013.324-.012.61-.012.935-.025.162 0 .3-.025.45-.062a.576.576 0 0 0 .211-.112c.013-.013.025-.025.025-.038a.588.588 0 0 0 .087-.15v-.299c-.012-.05-.012-.1-.025-.15a.377.377 0 0 0-.05-.124c-.037-.087-.074-.15-.124-.237a1.508 1.508 0 0 0-.125-.175l-.112-.15a1.824 1.824 0 0 0-.237-.199c-.113-.05-.187-.087-.3-.112a1.264 1.264 0 0 0-.374-.025 1.604 1.604 0 0 0-.424.087c-.087.038-.162.063-.25.112a2.325 2.325 0 0 0-.249.125c-.087.063-.162.112-.249.187-.037.025-.05.05-.075.088a.634.634 0 0 0-.087.212c-.013.162-.013.299-.013.46.013.063.013.126.013.188.012.1.012.175.025.262M336.788 273.438c.249-.25.473-.45.723-.686.125-.113.237-.212.374-.312a3.57 3.57 0 0 1 .511-.374 5.88 5.88 0 0 1 .686-.45c.237-.149.45-.274.699-.41.2-.1.374-.175.573-.275.15-.063.275-.112.437-.175.299-.112.56-.212.873-.312l-.437-1.733c-.399.062-.723.112-1.122.187-.187.037-.35.075-.536.125a5.127 5.127 0 0 0-.724.287c-.3.137-.549.274-.835.449-.3.187-.537.349-.811.573a5.343 5.343 0 0 0-.561.5 8.327 8.327 0 0 0-.437.498c-.25.312-.449.574-.673.885l1.26 1.223zM325.712 277.675c-.1-.087-.187-.162-.286-.25-.05-.037-.088-.074-.138-.124a3.958 3.958 0 0 1-.374-.424 6.125 6.125 0 0 1-.474-.686c-.137-.225-.261-.412-.386-.636-.187-.3-.324-.549-.511-.848-.163-.3-.312-.549-.487-.836-.15-.224-.262-.399-.424-.61a4.574 4.574 0 0 0-.586-.7 2.722 2.722 0 0 0-.536-.398 2.636 2.636 0 0 0-.674-.275 6.337 6.337 0 0 0-1.072-.237 6.133 6.133 0 0 0-.836-.062 4.66 4.66 0 0 0-.723.013c-.175 0-.3.024-.461.074-.15.038-.287.088-.425.163-.249.112-.46.261-.648.461a1.614 1.614 0 0 0-.387.561 3.88 3.88 0 0 0-.224.674c-.112.411-.175.773-.25 1.21-.024.186-.05.349-.074.536-.025.124-.025.237-.038.361a.677.677 0 0 0 0 .225c.013.037.025.075.05.112a.33.33 0 0 0 .075.062c.05.038.087.05.137.063.087.012.175.037.275.037.124.013.236.025.374.013h.623c.038-.1.075-.175.125-.275.012-.05.037-.1.05-.15.037-.1.075-.186.112-.311.062-.225.125-.412.187-.649.038-.187.087-.336.15-.523.05-.138.087-.25.137-.387.037-.1.087-.175.15-.274.062-.075.124-.15.2-.212a.876.876 0 0 1 .211-.113.405.405 0 0 1 .175-.05l.212-.024c.05 0 .436.012.461.062l.187.062.125.1.112.1.113.112.187.212c.074.1.374.462.424.524l.411.574c.013.012.262.411.424.61.075.1.125.175.2.25.05.087.15.175.15.2 0 .037.124.187.236.299.1.125.175.187.325.337.15.137.286.224.399.324.124.1.311.187.324.187.723.112.673.262 1.833.436.038.013.075.013.112.013.262.025.487.05.749.087"/><path fill-rule="evenodd" fill="#231f20" d="M325.213 145.463c2.718-26.975 4.976-53.264 7.72-80.064 1.097-10.8 3.553-22.249 2.568-32.786-1.31-13.918-12.371-23.658-27.972-22.2-7.845.737-14.654 5.226-18.01 10.938-4.775 8.119-3.478 20.527-2.244 31.839 2.607 23.968 4.003 46.205 6.11 68.802 1.086 11.648 2.358 23.346 2.246 34.084-3.23 1.047-2.694-2.444-2.894-3.866-4.302-31.115-5.998-64.886-10.613-94.855-5.312-2.307-10.725.536-11.897 4.839-.885 3.205.561 9.041 1.285 13.493 4.589 27.973 9.378 56.682 13.83 83.93.2 1.223 2.107 5.176-1.61 4.814-1.309-.71-.747-2.382-.972-3.529-4.103-21.412-8.33-43.985-11.885-65.597-8.979.685-6.846 12.159-5.15 19.605 2.868 12.546 5.437 23.67 8.355 36.34.25 1.06 2.033 6.248 0 6.435-2.132.187-1.633-1.709-2.244-4.178-3.18-13.07-6.26-24.281-9.004-36.34-2.881-.886-5.974.05-7.396 1.609 3.654 12.757 7.296 25.516 10.937 38.26-5.462-1.52-5.55-8.442-7.083-13.505-1.522-5.101-3.28-10.638-4.814-15.752-1.422-4.714-2.918-10.862-4.826-15.763-1.709-4.378-5.226-10.152-11.573-8.356 4.49 14.629 11.061 32.437 16.4 47.59.748 2.145 2.107 4.789-1.285 5.462-7.034-18.095-15.626-41.117-22.835-60.758-2.02-5.538-4.602-16.363-8.031-19.942-3.617-3.766-12.783-2.407-13.194 2.245-.162 1.958 3.242 7.732 4.514 10.625 9.778 22.3 18.644 42.875 27.973 64.625 1.135 2.67 5.512 7.121 1.284 9.64-11.722-25.353-26.15-56.506-38.273-82.957-4.216-9.204-7.645-20.352-13.818-26.687-13.519-13.868-40.444-4.714-42.451 13.83-1.559 14.578 7.483 23.432 13.506 31.826 14.093 19.617 27.025 38.311 40.519 57.554 2.457 3.504 7.907 7.757 4.502 12.221-13.294-18.631-27.636-37.076-41.155-55.945-1.609-2.245-4.215-7.383-6.435-7.72-4.377-.66-8.555 4.677-7.72 9.965.5 3.093 4.752 6.834 7.084 9.653 15.937 19.23 30.866 37.712 45.969 56.268 2.294 2.806 6.784 6.124 5.15 10.613-13.955-15.851-27.311-32.275-41.155-48.237-8.206 8.044 4.19 17.546 9.004 22.835 12.322 13.53 23.969 25.677 35.693 38.572 2.282 2.532 5.836 5.226 5.462 9.017-1.92-1.31-4.04-3.218-5.787-5.15-11.485-12.622-22.958-23.982-34.73-36.653-1.51-1.634-4.141-5.513-6.423-5.463-1.61.025-4.49 3.043-4.502 4.178-.025 2.058 4.8 5.3 6.746 7.071 2.931 2.669 5.101 5.138 7.072 7.071 11.984 11.736 23.968 22.997 35.367 34.408 2.195 2.182 6.06 4.302 5.799 8.356-18.357-16.524-37.051-34.57-55.634-51.443-2.531-2.307-5.624-6.198-9.316-8.68-3.217-2.157-8.704-5.325-12.546-.324 24.968 22.011 52.191 45.544 77.806 67.519 1.484 1.272 4.84 2.544 3.866 5.474-8.704-6.297-17.41-13.892-26.687-21.55-21.886-18.02-45.283-37.276-67.194-55.62-4.252-3.555-9.091-9.08-13.506-11.262-6.635-3.268-12.147 1.185-12.546 7.408 38.31 28.62 78.306 58.077 116.716 86.486.786.586 3.567 1.422 2.257 3.217-1.82.586-3.005-1.409-4.19-2.244-41.953-30.118-83.269-59.213-125.4-89.07-6.173-4.389-12.609-10.088-20.901-10.936-22.012-2.258-35.718 23.968-22.823 39.87 4.278 5.287 11.785 9.44 19.605 12.533 7.383 2.931 15.401 7.184 22.186 10.302 42.49 19.455 85.44 39.17 127.325 58.838 1.297.599 4.515 1.422 3.866 3.854-45.27-19.069-92.223-40.818-137.937-60.771-2.769-1.198-8.031-4.103-9.64-3.854-4.939.76-4.515 9.964-2.582 12.546 2.594 3.442 12.322 5.413 18.333 7.707 43.112 16.5 85.626 32.6 127.962 48.563 1.31.486 4.228.549 3.866 2.88-39.982-13.268-80.451-28.87-120.906-42.763-1.833 9.253 5.936 11.236 13.183 13.506 34.32 10.738 67.493 20.64 100.965 31.19 2.419.76 6.023 1.16 6.759 3.542-34.956-9.204-70.524-20.59-105.793-30.541-1.446 1.534-3.005 4.003-2.244 6.747 33.023 9.078 68.79 17.683 102.25 26.052 1.733.424 5.736.362 5.786 2.893-33.422-6.996-71.796-16.325-106.752-24.443-8.256-1.921-21.177-6.086-22.835 3.529 39.995 8.306 82.022 15.351 122.178 23.159 2.532.486 6.136.636 7.408 2.569-6.31.536-12.932-1.397-19.617-2.57-40.033-6.996-81.287-13.556-121.543-20.577-11.386-1.995-30.38-7.894-25.727 9.328 52.977 6.884 109.246 12.36 162.7 18.644 1.134.137 4.227-.337 4.19 1.92-54.773-4.526-117.14-10.7-174.275-16.4-9.765-.96-20.814-1.72-27.985 1.946-6.897 3.517-11.723 10.326-12.534 19.605-.661 7.583 1.384 12.895 3.542 16.4 8.991 14.704 30.729 10.09 49.821 8.356 52.59-4.727 104.071-9.117 155.313-13.83 2.182-.187 5.649-.886 6.11.648-.785 1.784-3.167 1.135-4.502 1.297-54.087 6.061-109.845 11.424-163.35 17.997-2.27 4.863.487 10.625 4.19 11.897 4.964 1.72 14.73-1.247 20.89-2.245 41.303-6.697 82.072-13.619 122.514-20.265 6.947-1.135 13.657-2.806 20.253-2.569-1.634 2.407-5.076 1.82-7.408 2.257-40.581 7.52-81.697 15.14-122.502 22.174.96 9.553 12.757 6.61 20.59 4.826 31.963-7.295 63.265-14.167 94.206-21.213 5.113-1.173 10.114-3.03 15.115-2.906-1.16 2.033-3.841 2.095-5.787 2.581-34.133 8.468-68.478 16.338-102.25 24.755-.885 2.881.038 5.974 1.597 7.396 30.84-8.742 62.903-18.034 93.246-26.688 4.577-1.31 9.228-3.08 13.194-2.893.199 1.92-2.283 1.596-3.218 1.92-19.766 7.047-40.855 12.622-60.771 18.657-15.789 4.789-33.099 8.979-48.55 14.804-4.826 1.808-10.85 4.776-9.004 11.56 39.995-12.945 81.398-28.982 121.542-41.79-1.372 3.143-5.624 3.804-8.368 4.826a16885.08 16885.08 0 0 1-127.325 46.942c-6.31 2.294-15.664 4.49-16.075 10.924-.175 2.756 2.12 7.807 4.826 8.044 1.447.125 6.46-2.606 9.329-3.866 44.458-19.58 89.43-39.321 133.425-58.19 1.26-.536 2.656-1.783 4.19-1.284 0 2.556-3.305 2.843-4.826 3.541-51.713 23.563-103.533 46.988-155.238 71.05-8.144 3.775-14.654 8.613-17.36 16.4-5.475 15.652 6.435 31.702 19.605 33.123 10.102 1.085 18.52-3.779 24.444-8.044 19.081-13.719 38.374-27.674 56.905-40.519 25.977-17.971 51.206-36.465 76.535-53.051-.112 3.355-3.953 5.188-6.11 6.76-35.656 25.852-71.31 51.99-106.753 77.806-2.557 1.858-6.76 4.065-7.071 6.11-.811 5.363 5.936 8.356 9.964 7.72 4.24-.674 10.251-7.458 14.155-10.613 31.514-25.529 61.769-50.919 92.597-75.886.848-.686 1.871-2.058 3.218-1.933.449 2.656-2.345 4.19-3.866 5.475-25.99 22.136-52.116 43.798-77.806 65.91 5.861 6.422 12.508.498 17.36-3.854 21.325-19.13 41.253-39.209 62.38-57.23.498-.424.873-1.983 1.933-1.284-.138 3.928-4.166 5.761-6.435 8.03a1043.377 1043.377 0 0 1-22.51 21.862c-7.52 7.109-14.704 14.441-22.51 21.55-2.295 2.095-7.121 5.15-7.071 7.72.012.586 1.546 4.477 4.19 4.502 1.808.012 5.362-4.59 7.07-6.435 14.755-15.988 29.246-30.541 44.048-45.333 1.035-1.047 2.245-3.43 3.218-2.581.15 4.215-4.078 6.41-6.435 9.016-12.421 13.67-24.918 26.7-37.289 40.182-5 5.437-11.398 10.475-14.804 16.4-1.446 2.519-3.74 9.228.649 11.249 16.686-18.744 34.831-39.77 51.442-59.163 2.357-2.744 4.353-6.036 7.396-8.031 1.895 2.569-1.21 4.502-2.57 6.11-21.587 25.367-42.488 51.344-63.988 77.172-2.98 3.579-8.256 8.617-8.68 13.182-.611 6.523 3.342 7.52 8.032 8.992 24.168-30.704 47.165-64.289 70.748-94.53 2.395 3.105-1.509 5.786-2.893 7.72-24.094 33.572-47.402 67.043-71.384 100.317-5.761 7.994-12.184 19.43-6.759 30.879 4.016 8.443 14.068 17.01 27.336 14.79 14.404-2.418 19.069-16.074 24.755-28.633 16.113-35.53 32.325-69.177 48.874-104.495.786-1.671 1.085-3.654 2.569-2.893 2.245 1.147-.374 4.44-.96 5.786-12.708 29.494-25.292 57.965-37.938 86.5-1.172 2.656-6.185 10.974-5.786 13.505.449 2.894 7.22 5.538 11.573 3.205 2.98-1.583 4.265-7.37 6.11-12.209 10.938-28.733 22.373-58.027 33.11-86.811.786-2.095 1.472-5.936 2.906-5.786 2.607.274-.299 6.796-.972 8.68-7.845 22.11-16.737 45.044-23.795 66.233 10.4 2.145 12.034-8.692 14.466-16.4 5.026-15.839 9.528-30.591 14.466-46.305.362-1.11 1.696-8.48 3.542-8.031 2.02.486.337 3.84-.324 6.11-5.076 17.323-9.74 33.198-14.467 49.51 1.622 1.547 4.116 2.994 7.084 2.258 4.028-15.576 8.293-32.538 12.209-48.238.499-1.97.474-4.701 2.257-5.786 2.794 1.683.823 5.562.312 7.72a7490.956 7490.956 0 0 0-9.964 43.087c-1.996 8.767-7.458 22.547 2.893 24.755 5.35-23.695 8.717-49.373 14.466-72.669 2.968.387 1.87 3.13 1.609 4.826-4.477 29.32-10.339 58.852-15.115 88.108-.76 4.627-2.02 10.04-.636 13.494 1.646 4.14 6.41 5.063 11.573 3.541 4.664-33.272 7.844-70.31 12.222-103.535.087-.636-.711-2.456.636-2.569 3.828.15 1.77 4.502 1.62 6.111-3.092 30.929-6.035 61.27-8.691 91.625-.998 11.324-3.617 23.021-2.57 34.084.836 8.942 6.386 17.097 14.467 20.252 8.742 3.43 19.542 2.794 27.336-3.853 8.518-7.246 8.443-20.378 6.747-35.044-4.178-36.066-6.547-71.471-9.653-107.064-.224-2.544-1.471-6.933 2.582-7.395 3.841 36.229 7.27 72.894 11.897 108.349 4.876 2.282 10.613-.462 11.898-4.178 1.222-3.554-.636-9.815-1.297-13.817-4.939-30.318-9.89-59.674-14.454-89.07-.3-1.857-1.596-4.663 1.596-5.15 4.814 24.457 9.266 49.262 13.506 74.278 10.476-1.384 6.111-15.389 4.178-23.795-3.666-15.925-7.071-31.44-10.6-46.941-.574-2.47-2.806-6.336.636-7.72 3.741 13.905 6.846 28.646 10.288 42.764 1.148 4.701 2.158 9.577 4.178 13.83 2.582 1.022 5.45-.3 6.76-1.61-4.715-16.798-10.364-35.865-15.116-52.74-.61-2.17-2.22-5.312.96-6.422 5.937 19.643 12.61 41.105 18.657 61.084 1.77 5.874 4.178 15.153 12.857 13.194-6.871-21.713-16.025-46.368-23.795-68.491-1.047-2.981-3.828-7.72-.636-9.005 4.203 8.306 7.109 18.27 10.6 27.65 8.58 23.008 17.186 45.705 26.053 69.45 1.859 4.976 3.455 10.277 8.68 10.613 2.27.15 7.77-1.82 8.044-4.814.075-1.01-1.896-4.464-2.906-6.759-11.199-25.554-21.013-48.575-32.15-73.954-2.743-6.248-7.881-15.912-10.288-23.47-.649-2.045-1.06-1.92.324-2.581 1.733-.81 1.521.574 2.245 1.933a74.505 74.505 0 0 1 1.933 3.866c16.187 34.781 31.215 69.201 46.94 103.535 5.114 11.149 9.716 23.745 20.902 27.96 13.008 4.926 27.399-3.542 31.839-12.858 5.999-12.608-1.908-25.952-8.044-33.758-3.654-4.652-7.832-10.488-11.249-15.427-20.352-29.406-40.419-57.428-60.447-85.85-1.497-2.133-4.777-5.301-2.582-8.369 21.413 28.484 42.078 57.616 63.34 86.824 1.51 2.058 7.52 11.436 9.653 11.897 4.95 1.06 7.732-4.49 8.044-7.395.573-5.525-6.074-11.511-9.329-15.439-22.447-27.075-43.761-53.712-65.597-80.064-1.609-1.945-4.777-3.916-3.53-7.07 20.49 22.597 40.856 48.088 61.408 71.695 4.24-3.092 2.819-9.253.324-12.857-4.015-5.787-10.201-11.074-15.426-16.724-14.255-15.389-28.609-31.077-42.451-45.969-1.235-1.334-3.18-2.843-2.245-5.15 15.576 16.012 33.086 33.622 48.861 50.807 1.996 2.158 5.425 6.785 7.72 6.747 1.534-.037 4.49-2.469 4.502-4.177.025-2.195-5.363-5.824-7.395-7.72-16.113-15.04-31.365-30.716-46.617-45.656-2.444-2.382-6.859-4.378-6.759-8.68 19.305 17.11 40.144 36.865 59.811 55.296 2.694 2.532 6.186 6.448 9.965 9.328 3.242 2.47 9.415 6.186 13.506.973-25.466-22.422-52.903-46.217-79.091-68.491-1.709-1.46-4.677-2.843-4.19-5.787 8.966 6.548 18.593 14.692 27.972 22.51 23.196 19.318 46.33 38.76 69.775 58.19 4.352 3.617 9.952 9.927 15.764 9.965 5.387.037 6.784-3.355 8.031-8.032-37.887-28.758-76.896-57.616-115.107-85.526-2.395-1.746-6.398-3.392-6.435-7.071 43.748 31.078 87.796 62.218 131.837 93.558 6.136 4.364 12.82 10.4 21.226 11.248 16.175 1.672 28.135-11.099 27.973-26.04-.125-10.637-8.106-18.033-16.075-22.497-3.891-2.182-8.169-3.33-12.222-5.163-49.884-22.498-98.932-46.829-147.912-69.115-1.61-.736-5.213-.948-4.827-3.866 46.143 19.056 94.132 42.165 140.513 62.056 2.893 1.247 8.418 4.103 9.964 3.866 5.288-.81 4.365-10.463 2.258-12.857-2.969-3.417-12.56-5.375-18.644-7.72-44.098-16.96-87.423-32.999-130.55-49.522-1.335-.512-4.053-.5-3.854-2.894 40.855 13.905 82.622 29.707 124.1 44.048 1.958-7.408-3.866-10.002-8.991-11.898-5.375-1.97-11.76-4.003-16.413-5.462-30.929-9.727-61.32-18.806-91.625-28.296-2.332-.723-6.21-.886-7.071-3.854 36.478 10.464 72.569 21.313 108.998 31.827 1.459-1.709 3.03-4.053 2.244-7.071-34.532-9.117-70.86-17.647-105.455-26.364-1.845-.462-5.287-.624-5.786-3.218 35.019 7.62 73.766 17.135 109.632 25.404 8.406 1.933 21.463 6.098 23.147-3.53-41.778-9.54-87.448-15.04-128.925-24.767-.91-.212-3.704.561-3.542-1.608 3.205-.786 6.422.424 9.652.96 44.61 7.52 89.13 15.327 133.75 22.835 6.423 1.085 15.477 3.791 20.578 2.893 5.824-1.023 7.956-6.46 5.475-12.546-54.524-6.547-110.943-12.247-165.263-18.644-1.06-.125-4.24.35-4.19-1.92 55.147 4.664 114.709 10.463 170.087 16.075 8.169.823 17.323 2.357 25.404 1.608 12.359-1.16 21.214-10.014 22.186-22.835.611-7.994-1.883-14.453-5.462-18.656-10.04-11.748-31.065-7.233-48.55-5.774-53.451 4.44-104.894 9.29-157.562 13.817-2.133.187-5.4 1.435-6.111-.324.723-1.758 3.205-1.122 4.502-1.284 54.922-6.46 111.441-11.636 165.912-18.01 2.894-4.626-.074-10.911-3.853-12.208-2.532-.873-6.91.037-10.613.636-51.056 8.343-101.589 16.599-151.45 25.079-1.447.249-4.34 1.134-4.502-.325.274-1.384 2.282-1.396 3.218-1.608 1.309-.287 2.93-.412 4.177-.636 41.815-7.52 83.73-15.265 125.413-22.51-1.185-9.578-12.833-6.66-20.914-4.814-35.292 7.994-69.862 16.162-104.171 23.795-2.445.536-5.213 1.421-7.72.96 1.135-2.17 4.166-2.108 6.11-2.57 30.13-7.295 61.396-14.99 91.002-22.185 4.702-1.16 9.615-1.51 13.818-3.866 1.022-2.582-.3-5.438-1.61-6.747-31.613 9.316-64.837 18.22-96.463 27.324-4.352 1.26-8.642 3.467-13.17 3.217 1.572-2.494 4.939-2.47 7.383-3.217 30.716-9.391 60.721-18.607 91.313-27.973 4.676-1.422 11.31-2.868 16.723-4.826 4.939-1.771 11.087-5.088 9.329-11.898-38.112 13.095-78.555 26.8-117.042 40.52-2.27.81-4.764 2.693-7.395 1.932.15-2.132 2.88-2.082 4.19-2.581 44.472-16.837 89.468-33.61 134.075-49.834 6.622-2.407 15.95-4.128 16.388-10.925.2-2.993-2.033-7.794-4.814-8.044-1.447-.137-6.572 2.644-9.328 3.854-45.507 20.054-91.35 39.77-136.325 59.487-1.06.462-3.006 2.357-4.19.649.885-2.058 3.454-2.12 5.15-2.893 49.647-22.748 98.845-45.544 148.862-68.18 7.009-3.167 16.2-6.746 20.902-11.56 11.473-11.772 6.135-33.086-6.76-39.882-11-5.8-25.053.736-32.475 6.11-43.611 31.652-88.07 62.243-131.187 92.934-1.347.948-3.006 2.47-4.814 2.245-.836-1.97 1.546-2.78 2.569-3.542a16432.83 16432.83 0 0 1 113.175-82.62c2.394-1.747 7.046-4.503 7.395-6.112 1.222-5.749-6.46-8.792-10.288-8.044-2.145.412-4.864 3.405-7.396 5.463-35.031 28.57-68.977 56.643-103.21 84.566-.935.748-2.157 2.108-3.541 1.933-.948-2.694 2.556-3.716 3.866-4.826 27.398-23.21 55.147-47.203 82.308-70.1-6.048-6.61-12.895-.125-17.683 4.177-22.673 20.378-46.642 43.524-67.843 62.057.748-3.891 4.066-6.21 6.747-8.668 16.225-14.89 32.05-30.953 48.237-45.993 2.32-2.145 7.433-6.161 7.396-8.356-.025-.886-2.307-4.477-4.19-4.502-2.42-.025-5.5 5.05-7.072 6.747-2.531 2.78-5.636 5.612-7.07 7.083-13.183 13.444-25.442 26.402-38.262 39.222-.91.91-1.696 2.718-3.217 2.581.648-4.452 4.601-7.258 7.407-10.289 14.429-15.713 28.622-30.33 43.075-45.98 2.208-2.395 5.937-5.725 8.368-9.33 2.145-3.204 5.313-8.829.312-12.533-15.814 16.874-32.037 37.838-47.914 54.66-.66-5.263 4.029-8.568 6.76-11.91 17.072-20.864 33.97-41.491 51.442-62.38 2.781-3.317 7.358-7.146 6.11-12.845-.76-3.454-4.327-4.938-8.355-5.799-18.145 23.445-35.705 49.186-53.7 71.709-.05-1.883.562-3.093.325-5.138 17.222-23.62 33.783-47.651 51.118-71.709 6.398-8.88 16.7-18.42 14.792-33.447-1.46-11.461-13.594-21.04-26.04-20.89-16.65.188-22.212 15.502-27.65 27.96-13.032 29.845-30.38 63.902-43.087 92.287-3.305-3.155-.15-7.707 1.285-10.925 10.126-22.81 19.58-44.21 29.905-67.206 1.384-3.08 5.175-9.278 4.814-11.573-.437-2.806-6.797-5.225-10.925-3.542-4.814 1.983-8.044 15.24-9.964 20.253-8.68 22.522-16.75 45.706-25.092 66.246-2.656-1.808-1.434-4.165-.636-6.435 5.837-16.499 12.197-33.734 17.684-49.834-12.072-1.646-13.792 13.743-16.4 22.187-2.357 7.632-4.477 15.438-6.76 22.822-.722 2.37-1.458 5.774-4.813 5.15 3.505-11.61 6.91-23.32 10.289-35.043-1.634-1.56-4.103-2.993-7.071-2.257-2.956 11.822-6.498 24.905-9.329 36.34-.361 1.471-.25 3.629-1.608 4.49-3.255-.275-1.672-3.767-1.285-5.463 2.781-12.072 5.562-23.084 8.356-35.044 1.983-8.468 5.287-20.277-3.854-21.861-4.203 20.415-8.106 41.529-12.221 62.692-.362 1.846-.225 8.63-3.218 7.72-1.31-.399-.411-2.98 0-5.462 4.876-29.008 9.603-56.045 14.155-83.918.723-4.464 2.27-9.553 1.609-12.87-1.148-5.6-6.984-7.607-12.546-5.138-3.804 33.373-7.745 66.62-11.262 100.318-4.215-2.045-2.42-8.53-1.92-13.506m34.083-33.11c2.008.062 5.912.636 7.72 1.92 1.896-8.443 6.46-15.751 17.36-14.142 3.978-6.498 6.21-19.63 10.937-26.688 3.704-5.55 13.569-6.36 19.293-.648 7.807-14.742 12.72-33.185 35.68-31.19 15.563 1.359 28.346 14.89 27.972 31.513-.274 12.733-9.665 19.193-14.466 28.297 6.048 2.943 12.745 8.592 9.653 17.035-1.36 3.716-5.675 7.72-8.68 11.26a512.756 512.756 0 0 1-9.329 10.614c8.156 6.323 2.47 18.781-3.866 23.146.948 1.048 1.746 1.51 2.906 2.57.274.26 2.282 2.855 2.569 2.892 1.147.15 6.36-5.562 7.72-6.11 5.5-2.245 10.488-.487 14.466 2.905 3.504-2.893 7.794-6.173 12.534-9.964 3.916-3.143 8.405-8.318 13.193-9.017 7.37-1.085 11.748 4.615 14.143 10.289 9.191-4.315 14.865-13.369 26.687-14.466 17.01-1.584 31.864 12.146 32.8 28.608 1.184 21.127-15.602 28.833-31.19 35.057.186 1.845 2.17 3.292 2.892 5.138 7.196 18.57-19.653 19.117-29.905 24.767 3.555 10.862-5.724 16.025-14.466 17.684-.2 1.883 2.395 5.225 1.609 7.707 9.216-3.255 18.894-.324 20.901 8.044 9.191.337 21.026-5.188 30.218-3.866 6.771.998 9.627 8.268 9.004 16.412 7.732-.012 14.304-1.384 20.577-1.284 16.15.237 27.923 15.027 26.688 32.15-.549 7.657-3.891 14.18-8.68 18.969-3.691 3.691-10.027 8.28-17.035 8.68-7.22.424-14.416-1.734-22.186-1.61.972 8.556-2.22 15.527-9.004 16.725-8.967 1.57-20.528-4.403-28.945-4.502-.287 9.665-13.17 11.635-21.862 8.03-.062 2.009-.648 5.912-1.933 7.72 8.456 1.896 15.764 6.473 14.155 17.36 8.668 6.31 31.128 6.186 31.514 19.618.112 4.564-1.945 7.732-4.19 10.613 14.429 8.256 32.999 11.66 31.19 35.367-.674 8.842-5.687 17.56-13.183 22.823-6.61 4.664-18.545 8.156-28.296 3.542-3.168-1.497-6.023-4.44-9.004-6.435-3.13-2.095-6.348-3.692-9.316-6.099-2.943 6.049-8.605 12.733-17.047 9.64-3.704-1.359-7.72-5.674-11.262-8.68a478.973 478.973 0 0 1-10.6-9.328c-6.323 8.169-18.781 2.482-23.146-3.853-1.871 1.67-2.77 4.315-5.475 5.15.923 2.806 4.776 4.752 6.11 8.032 2.133 5.212.437 10.912-2.893 14.466 2.881 3.504 6.161 7.794 9.965 12.546 3.13 3.904 8.305 8.406 9.004 13.183 1.085 7.382-4.614 11.76-10.289 14.142 4.964 10.476 15.801 16.25 14.466 32.488-1.147 14.142-14.08 26.188-28.608 27-9.104.51-20.365-3.355-25.728-11.574-3.816-5.848-5.387-12.446-9.328-19.617-3.293 1.384-6.56 4.465-12.21 3.866-12.27-1.297-12.333-21.688-17.683-30.866-10.862 3.541-16.038-5.737-17.684-14.48-1.895-.199-5.238 2.395-7.72 1.61 3.268 9.228.337 18.893-8.043 20.9-.125 8.32 4.701 21.09 3.866 29.582-.711 7.021-7.882 10.414-16.4 9.653-.075 7.545 1.446 13.98 1.284 20.889-.375 15.873-15.325 27.658-32.475 26.337-12.625-.973-26.55-12.297-27.337-25.716-.387-6.772 1.658-13.868 1.608-22.186-8.542.985-15.526-2.22-16.71-9.005-1.585-8.954 4.389-20.527 4.489-28.945-9.665-.286-11.636-13.157-8.032-21.86-1.995-.05-5.91-.637-7.72-1.921-1.895 8.455-6.46 15.75-17.36 14.142-3.94 6.385-6.122 19.168-10.612 26.364-3.63 5.836-13.743 6.797-19.605.96-7.433 13.706-11.286 29.544-30.23 31.19-19.355 1.696-33.834-13.955-33.435-31.501.274-12.845 9.628-19.056 14.466-28.296-6.323-2.856-13.095-9.329-9.328-17.684 1.634-3.63 5.724-7.42 8.68-10.937 3.205-3.804 6.298-7.408 9.004-10.289-8.169-6.323-2.47-18.781 3.853-23.146-1.67-1.87-4.315-2.756-5.138-5.462-2.818.923-4.764 4.764-8.044 6.11-5.213 2.133-10.912.424-14.466-2.893-3.567 2.62-7.645 6.323-12.222 9.965-3.89 3.105-8.767 8.243-13.182 8.991-7.595 1.31-12.06-4.602-14.466-10.288-10.55 4.95-16.325 16.012-32.8 14.478-13.917-1.297-25.877-14.205-26.687-28.62-.51-9.092 3.355-20.366 11.574-25.728 5.86-3.817 12.446-5.388 19.617-9.316-1.372-3.293-4.452-6.56-3.853-12.222 1.284-12.259 21.675-12.321 30.866-17.671-3.542-10.875 5.724-16.05 14.466-17.696.2-1.896-2.394-5.226-1.609-7.72-9.216 3.267-18.881.337-20.888-8.031-9.204-.337-21.04 5.188-30.23 3.866-6.785-.998-9.628-8.269-9.005-16.413-7.545-.062-13.98 1.447-20.9 1.285-24.68-.574-34.37-34.433-17.685-51.12 4.066-4.065 10.763-8.317 17.035-8.679 6.772-.4 13.88 1.659 22.187 1.609-.973-8.555 2.22-15.539 9.016-16.724 8.955-1.571 20.528 4.39 28.933 4.502.287-9.678 13.17-11.636 21.861-8.031.062-2.008.649-5.912 1.933-7.72-8.455-1.896-15.764-6.473-14.155-17.373-6.909-4.963-26.887-6.896-30.541-15.102-2.083-4.664-.225-11.673 3.217-15.128-14.428-8.243-32.986-11.648-31.19-35.355.674-8.854 5.687-17.558 13.183-22.835 6.61-4.651 18.545-8.156 28.296-3.541 3.168 1.496 6.024 4.44 8.992 6.435 3.142 2.107 6.36 3.691 9.328 6.123 2.918-6.086 8.618-12.745 17.048-9.665 3.703 1.36 7.707 5.674 11.248 8.692 3.979 3.38 7.608 6.61 10.613 9.316 6.323-8.156 18.782-2.47 23.147 3.854 1.87-1.659 2.768-4.303 5.462-5.138-.91-2.806-4.764-4.764-6.098-8.032-2.133-5.213-.437-10.912 2.893-14.466-4.116-7.109-14.691-15.439-18.333-23.808-3.018-6.946 3.38-14.055 9.653-16.075-4.964-10.463-15.801-16.225-14.466-32.475 1.147-14.142 14.092-26.188 28.608-27 9.104-.523 20.365 3.343 25.728 11.574 3.816 5.848 5.4 12.42 9.328 19.617 3.28-1.384 6.548-4.465 12.21-3.866 12.258 1.297 12.32 21.688 17.683 30.866 10.862-3.541 16.038 5.725 17.684 14.48 1.896.199 5.238-2.408 7.72-1.622-3.255-9.216-.337-18.881 8.043-20.889.138-9.029-4.776-20.527-3.866-29.594.736-7.27 7.92-10.288 16.4-9.627.075-7.558-1.446-13.993-1.284-20.914.574-24.668 34.445-34.358 51.119-17.684 4.065 4.066 8.33 10.775 8.692 17.048.387 6.759-1.659 13.867-1.609 22.186 8.543-.985 15.526 2.22 16.711 8.992 1.572 8.966-4.39 20.54-4.502 28.945 9.678.299 11.648 13.17 8.044 21.873"/><path fill-rule="evenodd" fill="#231f20" d="M317.5 157.038c-1.958-1.597-1.048-4.69-.973-6.76 1.36-33.585 2.956-67.605 4.515-102.237.237-5.313 1.31-11.623.312-15.439-2.233-8.543-17.722-10.126-20.578-.96-1.197 3.866-.087 10.176 0 15.426.536 33.635 2.88 67.269 3.542 100.654.05 2.382.686 5.263-.649 6.422-2.257-1.596-1.197-4.938-1.284-7.07-1.372-32.624-3.23-68.018-4.826-101.614-.612-12.945-.487-22.162 11.26-23.47 7.509-.836 14.206 3.89 15.752 9.652 1.11 4.128.025 10.364-.324 15.751-2.282 35.455-2.918 71.697-5.787 107.077-.037.573.487 2.456-.96 2.569M237.75 169.263c-2.27.15-3.093-3.717-4.178-5.787-15.19-29.107-30.804-58.227-45.981-88.432-2.033-4.041-5.138-10.975-8.044-12.534-7.333-3.941-16.711 1.222-16.711 9.316 0 4.327 4.053 8.73 6.422 12.546 7.047 11.361 14.792 23.645 21.55 34.407 9.877 15.752 19.405 31.028 27.973 45.982-2.607.062-3.704-2.756-4.826-4.502-15.377-23.982-31.627-49.323-47.265-73.954-2.644-4.165-7.795-9.453-7.071-16.4.96-9.129 13.967-15.451 22.51-9.64 3.043 2.07 5.774 8.38 8.031 12.857 15.177 30.193 30.255 59.375 45.332 89.38 1.023 2.02 2.657 4.365 2.258 6.76M402.375 165.4c-.486-1.422 1.397-3.641 2.569-5.462 15.526-24.206 31.315-48.786 47.265-73.641 2.157-3.355 6.123-8.593 6.435-11.885.773-8.256-7.346-14.442-15.439-11.262-3.729 1.472-6.323 7.757-8.68 12.222-15.75 29.744-31.452 58.415-46.94 88.107-.537 1.01-.986 2.47-1.61 3.53-.386.66-.91 2.73-2.244 2.244-1.846-.523.112-2.419.311-2.88 3.455-7.907 7.994-15.877 12.222-23.808 11.648-21.824 23.009-44.909 35.056-67.519 3.392-6.372 6.074-15.127 13.818-16.075 9.353-1.147 19.342 7.757 16.4 18.01-1.073 3.728-4.901 8.317-7.071 11.572-15.95 23.82-31.964 48.3-47.59 72.345-1.16 1.784-1.796 4.465-4.502 4.502M225.212 255.425c-12.807-6.959-24.98-15.489-37.625-23.47a41203.451 41203.451 0 0 1-103.522-65.597c-3.255-2.058-6.722-5.2-9.653-5.463-8.704-.748-14.092 8.244-11.249 15.439 2.083 5.288 13.183 9.029 19.28 12.21 41.567 21.75 81.923 43.635 123.152 65.597 6.734 3.591 13.718 6.946 19.941 11.249-1.758.411-3.667-.811-5.15-1.597-44.996-24.193-92.274-47.577-138.576-72.02-7.694-4.078-21.737-8.53-22.835-17.372-1.222-9.94 8.107-19.118 18.01-16.4 2.419.66 6.434 3.716 9.652 5.786 43.611 28.21 86.924 56.432 129.9 85.215 2.906 1.946 6.81 3.13 8.68 6.423M391.438 268.288c.162-2.245 2.955-2.77 4.502-3.542 26.3-13.008 51.742-27.299 78.455-40.83 24.068-12.197 48.4-24.968 73.305-38.261 3.99-2.133 7.906-3.58 9.328-6.435 3.242-6.485-.736-16.163-9.004-16.388-3.704-.112-7.433 2.956-10.925 5.138-48.562 30.405-97.885 61.158-145.662 90.678.162-2.208 2.718-2.944 4.177-3.866 42.913-27.287 86.175-54.873 129.913-82.958 5.998-3.853 14.865-11.573 21.214-12.21 11.161-1.134 18.843 13.232 12.533 22.51-3.13 4.615-13.967 8.469-20.252 11.562-48.961 24.206-99.905 51.343-147.588 74.6M232.613 258.65v112.539c0 12.732-1.21 26.364 1.284 36.329 4.103 16.412 22.673 22.286 36.976 28.945 13.145 6.123 25.529 11.997 38.585 17.36 9.802-4.602 20.465-9.703 31.19-14.792 10.626-5.038 21.924-9.004 30.866-15.426 3.218-2.32 5.737-5.063 7.72-8.368 5.537-9.253 4.826-23.384 4.826-38.261 0-39.858.5-80.076 0-119.298H232.935c-.374.063-.349.512-.324.973m-2.569-3.866h156.913v123.8c0 14.704.972 28.459-4.19 37.938-6.05 11.124-22.934 16.673-34.72 22.186-13.906 6.522-26.364 12.159-38.586 18.009a2310.206 2310.206 0 0 1-51.767-22.835c-9.216-4.178-19.355-7.994-23.795-17.035-4.727-9.616-3.854-23.322-3.854-37.613 0-41.005-.598-82.546-.324-123.476-.025-.462-.05-.91.324-.973M225.212 305.588c-15.563.299-31.613-.512-47.9-1.285a24242.39 24242.39 0 0 0-120.907-5.475c-13.244-.56-29.245-4.402-31.19 7.72-.935 5.799 2.681 11.05 6.435 12.222 5.886 1.833 16.412-.175 24.119-.325 56.643-1.122 113.661-4.913 169.45-5.462-3.492 1.596-7.658 1.097-11.573 1.284-52.242 2.545-105.793 4.714-159.488 7.072-7.532.336-18.27 2.17-23.782.324-5.575-1.858-10.451-9.478-7.72-17.684 1.235-3.716 6.273-9.328 10.613-9.328 15.789 0 31.926 1.658 48.225 2.569 15.9.898 32.15 1.534 48.225 2.581 32.237 2.083 64.487 2.769 95.504 5.787M391.438 313.95c31.14-.2 63.59 2.158 97.747 3.542 27.922 1.122 56.805 2.457 85.851 3.853 10.152.474 17.847.312 19.293-8.368.96-5.811-2.657-11.037-6.435-12.221-5.675-1.759-17.809.187-24.755.336-57.341 1.21-115.569 4.79-171.7 5.774.324-1.446 3.567-1.21 5.15-1.284 60.759-2.669 122.753-5.2 183.588-8.031 2.694-.125 7.37-.487 9.964.648 10.962 4.714 8.518 23.47-2.245 26.364-6.11 1.634-16.736-.611-24.43-.973-56.607-2.681-118.177-6.048-172.026-9.64M391.125 362.175c1.87-.324 3.08 1.347 4.502 2.257 46.53 29.544 92.573 58.714 139.863 88.744 3.491 2.207 6.809 5.338 10.3 5.462 8.244.275 13.133-8.056 10.601-15.115-1.87-5.25-14.18-10.201-19.28-12.857-48.625-25.379-98.284-52.179-145.662-77.495.05-.374-.075-.574-.325-.636-.087-.574.312-.661.324-.324 49.423 24.293 99.108 52.403 149.838 77.495 6.784 3.342 16.536 7.12 18.644 13.493 3.354 10.127-5.75 19.143-14.792 18.644-3.778-.2-7.02-3.13-10.612-5.462-45.245-29.295-89.07-58.589-134.4-87.448-3.08-1.97-6.598-3.853-9.005-6.759M224.887 352.538c.312.012.25.399.325.648-.836 1.908-3.243 2.37-4.826 3.218-48.912 26.052-98.747 50.906-148.538 77.482-3.766 2.008-8.006 3.654-9.328 6.11-3.592 6.673.96 16.5 9.004 16.725 3.367.087 7.62-2.744 10.924-4.827 47.415-29.892 95.728-60.435 142.763-89.068.075 2.107-2.594 2.73-3.866 3.541-46.443 29.582-92.66 58.939-139.538 89.38-3.467 2.258-7.432 4.515-11.573 4.19-8.966-.723-15.95-13.718-9.977-22.51 3.193-4.689 13.607-8.08 19.942-11.26 47.676-23.97 96.8-49.76 144.037-72.98.087-.35.649-.213.649-.65M382.438 423.913c.374-.05.573.074.636.324 22.286 34.881 45.993 71.995 69.14 108.036 3.03 4.714 8.405 10.763 7.72 17.36-.974 9.191-14.243 15.278-22.51 9.653-3.742-2.544-6.324-10.102-9.005-15.44-16.3-32.412-32.961-64.188-49.199-96.463-1.384-2.756-2.456-5.724-3.853-8.355-1.272-2.395-3.554-4.502-3.218-7.396 1.946-.81 2.108 1.983 2.57 2.893 18.257 35.443 37.138 71.323 56.268 107.402 2.594 4.863 5.275 13.095 9.004 15.102 7.72 4.153 16.524-2.045 16.711-9.004.163-5.225-5.537-11.885-8.343-16.4-22.286-35.642-44.608-71.285-66.882-106.427.087-.649.86-.624.96-1.285M234.213 425.2c.424.112.498.561.96.649-.561 2.73-2.37 5.4-3.854 7.707-22.073 34.37-43.498 68.74-66.246 103.858-1.82 2.831-3.953 5.375-4.178 7.72-.686 7.408 6.834 14.641 15.439 11.249 4.066-1.596 7.395-9.578 9.964-14.466 19.02-36.004 37.04-71.223 56.594-106.753.474-.86.96-3.005 2.57-2.569.722 1.347-.737 2.794-1.285 3.854-18.757 36.316-37.29 72.668-56.905 109.333-2.968 5.525-5.276 12.185-10.289 14.143-9.752 3.791-21.151-6.036-18.969-16.4.985-4.702 6.011-10.85 8.992-15.439 21.637-33.26 46.904-71.135 67.206-102.886M316.2 457.025c.274-.062.312.137.324.324 2.008 37.239 3.317 77.445 5.138 116.068.287 5.924 1.434 12.433-.324 16.724-4.552 11.186-23.396 8.168-26.351-1.921-1.197-4.065-.038-10.713.312-16.4 2.406-38.049 3.654-77.632 6.746-114.471 2.482 1.658 1.073 4.926.973 7.07-1.658 34.995-2.93 70.787-4.502 106.428-.237 5.525-1.347 12.122-.324 16.075 2.257 8.618 17.709 10.065 20.577.973 1.223-3.866.125-10.725 0-16.4-.536-27.561-2.344-54.025-2.893-81.349-.224-11.136-1.272-23.396-.636-32.798.511.1.549-.312.96-.325"/><path fill-rule="evenodd" fill="#231f20" d="M290.487 238.713c-20.29 1.783-39.546 4.601-56.593 9.64 1.696 4.95 9.141 1.434 12.546.648 13.88-3.205 29.444-5.412 44.372-6.747-.212-1.085.412-2.993-.324-3.541m83.594 4.502c3.342.299 6.011 1.272 9.004 1.92-.174-1.983.649-2.98.649-4.814-3.006-.848-6.473-1.247-9.653-1.933v4.826zm-47.901-4.827c-.736.661-.125 2.669-.325 3.866 15.328.798 30.754 3.767 44.684 6.423 3.667.698 11.885 3.791 12.222-.96-16.886-5.076-36.49-7.446-56.581-9.329m-92.922 2.245c.15 2.008.175 4.116 1.285 5.163 2.619-1.023 5.537-1.758 8.68-2.257.037-2.083.025-4.103-.649-5.475-3.03.935-6.21 1.721-9.316 2.569m11.898-3.205c.174 1.858.336 3.716.636 5.462 6.921-1.546 14.217-2.718 21.226-4.177v-4.502c-7.732.636-14.379 2.344-21.861 3.217m104.495 1.285c7.507 1.06 14.952 2.194 21.861 3.866v-4.84c-7.183-1.371-14.291-2.843-21.861-3.853v4.827zm-23.47-2.57c7.183.524 14.105 1.31 20.889 2.245v-4.814c-7.034-.673-13.644-1.795-21.214-1.933.324 1.285.386 2.819.324 4.502m-56.594-2.569v4.814c7.32-.411 13.818-1.608 21.55-1.608-.162-1.672.337-3.979-.324-5.139-7.183.537-14.042 1.397-21.226 1.933m93.246.312c7.408 1.16 14.504 2.657 21.55 4.178.661-1.472 1.035-3.23 1.596-4.814-7.732-1.496-14.927-3.504-23.146-4.502v5.138zm-131.837 0c.773 1.272 1.11 2.968 1.608 4.502 6.984-2.02 14.815-3.192 22.187-4.814-.736-.972-.113-3.33-.325-4.826-8.23 1.297-16.237 2.83-23.47 5.138m107.389-3.53c7.695.45 14.554 1.747 21.55 2.894v-5.15c-6.984-1.173-13.905-2.382-21.55-2.894v5.15zM257.05 228.1v5.15c6.772-1.384 14.142-2.145 21.537-2.893v-5.15c-7.682.473-14.491 1.795-21.537 2.893m23.782-3.218v5.15c3.318-.448 6.722-.785 10.301-.96.287-1.746.674-3.404 1.285-4.826-4.203-.125-7.907.237-11.586.636m45.02 4.19c3.63-.1 6.336.736 9.965.636v-4.826c-3.492-.474-6.884-1.035-10.925-.96.2 1.833.898 3.167.96 5.15m-16.075 12.845h7.396c-.1-9.104 1.908-20.34-7.396-20.252v20.252zm-2.893-20.252c-8.63.486-7.121 11.112-7.083 20.252h7.407c-.224-6.634.424-14.142-.324-20.252m73.629 1.609c2.22.785 4.689 1.321 7.07 1.933.637-1.622 1.984-4.228 1.285-6.111-2.431 1.746-5.686 2.669-8.355 4.178m-151.438 1.933c3.006-.2 5.737-.686 8.032-1.61-3.405-1.408-6.548-3.092-9.965-4.501-.062 2.743 1.36 4.003 1.933 6.11m103.21-3.217c19.643 1.97 39.559 6.123 55.622 9.004V228.1c-19.455-6.16-44.235-8.705-67.532-9.964 1.958 4.152 6.223 3.292 11.91 3.853m-36.976-4.178c-11.024 1.809-23.583 2.17-35.38 4.178-8.83 1.509-17.16 2.806-25.391 4.502-2.083.437-6.385.836-5.463 4.502 20.814-4.04 41.567-8.168 64.949-9.64.3-1.172 3.317-2.781 1.92-3.542-.211.025-.436-.037-.635 0m17.36 1.609c8.255 2.207 7.831 11.798 7.395 22.835h2.893c.686-12.484.374-23.969-10.288-25.091v2.257zm-8.68-2.257c-9.628 2.494-11.287 13.218-9.004 25.09h1.608c.412-9.39-.61-16.948 4.502-20.59 1.26-.885 5.537-1.645 3.205-4.501h-.312zm36.652 0c5.874.461 11.46 1.197 17.047 1.933-1.933-2.57-5.424-6.36-7.407-9.965-2.594 3.293-6.248 5.537-9.64 8.032m-80.064 0c-.561.636-1.908 1.484-1.285 2.257 5.65-.998 12.122-1.172 17.36-2.57-3.99-2.331-7.495-5.15-9.964-9.003-.86 4.065-3.966 6.921-6.111 9.316m38.91-2.894c.15 1.46 1.621 1.597 3.218 1.61.685-.263-.125-2.046.636-2.246h10.288v1.933c1.384.562 3.741.362 3.866-1.297-4.776-1.222-6.797-5.2-9.328-8.667-1.696 4.078-4.714 6.86-8.68 8.667m-77.495-17.36c-2.382-3.766-7.196 3.654-.649 3.542 1.098-.71 1.048-2.918.649-3.542m176.837.325c-.498-1.784-3.504-2.083-4.813-.325-.811 5.425 5.86 3.979 4.813.325m-36.003-15.764c3.666-2.544 4.34-8.081 5.138-13.494-1.197.187-2.095.674-2.893 1.285-2.744-2.819-5.114-6.036-9.005-7.72-3.728 1.41-6.784 3.504-9.964 5.462-.337-1.26-1.247-1.958-2.569-2.244.162 3.305-1.609 6.846-.973 9.64.487 2.107 2.968 2.37 2.906 4.514-2.669-1.21-6.16-1.571-8.68-2.893-.349 2.482.773 3.504.96 5.45-4.913 5.462.487 12.695 0 18.981 4.44-.923 6.81-3.903 12.222-3.853-3.467 9.19-11.536 16.836-23.159 15.102-9.278-1.372-14.653-9.203-16.4-17.684 5.2.387 7.682 3.467 11.898 4.827-.487-7.01 6.048-11.336 1.933-18.01 1.022-1.346 2.27-4.164 1.933-5.786-3.23 1.285-6.336 2.67-10.937 2.57 3.641-2.794 7.07-7.508 5.138-14.792-.948.76-2.145 1.272-3.205 1.933-2.894-2.257-5.425-4.876-9.004-6.435-3.168 1.883-5.962 4.128-8.68 6.435-1.073-.86-2.133-1.733-3.866-1.933.972 3.467-.325 6.572.648 9.329.96 2.68 4.427 3.367 4.178 5.786-4.303.013-6.285-2.295-10.289-2.569.212 2.47 1.734 3.63 2.258 5.787-3.093 6.46 1.57 11.66 2.244 17.36 4.652-.811 6.573-4.365 11.898-4.502-2.382 10.363-9.94 18.768-22.51 17.372-8.792-.985-14.815-7.595-17.035-14.791 4.938.3 7.881 2.606 11.897 3.853.898-6.447 4.153-14.017.636-20.252.886-.736.786-3.055.324-4.178-3.679.91-6.073 3.143-9.964 3.854 4.265-2.819 4.627-8.88 3.217-15.44-1.21.849-2.394 1.685-3.541 2.57-2.632-2.295-5.562-4.29-9.329-5.462-2.68.1-6.796 7.507-8.68 7.72-.86.099-1.895-2.183-3.205-1.61.587 5.625 1.435 10.987 5.139 13.507-2.57.424-5.363-.55-8.68-.325-.262 2.295.81 3.255 1.608 4.502-2.12 8.768 4.365 11.71 5.463 18.333 3.853-1.609 6.984-5.674 10.613-6.435-.699 12.932-12.11 24.069-26.053 19.292-5.387-1.845-8.917-6.347-11.249-11.897 4.802-.312 7.782 1.222 10.937 2.569 1.272-9.553-.299-16.674-1.933-24.755-2.07 1.571-5.138 3.866-7.72 3.854 3.33-4.004.038-9.204-.323-14.143-1.834.412-2.02 2.482-3.854 2.893-1.983-1.658-4.776-2.506-7.72-3.217 1.073 7.295 3.33 13.394 4.827 20.265 2.594-.25 3.729 2.457 6.11 2.88 1.896.337 4.415-1.346 6.423.337-1.733 1.26-3.89 2.095-6.747 2.245-6.173 11.473 5.4 22.76 15.439 23.795 12.92 1.322 23.046-7.595 25.391-18.009 4.14 5.912 9.179 11.349 17.684 12.222 12.782 1.297 20.166-6.984 24.755-15.115 3.916 7.62 10.276 14.89 20.914 15.426 10.475.536 16.898-5.886 21.861-12.534 1.733 10.389 12.634 18.87 25.391 17.684 11.2-1.047 20.004-11.922 14.791-23.47-2.531-.461-6.697-1.01-6.746-2.893 2.27-.786 4.49.15 6.746.312 1.846-.836 2.831-2.532 5.8-2.245 1.434-7.121 3.354-13.78 4.813-20.901-3.367.386-5.898 1.608-8.031 3.217-.748-1.397-1.833-2.457-3.218-3.217-.174 5.1-3.604 11.573-.324 14.466-3.167-.898-5.524-2.607-8.355-3.854.935 5.15-1.522 7.97-1.933 11.25-.512 4.202.785 8.218.324 13.506 2.806-1.16 6.547-3.093 10.613-1.933-5.612 20.49-39.62 12.857-36.653-8.356 4.278 1.509 6.872 4.702 10.6 6.76 1.036-6.86 7.047-10.24 4.827-19.306.76-.948 2.058-3.08 1.609-4.165-2.47.848-5.5 1.147-8.68 1.272m-20.902-19.28c2.046.312 3.38 1.347 4.827 2.245 3.38-1.41 6.372-5.775 9.964-5.463 3.093.262 6.298 6.11 8.68 7.72 1.559-.699 3.604-.91 5.475-1.285-2.158 3.841-.81 11.2-3.866 14.143 2.444-.125 4.277-.86 6.435-1.297-.512 3.828-.923 6.348-.96 10.3-.025 2.27-.425 4.254-.973 5.787-1.21 3.43-5.15 6.111-5.138 11.898-4.365-1.222-6.223-4.939-10.302-6.435-.311 15.489 26.688 21.775 31.84 7.083-3.88.187-5.787 2.37-9.005 3.218-.287-4.003-.96-7.258-1.284-10.937-.599-6.86 2.406-12.446 3.541-18.97 2.033.637 3.604 1.747 5.463 2.57.386-4.976 2.107-8.618 1.92-14.143 2.607.287 4.003 1.784 6.11 2.57 3.48-.936 6.922-1.871 10.29-2.906-.661 8.13-3.73 16.636-5.463 24.767.699 1.646 2.382 3.442 2.258 5.462-.225 3.418-4.615 4.665-6.435 8.044-2.981 5.525-3.642 13.494-4.502 21.538-.362 3.305-2.557 7.233-3.542 10.937-1.759 6.647-.848 11.274-4.502 14.142-17.971-2.506-34.944-6.933-54.336-8.043-28.06-1.584-54.673 1.297-79.092 5.799-5.05.922-11.822 3.442-14.79 2.244-3.917-1.571-3.605-13.681-5.787-18.968-.574-1.372-1.97-2.382-2.258-3.542-.399-1.609.237-3.692 0-5.462-.573-4.478-3.292-13.045-4.826-17.684-1.01-3.105-5.811-5.425-6.423-8.356-.51-2.394.948-3.878 1.285-6.11.312-2.07.012-4.453-.324-6.436-1.048-6.11-3.268-12.583-5.138-17.683 4.34-.998 8.03 1.371 11.248 2.569 2.37-.624 3.417-2.57 5.787-3.218-.237 5.7 1.97 8.954 2.257 14.155 1.36-.037 3.929-1.646 5.462-2.569 1.672 2.27.649 5.076 1.285 7.707.848 3.617 2.856 4.989 2.245 10.613-.412 3.866-1.671 7.383-1.597 11.91-2.544-1.322-5.15-2.581-8.368-3.217 4.914 15.14 30.692 7.632 31.19-7.084-3.866 1.808-5.91 5.45-10.288 6.76-.137-7.384-5.438-9.429-6.11-15.44-.487-4.377-.388-8.28-1.61-12.546 2.495.088 4.403.749 6.76.973-2.083-2.631-2.632-9.59-4.178-13.83 1.634-.885 4.252.025 5.786.324 2.98-2.693 5.75-5.612 8.992-8.044 1.808 1.098 3.492 1.347 5.475 2.582 1.047.648 3.404 3.48 4.177 3.53 1.397.099 3.517-3.605 6.435-2.57-1.26 4.402.848 10.813-.648 14.479 2.008-.674 3.641-1.734 5.462-2.582 1.846 1.908.986 4.976 1.297 7.396.4 3.217 1.634 5.275 1.597 7.72-.063 4.177-3.879 7.881-2.894 13.83-4.227-.387-6.647-2.57-10.276-3.542 3.068 14.84 31.09 13.805 33.111-2.245-4.14.773-6.01 3.853-10.612 4.178-.574-6.91-6.136-11.598-3.218-19.942-1.06-2.045-1.896-4.315-1.609-7.72 2.881-.074 4.452 1.123 6.76 1.61-1.31-2.657-1.26-9.453-1.61-14.143 2.557-.2 4.253.461 5.787 1.285 3.093-2.158 5.999-4.515 9.004-6.76 3.605 1.759 6.298 4.428 9.329 6.76 1.796-.886 3.442-1.921 6.11-1.933-1.533 4.053.4 11.548-2.257 14.466 1.622.224 4.79-.786 6.423-1.596.873 2.581-.437 5.749-1.285 7.707 3.817 8.492-3.654 12.42-2.569 21.226-3.94-1.41-6.597-4.116-10.937-5.138 1.198 15.451 30.143 17.971 33.772 2.245-4.216.61-6.286 3.367-10.613 3.853.548-6.76-5.525-14.815-.649-21.226-.436-2.145-1.097-5.35-.324-7.707 1.896.573 3.841 1.097 5.475 1.933.274-.063.299.124.324.324-1.434-3.205.748-9.266.96-13.83"/><path fill-rule="evenodd" fill="#231f20" d="M311.063 187.588c.062-1.235.012-2.37-.325-3.218-7.009-3.878-4.776 8.705.324 3.218m-2.893-14.792c2.158 1.06 1.484 4.951 1.609 8.032 1.783.91 3.38 1.983 3.853 4.19 2.744-.175 4.951.2 6.76.96-1.36 1.434-3.841 1.734-6.76 1.609-.748 4.839-9.814 4.914-10.612 0-2.682.112-5.114-.025-6.423-1.285 1.073-1.396 3.592-1.334 6.11-1.284.961-1.82 2.009-3.554 4.503-3.854-.162-3.267.087-6.135.96-8.368M266.05 186.938c-2.307-3.368-7.071 1.97-3.854 4.177 3.854 1.41 5.288-2.082 3.854-4.177m-4.178-11.574c2.033 1.51 2.145 4.926 2.57 8.032 2.057.524 3.753 1.397 4.177 3.542 2.32-.325 4.776-.986 6.76 0-.998 1.683-3.28 2.082-5.787 2.257-.175 4.54-9.528 6.66-10.937 1.609-1.771.349-5.15.735-6.435-.325.76-1.92 3.778-1.584 5.786-2.257.699-1.983 1.534-3.829 3.866-4.165-.274-2.894-1.147-6.173 0-8.693M350.288 189.838c1.396 2.569 6.36 1.895 5.138-2.57-1.597-2.294-5.999-1.26-5.138 2.57m4.502-14.48c1.583 1.909.623 5.413.324 8.057 1.047 1.497 3.217 1.908 2.893 4.814 2.382.399 4.939.623 6.423 1.933-.724 1.609-4.428.91-6.099.636-2.132 4.128-10.712 3.654-11.261-1.609-2.307-.486-5.163-.411-5.787-2.569 1.647-.449 4.14-.449 5.787 0 1.746-1.16 2.519-3.267 5.475-3.205.15-3.28.748-6.11 2.244-8.056"/><path fill-rule="evenodd" fill="#231f20" d="M290.487 238.713c-20.29 1.783-39.546 4.601-56.593 9.64 1.696 4.95 9.141 1.434 12.546.648 13.88-3.205 29.444-5.412 44.372-6.747-.212-1.085.412-2.993-.324-3.541m83.594 4.502c3.342.299 6.011 1.272 9.004 1.92-.174-1.983.649-2.98.649-4.814-3.006-.848-6.473-1.247-9.653-1.933v4.826zm-47.901-4.827c-.736.661-.125 2.669-.325 3.866 15.328.798 30.754 3.767 44.684 6.423 3.667.698 11.885 3.791 12.222-.96-16.886-5.076-36.49-7.446-56.581-9.329m-92.922 2.245c.15 2.008.175 4.116 1.285 5.163 2.619-1.023 5.537-1.758 8.68-2.257.037-2.083.025-4.103-.649-5.475-3.03.935-6.21 1.721-9.316 2.569m11.898-3.205c.174 1.858.336 3.716.636 5.462 6.921-1.546 14.217-2.718 21.226-4.177v-4.502c-7.732.636-14.379 2.344-21.861 3.217m104.495 1.285c7.507 1.06 14.952 2.194 21.861 3.866v-4.84c-7.183-1.371-14.291-2.843-21.861-3.853v4.827zm-23.47-2.57c7.183.524 14.105 1.31 20.889 2.245v-4.814c-7.034-.673-13.644-1.795-21.214-1.933.324 1.285.386 2.819.324 4.502m-56.594-2.569v4.814c7.32-.411 13.818-1.608 21.55-1.608-.162-1.672.337-3.979-.324-5.139-7.183.537-14.042 1.397-21.226 1.933m93.246.312c7.408 1.16 14.504 2.657 21.55 4.178.661-1.472 1.035-3.23 1.596-4.814-7.732-1.496-14.927-3.504-23.146-4.502v5.138zm-131.837 0c.773 1.272 1.11 2.968 1.608 4.502 6.984-2.02 14.815-3.192 22.187-4.814-.736-.972-.113-3.33-.325-4.826-8.23 1.297-16.237 2.83-23.47 5.138m107.389-3.53c7.695.45 14.554 1.747 21.55 2.894v-5.15c-6.984-1.173-13.905-2.382-21.55-2.894v5.15zM257.05 228.1v5.15c6.772-1.384 14.142-2.145 21.537-2.893v-5.15c-7.682.473-14.491 1.795-21.537 2.893m23.782-3.218v5.15c3.318-.448 6.722-.785 10.301-.96.287-1.746.674-3.404 1.285-4.826-4.203-.125-7.907.237-11.586.636m45.02 4.19c3.63-.1 6.336.736 9.965.636v-4.826c-3.492-.474-6.884-1.035-10.925-.96.2 1.833.898 3.167.96 5.15m-16.075 12.845h7.396c-.1-9.104 1.908-20.34-7.396-20.252v20.252zm-2.893-20.252c-8.63.486-7.121 11.112-7.083 20.252h7.407c-.224-6.634.424-14.142-.324-20.252m73.629 1.609c2.22.785 4.689 1.321 7.07 1.933.637-1.622 1.984-4.228 1.285-6.111-2.431 1.746-5.686 2.669-8.355 4.178m-151.438 1.933c3.006-.2 5.737-.686 8.032-1.61-3.405-1.408-6.548-3.092-9.965-4.501-.062 2.743 1.36 4.003 1.933 6.11m103.21-3.217c19.643 1.97 39.559 6.123 55.622 9.004V228.1c-19.455-6.16-44.235-8.705-67.532-9.964 1.958 4.152 6.223 3.292 11.91 3.853m-36.976-4.178c-11.024 1.809-23.583 2.17-35.38 4.178-8.83 1.509-17.16 2.806-25.391 4.502-2.083.437-6.385.836-5.463 4.502 20.814-4.04 41.567-8.168 64.949-9.64.3-1.172 3.317-2.781 1.92-3.542-.211.025-.436-.037-.635 0m17.36 1.609c8.255 2.207 7.831 11.798 7.395 22.835h2.893c.686-12.484.374-23.969-10.288-25.091v2.257zm-8.68-2.257c-9.628 2.494-11.287 13.218-9.004 25.09h1.608c.412-9.39-.61-16.948 4.502-20.59 1.26-.885 5.537-1.645 3.205-4.501h-.312zm36.652 0c5.874.461 11.46 1.197 17.047 1.933-1.933-2.57-5.424-6.36-7.407-9.965-2.594 3.293-6.248 5.537-9.64 8.032m-80.064 0c-.561.636-1.908 1.484-1.285 2.257 5.65-.998 12.122-1.172 17.36-2.57-3.99-2.331-7.495-5.15-9.964-9.003-.86 4.065-3.966 6.921-6.111 9.316m38.91-2.894c.15 1.46 1.621 1.597 3.218 1.61.685-.263-.125-2.046.636-2.246h10.288v1.933c1.384.562 3.741.362 3.866-1.297-4.776-1.222-6.797-5.2-9.328-8.667-1.696 4.078-4.714 6.86-8.68 8.667m-77.495-17.36c-2.382-3.766-7.196 3.654-.649 3.542 1.098-.71 1.048-2.918.649-3.542m176.837.325c-.498-1.784-3.504-2.083-4.813-.325-.811 5.425 5.86 3.979 4.813.325m-36.003-15.764c3.666-2.544 4.34-8.081 5.138-13.494-1.197.187-2.095.674-2.893 1.285-2.744-2.819-5.114-6.036-9.005-7.72-3.728 1.41-6.784 3.504-9.964 5.462-.337-1.26-1.247-1.958-2.569-2.244.162 3.305-1.609 6.846-.973 9.64.487 2.107 2.968 2.37 2.906 4.514-2.669-1.21-6.16-1.571-8.68-2.893-.349 2.482.773 3.504.96 5.45-4.913 5.462.487 12.695 0 18.981 4.44-.923 6.81-3.903 12.222-3.853-3.467 9.19-11.536 16.836-23.159 15.102-9.278-1.372-14.653-9.203-16.4-17.684 5.2.387 7.682 3.467 11.898 4.827-.487-7.01 6.048-11.336 1.933-18.01 1.022-1.346 2.27-4.164 1.933-5.786-3.23 1.285-6.336 2.67-10.937 2.57 3.641-2.794 7.07-7.508 5.138-14.792-.948.76-2.145 1.272-3.205 1.933-2.894-2.257-5.425-4.876-9.004-6.435-3.168 1.883-5.962 4.128-8.68 6.435-1.073-.86-2.133-1.733-3.866-1.933.972 3.467-.325 6.572.648 9.329.96 2.68 4.427 3.367 4.178 5.786-4.303.013-6.285-2.295-10.289-2.569.212 2.47 1.734 3.63 2.258 5.787-3.093 6.46 1.57 11.66 2.244 17.36 4.652-.811 6.573-4.365 11.898-4.502-2.382 10.363-9.94 18.768-22.51 17.372-8.792-.985-14.815-7.595-17.035-14.791 4.938.3 7.881 2.606 11.897 3.853.898-6.447 4.153-14.017.636-20.252.886-.736.786-3.055.324-4.178-3.679.91-6.073 3.143-9.964 3.854 4.265-2.819 4.627-8.88 3.217-15.44-1.21.849-2.394 1.685-3.541 2.57-2.632-2.295-5.562-4.29-9.329-5.462-2.68.1-6.796 7.507-8.68 7.72-.86.099-1.895-2.183-3.205-1.61.587 5.625 1.435 10.987 5.139 13.507-2.57.424-5.363-.55-8.68-.325-.262 2.295.81 3.255 1.608 4.502-2.12 8.768 4.365 11.71 5.463 18.333 3.853-1.609 6.984-5.674 10.613-6.435-.699 12.932-12.11 24.069-26.053 19.292-5.387-1.845-8.917-6.347-11.249-11.897 4.802-.312 7.782 1.222 10.937 2.569 1.272-9.553-.299-16.674-1.933-24.755-2.07 1.571-5.138 3.866-7.72 3.854 3.33-4.004.038-9.204-.323-14.143-1.834.412-2.02 2.482-3.854 2.893-1.983-1.658-4.776-2.506-7.72-3.217 1.073 7.295 3.33 13.394 4.827 20.265 2.594-.25 3.729 2.457 6.11 2.88 1.896.337 4.415-1.346 6.423.337-1.733 1.26-3.89 2.095-6.747 2.245-6.173 11.473 5.4 22.76 15.439 23.795 12.92 1.322 23.046-7.595 25.391-18.009 4.14 5.912 9.179 11.349 17.684 12.222 12.782 1.297 20.166-6.984 24.755-15.115 3.916 7.62 10.276 14.89 20.914 15.426 10.475.536 16.898-5.886 21.861-12.534 1.733 10.389 12.634 18.87 25.391 17.684 11.2-1.047 20.004-11.922 14.791-23.47-2.531-.461-6.697-1.01-6.746-2.893 2.27-.786 4.49.15 6.746.312 1.846-.836 2.831-2.532 5.8-2.245 1.434-7.121 3.354-13.78 4.813-20.901-3.367.386-5.898 1.608-8.031 3.217-.748-1.397-1.833-2.457-3.218-3.217-.174 5.1-3.604 11.573-.324 14.466-3.167-.898-5.524-2.607-8.355-3.854.935 5.15-1.522 7.97-1.933 11.25-.512 4.202.785 8.218.324 13.506 2.806-1.16 6.547-3.093 10.613-1.933-5.612 20.49-39.62 12.857-36.653-8.356 4.278 1.509 6.872 4.702 10.6 6.76 1.036-6.86 7.047-10.24 4.827-19.306.76-.948 2.058-3.08 1.609-4.165-2.47.848-5.5 1.147-8.68 1.272m-20.902-19.28c2.046.312 3.38 1.347 4.827 2.245 3.38-1.41 6.372-5.775 9.964-5.463 3.093.262 6.298 6.11 8.68 7.72 1.559-.699 3.604-.91 5.475-1.285-2.158 3.841-.81 11.2-3.866 14.143 2.444-.125 4.277-.86 6.435-1.297-.512 3.828-.923 6.348-.96 10.3-.025 2.27-.425 4.254-.973 5.787-1.21 3.43-5.15 6.111-5.138 11.898-4.365-1.222-6.223-4.939-10.302-6.435-.311 15.489 26.688 21.775 31.84 7.083-3.88.187-5.787 2.37-9.005 3.218-.287-4.003-.96-7.258-1.284-10.937-.599-6.86 2.406-12.446 3.541-18.97 2.033.637 3.604 1.747 5.463 2.57.386-4.976 2.107-8.618 1.92-14.143 2.607.287 4.003 1.784 6.11 2.57 3.48-.936 6.922-1.871 10.29-2.906-.661 8.13-3.73 16.636-5.463 24.767.699 1.646 2.382 3.442 2.258 5.462-.225 3.418-4.615 4.665-6.435 8.044-2.981 5.525-3.642 13.494-4.502 21.538-.362 3.305-2.557 7.233-3.542 10.937-1.759 6.647-.848 11.274-4.502 14.142-17.971-2.506-34.944-6.933-54.336-8.043-28.06-1.584-54.673 1.297-79.092 5.799-5.05.922-11.822 3.442-14.79 2.244-3.917-1.571-3.605-13.681-5.787-18.968-.574-1.372-1.97-2.382-2.258-3.542-.399-1.609.237-3.692 0-5.462-.573-4.478-3.292-13.045-4.826-17.684-1.01-3.105-5.811-5.425-6.423-8.356-.51-2.394.948-3.878 1.285-6.11.312-2.07.012-4.453-.324-6.436-1.048-6.11-3.268-12.583-5.138-17.683 4.34-.998 8.03 1.371 11.248 2.569 2.37-.624 3.417-2.57 5.787-3.218-.237 5.7 1.97 8.954 2.257 14.155 1.36-.037 3.929-1.646 5.462-2.569 1.672 2.27.649 5.076 1.285 7.707.848 3.617 2.856 4.989 2.245 10.613-.412 3.866-1.671 7.383-1.597 11.91-2.544-1.322-5.15-2.581-8.368-3.217 4.914 15.14 30.692 7.632 31.19-7.084-3.866 1.808-5.91 5.45-10.288 6.76-.137-7.384-5.438-9.429-6.11-15.44-.487-4.377-.388-8.28-1.61-12.546 2.495.088 4.403.749 6.76.973-2.083-2.631-2.632-9.59-4.178-13.83 1.634-.885 4.252.025 5.786.324 2.98-2.693 5.75-5.612 8.992-8.044 1.808 1.098 3.492 1.347 5.475 2.582 1.047.648 3.404 3.48 4.177 3.53 1.397.099 3.517-3.605 6.435-2.57-1.26 4.402.848 10.813-.648 14.479 2.008-.674 3.641-1.734 5.462-2.582 1.846 1.908.986 4.976 1.297 7.396.4 3.217 1.634 5.275 1.597 7.72-.063 4.177-3.879 7.881-2.894 13.83-4.227-.387-6.647-2.57-10.276-3.542 3.068 14.84 31.09 13.805 33.111-2.245-4.14.773-6.01 3.853-10.612 4.178-.574-6.91-6.136-11.598-3.218-19.942-1.06-2.045-1.896-4.315-1.609-7.72 2.881-.074 4.452 1.123 6.76 1.61-1.31-2.657-1.26-9.453-1.61-14.143 2.557-.2 4.253.461 5.787 1.285 3.093-2.158 5.999-4.515 9.004-6.76 3.605 1.759 6.298 4.428 9.329 6.76 1.796-.886 3.442-1.921 6.11-1.933-1.533 4.053.4 11.548-2.257 14.466 1.622.224 4.79-.786 6.423-1.596.873 2.581-.437 5.749-1.285 7.707 3.817 8.492-3.654 12.42-2.569 21.226-3.94-1.41-6.597-4.116-10.937-5.138 1.198 15.451 30.143 17.971 33.772 2.245-4.216.61-6.286 3.367-10.613 3.853.548-6.76-5.525-14.815-.649-21.226-.436-2.145-1.097-5.35-.324-7.707 1.896.573 3.841 1.097 5.475 1.933.274-.063.299.124.324.324-1.434-3.205.748-9.266.96-13.83"/><path d="M290.487 238.713c-20.29 1.783-39.546 4.601-56.593 9.64 1.696 4.95 9.141 1.434 12.546.648 13.88-3.205 29.444-5.412 44.372-6.747-.212-1.085.412-2.993-.324-3.541zm83.594 4.502c3.342.299 6.011 1.272 9.004 1.92-.174-1.983.649-2.98.649-4.814-3.006-.848-6.473-1.247-9.653-1.933v4.826zm-47.901-4.827c-.736.661-.125 2.669-.324 3.866 15.327.798 30.753 3.767 44.683 6.423 3.667.698 11.885 3.791 12.222-.96-16.886-5.076-36.49-7.446-56.581-9.329zm-92.921 2.245c.15 2.008.174 4.116 1.284 5.163 2.62-1.023 5.537-1.758 8.68-2.257.037-2.083.025-4.09-.648-5.475-3.03.935-6.211 1.721-9.316 2.569zm11.897-3.205c.175 1.858.337 3.716.636 5.462 6.922-1.546 14.218-2.718 21.226-4.177v-4.502c-7.732.636-14.378 2.344-21.86 3.217zm104.495 1.285c7.508 1.06 14.953 2.194 21.861 3.866v-4.84c-7.183-1.371-14.29-2.843-21.86-3.853v4.827zm-23.47-2.57c7.183.524 14.105 1.31 20.889 2.245v-4.814c-7.034-.673-13.644-1.795-21.214-1.933.324 1.285.387 2.819.324 4.502zm-56.594-2.568v4.813c7.32-.411 13.818-1.608 21.55-1.608-.162-1.671.337-3.979-.324-5.138-7.183.536-14.042 1.396-21.226 1.933zm93.247.311c7.407 1.16 14.503 2.657 21.55 4.178.66-1.472 1.035-3.23 1.596-4.814-7.732-1.496-14.928-3.504-23.146-4.502v5.138zm-131.838 0c.773 1.272 1.11 2.968 1.609 4.502 6.984-2.02 14.815-3.192 22.186-4.814-.736-.972-.112-3.33-.324-4.826-8.231 1.297-16.238 2.831-23.47 5.138zm107.389-3.529c7.694.449 14.554 1.746 21.55 2.893v-5.15c-6.984-1.172-13.905-2.382-21.55-2.893v5.15zm-81.336-2.257v5.15c6.771-1.384 14.142-2.145 21.537-2.893v-5.15c-7.682.473-14.491 1.795-21.537 2.893zm23.782-3.218v5.15c3.317-.448 6.722-.785 10.301-.96.287-1.745.674-3.404 1.285-4.826-4.203-.124-7.907.237-11.586.636zm45.02 4.19c3.63-.1 6.335.736 9.964.637v-4.827c-3.491-.474-6.884-1.035-10.924-.96.2 1.833.898 3.168.96 5.15zm-16.075 12.846h7.395c-.1-9.104 1.909-20.34-7.395-20.253v20.253zm-2.893-20.253c-8.63.486-7.121 11.112-7.084 20.253h7.408c-.224-6.635.424-14.143-.324-20.253zm73.629 1.609c2.22.785 4.689 1.322 7.07 1.933.637-1.621 1.984-4.228 1.285-6.11-2.432 1.745-5.687 2.668-8.355 4.177zm-151.438 1.933c3.006-.2 5.737-.686 8.031-1.609-3.404-1.41-6.547-3.093-9.964-4.502-.062 2.744 1.36 4.003 1.933 6.11zm103.21-3.218c19.643 1.97 39.559 6.124 55.621 9.004V228.1c-19.455-6.16-44.235-8.705-67.53-9.964 1.957 4.153 6.222 3.292 11.909 3.853zm-36.976-4.177c-11.025 1.808-23.583 2.17-35.38 4.177-8.83 1.51-17.16 2.806-25.391 4.502-2.083.437-6.386.836-5.463 4.502 20.814-4.04 41.566-8.168 64.949-9.64.3-1.172 3.317-2.78 1.92-3.542-.212.025-.436-.037-.636 0zm17.36 1.608c8.256 2.208 7.832 11.798 7.395 22.835h2.893c.686-12.483.375-23.968-10.288-25.09v2.256zm-8.68-2.257c-9.628 2.494-11.286 13.219-9.004 25.091h1.609c.411-9.39-.611-16.948 4.502-20.59 1.26-.885 5.537-1.646 3.205-4.502h-.312zm36.652 0c5.874.461 11.461 1.197 17.048 1.933-1.933-2.569-5.425-6.36-7.408-9.964-2.594 3.292-6.248 5.537-9.64 8.031zm-80.063 0c-.561.636-1.908 1.484-1.285 2.257 5.65-.997 12.122-1.172 17.36-2.569-3.99-2.332-7.495-5.15-9.964-9.004-.86 4.066-3.966 6.922-6.111 9.316zm38.91-2.893c.15 1.459 1.621 1.596 3.217 1.609.686-.262-.125-2.046.636-2.245h10.289v1.933c1.384.561 3.741.361 3.866-1.297-4.776-1.222-6.797-5.2-9.328-8.668-1.696 4.078-4.714 6.86-8.68 8.668zm-77.495-17.36c-2.382-3.766-7.196 3.654-.649 3.542 1.098-.711 1.048-2.919.649-3.542zm176.837.324c-.499-1.783-3.504-2.083-4.814-.324-.81 5.425 5.862 3.978 4.814.324zm-36.004-15.764c3.667-2.544 4.34-8.08 5.139-13.493-1.198.187-2.096.673-2.894 1.284-2.743-2.818-5.113-6.036-9.004-7.72-3.729 1.41-6.784 3.505-9.964 5.463-.337-1.26-1.247-1.958-2.57-2.245.163 3.305-1.608 6.847-.972 9.64.487 2.108 2.968 2.37 2.906 4.515-2.669-1.21-6.16-1.572-8.68-2.894-.35 2.482.773 3.505.96 5.45-4.913 5.463.487 12.695 0 18.982 4.44-.923 6.81-3.904 12.222-3.854-3.467 9.191-11.536 16.836-23.159 15.103-9.278-1.372-14.654-9.204-16.4-17.684 5.2.386 7.682 3.467 11.898 4.826-.487-7.009 6.048-11.336 1.933-18.009 1.022-1.347 2.27-4.165 1.933-5.786-3.23 1.284-6.336 2.669-10.938 2.569 3.642-2.794 7.072-7.508 5.139-14.791-.948.76-2.145 1.272-3.205 1.933-2.894-2.258-5.425-4.877-9.005-6.435-3.167 1.883-5.96 4.127-8.68 6.435-1.072-.861-2.132-1.734-3.865-1.933.972 3.467-.325 6.572.648 9.328.96 2.681 4.427 3.367 4.178 5.786-4.303.013-6.286-2.294-10.289-2.569.212 2.47 1.734 3.63 2.257 5.787-3.092 6.46 1.572 11.66 2.245 17.36 4.652-.81 6.572-4.365 11.898-4.502-2.382 10.364-9.94 18.769-22.51 17.373-8.793-.986-14.815-7.595-17.035-14.792 4.938.3 7.881 2.607 11.897 3.854.898-6.448 4.153-14.018.636-20.253.885-.735.786-3.055.324-4.177-3.679.91-6.073 3.142-9.964 3.853 4.265-2.818 4.627-8.88 3.217-15.439-1.21.848-2.394 1.684-3.541 2.57-2.632-2.295-5.563-4.29-9.329-5.463-2.681.1-6.797 7.508-8.68 7.72-.86.1-1.895-2.183-3.205-1.61.586 5.625 1.434 10.988 5.138 13.507-2.569.424-5.362-.549-8.68-.324-.261 2.294.811 3.255 1.61 4.502-2.12 8.767 4.364 11.71 5.462 18.332 3.853-1.608 6.983-5.674 10.613-6.435-.699 12.933-12.11 24.07-26.053 19.293-5.387-1.846-8.917-6.348-11.249-11.898 4.802-.311 7.782 1.223 10.937 2.57 1.272-9.553-.299-16.674-1.933-24.756-2.07 1.572-5.138 3.866-7.72 3.854 3.33-4.003.038-9.204-.324-14.143-1.833.412-2.02 2.482-3.853 2.894-1.983-1.659-4.776-2.507-7.72-3.218 1.073 7.296 3.33 13.394 4.827 20.265 2.594-.25 3.728 2.457 6.11 2.88 1.896.338 4.415-1.346 6.423.338-1.734 1.26-3.891 2.095-6.747 2.244-6.173 11.474 5.4 22.76 15.439 23.795 12.92 1.322 23.046-7.594 25.391-18.008 4.14 5.91 9.179 11.348 17.684 12.221 12.782 1.297 20.166-6.983 24.755-15.115 3.916 7.62 10.276 14.89 20.914 15.427 10.475.536 16.898-5.887 21.86-12.534 1.734 10.388 12.635 18.869 25.392 17.684 11.199-1.048 20.004-11.923 14.791-23.47-2.531-.462-6.697-1.01-6.747-2.894 2.27-.785 4.49.15 6.747.312 1.846-.836 2.831-2.532 5.8-2.245 1.433-7.12 3.354-13.78 4.813-20.9-3.367.386-5.899 1.608-8.031 3.217-.748-1.397-1.833-2.457-3.218-3.218-.174 5.1-3.604 11.573-.324 14.466-3.168-.898-5.525-2.606-8.356-3.853.936 5.15-1.521 7.969-1.933 11.249-.51 4.202.786 8.218.325 13.506 2.806-1.16 6.547-3.093 10.613-1.933-5.612 20.49-39.62 12.857-36.653-8.356 4.278 1.51 6.872 4.702 10.6 6.76 1.035-6.86 7.047-10.24 4.827-19.305.76-.948 2.057-3.08 1.608-4.166-2.469.848-5.5 1.148-8.68 1.272zm-20.9-19.28c2.044.312 3.379 1.347 4.825 2.245 3.38-1.41 6.373-5.774 9.965-5.462 3.093.262 6.298 6.11 8.68 7.72 1.559-.7 3.604-.911 5.474-1.285-2.157 3.84-.81 11.199-3.866 14.142 2.445-.124 4.278-.86 6.435-1.297-.51 3.829-.922 6.348-.96 10.301-.025 2.27-.424 4.253-.973 5.787-1.21 3.43-5.15 6.11-5.138 11.897-4.365-1.222-6.223-4.938-10.3-6.435-.313 15.49 26.687 21.775 31.838 7.084-3.879.187-5.787 2.37-9.004 3.217-.287-4.003-.96-7.258-1.285-10.937-.598-6.859 2.407-12.446 3.542-18.969 2.033.636 3.604 1.746 5.462 2.57.387-4.977 2.108-8.618 1.921-14.143 2.606.287 4.003 1.783 6.11 2.569 3.48-.935 6.922-1.87 10.29-2.906-.662 8.131-3.73 16.636-5.463 24.768.698 1.646 2.382 3.442 2.257 5.462-.224 3.417-4.614 4.664-6.435 8.044-2.98 5.524-3.641 13.494-4.502 21.537-.361 3.305-2.556 7.234-3.541 10.937-1.759 6.647-.848 11.274-4.502 14.143-17.972-2.507-34.944-6.934-54.337-8.044-28.06-1.584-54.672 1.297-79.09 5.8-5.052.922-11.823 3.441-14.792 2.244-3.916-1.572-3.604-13.681-5.787-18.969-.573-1.372-1.97-2.382-2.257-3.542-.399-1.608.237-3.691 0-5.462-.574-4.477-3.292-13.045-4.826-17.684-1.01-3.105-5.812-5.425-6.423-8.355-.511-2.395.948-3.879 1.285-6.111.312-2.07.012-4.452-.325-6.435-1.047-6.11-3.267-12.584-5.138-17.684 4.34-.998 8.032 1.372 11.25 2.57 2.369-.624 3.416-2.57 5.786-3.218-.237 5.699 1.97 8.954 2.257 14.155 1.36-.038 3.928-1.646 5.462-2.57 1.671 2.27.649 5.076 1.285 7.708.848 3.616 2.856 4.988 2.244 10.613-.411 3.866-1.67 7.383-1.596 11.91-2.544-1.322-5.15-2.582-8.368-3.218 4.914 15.14 30.691 7.632 31.19-7.083-3.866 1.808-5.911 5.45-10.288 6.759-.138-7.383-5.438-9.428-6.111-15.439-.487-4.377-.387-8.28-1.609-12.546 2.494.087 4.402.748 6.76.973-2.083-2.632-2.632-9.59-4.178-13.83 1.633-.886 4.252.025 5.786.324 2.98-2.694 5.75-5.612 8.992-8.044 1.808 1.097 3.492 1.347 5.474 2.581 1.048.649 3.405 3.48 4.178 3.53 1.397.1 3.517-3.604 6.435-2.57-1.26 4.403.848 10.813-.648 14.48 2.008-.674 3.641-1.734 5.462-2.582 1.846 1.908.985 4.976 1.297 7.395.4 3.218 1.634 5.276 1.596 7.72-.062 4.178-3.878 7.882-2.893 13.83-4.228-.387-6.647-2.57-10.276-3.542 3.068 14.84 31.09 13.805 33.111-2.245-4.14.774-6.01 3.854-10.613 4.178-.573-6.909-6.135-11.598-3.217-19.941-1.06-2.045-1.896-4.315-1.609-7.72 2.88-.075 4.452 1.123 6.76 1.61-1.31-2.657-1.26-9.454-1.61-14.143 2.557-.2 4.253.461 5.787 1.284 3.093-2.157 5.999-4.514 9.004-6.76 3.604 1.76 6.298 4.428 9.329 6.76 1.795-.885 3.442-1.92 6.11-1.933-1.534 4.053.4 11.548-2.257 14.466 1.621.225 4.789-.785 6.423-1.596.873 2.582-.437 5.762-1.285 7.707 3.816 8.493-3.654 12.421-2.569 21.226-3.94-1.409-6.597-4.115-10.937-5.138 1.197 15.452 30.143 17.972 33.771 2.245-4.215.611-6.285 3.367-10.613 3.854.55-6.76-5.524-14.815-.648-21.227-.436-2.145-1.097-5.35-.324-7.707 1.895.574 3.84 1.098 5.475 1.933.274-.062.299.125.324.324-1.434-3.205.748-9.266.96-13.83z" stroke="#231f20" stroke-width=".6737500000000001" fill="none"/><path fill-rule="evenodd" fill="#231f20" d="M311.063 187.588c.062-1.235.012-2.37-.325-3.218-7.009-3.878-4.776 8.705.324 3.218m-2.893-14.792c2.158 1.06 1.484 4.951 1.609 8.032 1.783.91 3.38 1.983 3.853 4.19 2.744-.175 4.951.2 6.76.96-1.36 1.434-3.841 1.734-6.76 1.609-.748 4.839-9.814 4.914-10.612 0-2.682.112-5.114-.025-6.423-1.285 1.073-1.396 3.592-1.334 6.11-1.284.961-1.82 2.009-3.554 4.503-3.854-.162-3.267.087-6.135.96-8.368"/><path d="M311.063 187.588c.062-1.235.012-2.37-.325-3.218-7.009-3.878-4.776 8.705.324 3.218zm-2.894-14.792c2.158 1.06 1.484 4.951 1.609 8.032 1.783.91 3.38 1.983 3.853 4.19 2.744-.175 4.951.2 6.76.96-1.36 1.434-3.841 1.734-6.76 1.609-.748 4.839-9.814 4.914-10.612 0-2.682.112-5.114-.025-6.423-1.285 1.073-1.396 3.592-1.334 6.11-1.284.961-1.82 2.009-3.554 4.503-3.854-.162-3.267.087-6.135.96-8.368z" stroke="#231f20" stroke-width="1.01" fill="none"/><path fill-rule="evenodd" fill="#231f20" d="M266.05 186.938c-2.307-3.368-7.071 1.97-3.854 4.177 3.854 1.41 5.288-2.082 3.854-4.177m-4.178-11.574c2.033 1.51 2.145 4.926 2.57 8.032 2.057.524 3.753 1.397 4.177 3.542 2.32-.325 4.776-.986 6.76 0-.998 1.683-3.28 2.082-5.787 2.257-.175 4.54-9.528 6.66-10.937 1.609-1.771.349-5.15.735-6.435-.325.76-1.92 3.778-1.584 5.786-2.257.699-1.983 1.534-3.829 3.866-4.165-.274-2.894-1.147-6.173 0-8.693"/><path d="M266.05 186.938c-2.307-3.368-7.071 1.97-3.854 4.177 3.854 1.41 5.288-2.082 3.854-4.177zm-4.178-11.574c2.033 1.51 2.145 4.926 2.57 8.032 2.057.524 3.753 1.397 4.177 3.542 2.32-.325 4.776-.986 6.76 0-.998 1.683-3.28 2.082-5.787 2.257-.175 4.54-9.528 6.66-10.937 1.609-1.771.361-5.15.735-6.435-.325.76-1.92 3.778-1.584 5.786-2.257.699-1.983 1.534-3.829 3.866-4.165-.274-2.894-1.147-6.173 0-8.693z" stroke="#231f20" stroke-width="1.01" fill="none"/><path fill-rule="evenodd" fill="#231f20" d="M350.288 189.838c1.396 2.569 6.36 1.895 5.138-2.57-1.597-2.294-5.999-1.26-5.138 2.57m4.502-14.48c1.583 1.909.623 5.413.324 8.057 1.047 1.497 3.217 1.908 2.893 4.814 2.382.399 4.939.623 6.423 1.933-.724 1.609-4.428.91-6.099.636-2.132 4.128-10.712 3.654-11.261-1.609-2.307-.486-5.163-.411-5.787-2.569 1.647-.449 4.14-.449 5.787 0 1.746-1.16 2.519-3.267 5.475-3.205.15-3.28.748-6.11 2.244-8.056"/><path d="M350.288 189.838c1.396 2.569 6.36 1.895 5.138-2.57-1.597-2.294-5.999-1.26-5.138 2.57zm4.502-14.48c1.583 1.909.623 5.413.324 8.057 1.047 1.497 3.217 1.908 2.893 4.814 2.382.399 4.939.623 6.423 1.933-.724 1.609-4.428.91-6.099.636-2.132 4.128-10.712 3.654-11.261-1.609-2.307-.486-5.163-.411-5.787-2.569 1.647-.449 4.14-.449 5.787 0 1.746-1.16 2.519-3.267 5.475-3.205.15-3.28.748-6.11 2.244-8.056z" stroke="#231f20" stroke-width="1.01" fill="none"/></svg>