<svg id="Layer_1" data-name="Layer 1" xmlns="http://www.w3.org/2000/svg" xmlns:xlink="http://www.w3.org/1999/xlink" viewBox="0 0 798.59 594.36"><defs><style>.cls-1{fill:none;}.cls-2{fill:#fff;}.cls-3{fill:#402dc9;}.cls-4{fill:#151539;}.cls-5{fill:#573be0;}.cls-6{fill:#5640ed;}.cls-7{fill:#200f72;}.cls-8{fill:#fc4f5a;}.cls-9{fill:#140560;}.cls-10{fill:#301593;}.cls-11{fill:#3dc18e;}.cls-12{opacity:0.3;}.cls-13{clip-path:url(#clip-path);}</style><clipPath id="clip-path"><path class="cls-1" d="M333.53,162.33s50.31,26,62.91,18.52S436.51,149,454.23,150s17.92,17.42,53,42c0,0,19.94-11,23.72-18,0,0-18.67-25-13.71-30.35S542.61,162,542.61,162l17.3-23.63s-24.79-36.3-28.38-38.34.5,12.92-4.1,15.85-19-.36-23.7-29.29c0,0-39.78-22-95.68,5S333.53,162.33,333.53,162.33Z"/></clipPath></defs><title>img1</title><rect class="cls-2" width="798.59" height="594.36"/><path class="cls-3" d="M198.39,238.18s-54.16-23.61-89.38,5.3S91.95,314,70.15,339.82,66.4,454.63,132.76,455l66.36.35Z"/><path class="cls-4" d="M167.13,387c-7.08-71.46-41.92-123.86-42.27-124.38l1-.67c.35.52,35.36,53.17,42.46,124.93Z"/><rect class="cls-4" x="114.36" y="268.55" width="1.19" height="70.41" transform="translate(-205.95 353.78) rotate(-78.13)"/><rect class="cls-4" x="115.3" y="276.95" width="1.2" height="75.16" transform="translate(-213.45 376.86) rotate(-80.49)"/><rect class="cls-4" x="117.4" y="257.24" width="59.47" height="1.2" transform="translate(-141.88 325.67) rotate(-73.5)"/><polygon class="cls-4" points="159.82 342.26 159.03 341.36 190.05 314.08 190.84 314.98 159.82 342.26"/><path class="cls-2" d="M151.61,378.62c-8.23-50.2-51.1-86.45-51.53-86.81l.77-.92a171.24,171.24,0,0,1,22.82,24.55c10.89,14.12,24.78,36.51,29.12,63Z"/><path class="cls-2" d="M159.09,372.65c-.85-43.09-33-109-33.3-109.68l1.07-.53c.33.66,32.56,66.82,33.42,110.18Z"/><path class="cls-2" d="M95.84,291.16a5.22,5.22,0,1,1,5.22-5.22A5.22,5.22,0,0,1,95.84,291.16Zm0-9.24a4,4,0,1,0,4,4A4,4,0,0,0,95.84,281.92Z"/><path class="cls-2" d="M124.22,258.23a4.31,4.31,0,1,1,4.31-4.31A4.32,4.32,0,0,1,124.22,258.23Zm0-7.43a3.12,3.12,0,1,0,3.12,3.12A3.12,3.12,0,0,0,124.22,250.8Z"/><path class="cls-2" d="M120.27,299.06a4.55,4.55,0,1,1,4.55-4.55A4.56,4.56,0,0,1,120.27,299.06Zm0-7.9a3.35,3.35,0,1,0,3.35,3.35A3.36,3.36,0,0,0,120.27,291.16Z"/><path class="cls-2" d="M103.15,313.56a3.29,3.29,0,1,1,3.29-3.29A3.29,3.29,0,0,1,103.15,313.56Zm0-5.38a2.09,2.09,0,1,0,2.09,2.09A2.09,2.09,0,0,0,103.15,308.18Z"/><path class="cls-2" d="M121.33,335.29a5.6,5.6,0,1,1,5.6-5.6A5.61,5.61,0,0,1,121.33,335.29Zm0-10a4.41,4.41,0,1,0,4.4,4.41A4.41,4.41,0,0,0,121.33,325.29Z"/><path class="cls-2" d="M147,274.33a4.59,4.59,0,1,1,4.59-4.59A4.59,4.59,0,0,1,147,274.33Zm0-8a3.39,3.39,0,1,0,3.39,3.39A3.4,3.4,0,0,0,147,266.34Z"/><path class="cls-2" d="M153.68,292.91a3.29,3.29,0,1,1,3.29-3.29A3.29,3.29,0,0,1,153.68,292.91Zm0-5.38a2.09,2.09,0,1,0,2.09,2.09A2.1,2.1,0,0,0,153.68,287.53Z"/><path class="cls-2" d="M63.52,284.94a3.79,3.79,0,1,1,3.79-3.79A3.79,3.79,0,0,1,63.52,284.94Zm0-6.38a2.59,2.59,0,1,0,2.6,2.59A2.59,2.59,0,0,0,63.52,278.56Z"/><path class="cls-2" d="M163.91,322a4.82,4.82,0,1,1,4.82-4.82A4.82,4.82,0,0,1,163.91,322Zm0-8.45a3.63,3.63,0,1,0,3.62,3.63A3.63,3.63,0,0,0,163.91,313.56Z"/><path class="cls-3" d="M378.5,238.18s54.16-23.61,89.38,5.3,17.06,70.5,38.85,96.34,3.75,114.8-62.6,115.15l-66.35.35Z"/><path class="cls-4" d="M409.75,387c7.08-71.46,41.92-123.86,42.27-124.38l-1-.67c-.35.52-35.36,53.17-42.46,124.93Z"/><rect class="cls-4" x="426.73" y="303.16" width="70.41" height="1.19" transform="translate(-52.6 101.51) rotate(-11.87)"/><rect class="cls-4" x="423.41" y="313.93" width="75.16" height="1.2" transform="translate(-45.64 80.5) rotate(-9.51)"/><rect class="cls-4" x="429.16" y="228.1" width="1.19" height="59.47" transform="translate(-55.61 132.98) rotate(-16.54)"/><rect class="cls-4" x="401.35" y="307.51" width="1.2" height="41.31" transform="translate(-109.95 413.1) rotate(-48.65)"/><path class="cls-4" d="M367.35,343.86s-52.16-38.07-99.44-23.42l4.66,46.33Z"/><path class="cls-5" d="M268.52,167.65S322.67,144,357.9,173s17.06,70.5,38.85,96.34,3.75,114.8-62.6,115.15l-66.36.35Z"/><path class="cls-4" d="M299.77,316.5C306.84,245,341.68,192.65,342,192.13l-1-.67c-.35.52-35.36,53.18-42.46,124.93Z"/><rect class="cls-4" x="316.74" y="232.63" width="70.41" height="1.19" transform="translate(-40.45 77.38) rotate(-11.87)"/><rect class="cls-4" x="313.42" y="243.39" width="75.16" height="1.2" transform="translate(-35.49 61.35) rotate(-9.51)"/><polygon class="cls-4" points="327.62 215.99 328.77 215.65 311.92 158.62 310.77 158.96 327.62 215.99"/><rect class="cls-4" x="299.18" y="305.03" width="109" height="2"/><rect class="cls-4" x="291.37" y="236.98" width="1.2" height="41.31" transform="translate(-94.26 307.1) rotate(-48.72)"/><path class="cls-5" d="M276.58,167.65S222.42,144,187.2,173s-17.06,70.5-38.85,96.34-3.75,114.8,62.6,115.15l66.36.35Z"/><path class="cls-4" d="M245.33,316.5c-7.07-71.46-41.91-123.86-42.27-124.38l1-.67c.35.52,35.36,53.18,42.47,124.93Z"/><rect class="cls-4" x="192.55" y="198.02" width="1.19" height="70.41" transform="translate(-74.82 374.27) rotate(-78.13)"/><rect class="cls-4" x="193.49" y="206.41" width="1.2" height="75.16" transform="translate(-78.62 395.1) rotate(-80.49)"/><polygon class="cls-4" points="217.47 215.99 216.32 215.65 233.17 158.62 234.32 158.96 217.47 215.99"/><rect class="cls-4" x="138.18" y="305.03" width="107" height="2"/><rect class="cls-4" x="232.47" y="257.04" width="41.31" height="1.2" transform="translate(-107.05 230.78) rotate(-41.24)"/><path class="cls-2" d="M425.28,378.62c8.23-50.2,51.1-86.45,51.53-86.81l-.76-.92a171.14,171.14,0,0,0-22.82,24.55c-10.89,14.12-24.78,36.51-29.12,63Z"/><path class="cls-2" d="M417.79,372.65c.85-43.09,33-109,33.3-109.68l-1.07-.53c-.33.66-32.57,66.82-33.42,110.18Z"/><path class="cls-2" d="M475.83,285.94a5.22,5.22,0,1,1,5.22,5.22A5.23,5.23,0,0,1,475.83,285.94Zm1.2,0a4,4,0,1,0,4-4A4,4,0,0,0,477,285.94Z"/><path class="cls-2" d="M448.35,253.92a4.31,4.31,0,1,1,4.31,4.31A4.32,4.32,0,0,1,448.35,253.92Zm1.2,0a3.12,3.12,0,1,0,3.12-3.12A3.12,3.12,0,0,0,449.54,253.92Z"/><path class="cls-2" d="M452.07,294.51a4.55,4.55,0,1,1,4.55,4.55A4.55,4.55,0,0,1,452.07,294.51Zm1.2,0a3.35,3.35,0,1,0,3.35-3.35A3.35,3.35,0,0,0,453.26,294.51Z"/><path class="cls-2" d="M470.45,310.28a3.29,3.29,0,1,1,3.29,3.29A3.29,3.29,0,0,1,470.45,310.28Zm1.2,0a2.09,2.09,0,1,0,2.09-2.09A2.1,2.1,0,0,0,471.65,310.28Z"/><path class="cls-2" d="M450,329.69a5.6,5.6,0,1,1,5.6,5.6A5.61,5.61,0,0,1,450,329.69Zm1.2,0a4.4,4.4,0,1,0,4.41-4.41A4.41,4.41,0,0,0,451.16,329.69Z"/><path class="cls-2" d="M425.29,269.73a4.59,4.59,0,1,1,4.59,4.59A4.6,4.6,0,0,1,425.29,269.73Zm1.2,0a3.39,3.39,0,1,0,3.39-3.39A3.4,3.4,0,0,0,426.49,269.73Z"/><path class="cls-2" d="M419.92,289.62a3.29,3.29,0,1,1,3.29,3.29A3.29,3.29,0,0,1,419.92,289.62Zm1.19,0a2.09,2.09,0,1,0,2.09-2.09A2.1,2.1,0,0,0,421.11,289.62Z"/><path class="cls-2" d="M509.58,281.15a3.79,3.79,0,1,1,3.79,3.79A3.79,3.79,0,0,1,509.58,281.15Zm1.2,0a2.6,2.6,0,1,0,2.59-2.59A2.59,2.59,0,0,0,510.77,281.15Z"/><path class="cls-2" d="M408.16,317.19A4.82,4.82,0,1,1,413,322,4.82,4.82,0,0,1,408.16,317.19Zm1.19,0a3.63,3.63,0,1,0,3.63-3.62A3.63,3.63,0,0,0,409.35,317.19Z"/><path class="cls-6" d="M279.15,466c41.25-2.06,82.54-.39,123.65,3.38,34.64,3.18,68.76,8.21,103.4,6.68a288.49,288.49,0,0,0,37.25-9.61c4.62-2.21,9.17-4.54,13.7-6.93-12.41-10-30.13-21.82-48-25.09-32.69-6-68.5-43.41-114.62-75.88s-123.77-16.27-123.77-16.27V466.4Z"/><path class="cls-6" d="M156.17,469.48c41.15,1,81.92-1.45,123-3.5,21.1-1.05,42.22-1.13,63.31-.45V342.26S264.66,326,218.55,358.52s-82,69.89-114.69,75.88c-19.3,3.54-38.47,17-50.93,27.5C87.15,466.09,121.8,468.67,156.17,469.48Z"/><path class="cls-6" d="M94.63,455s-92-6.75-81.75,10.28S173.68,488,308.4,485.74s230.94-2.45,300.89.48,155.51-28.58-16.87-42.61-327,14.68-391.39,14.22S94.63,455,94.63,455Z"/><path class="cls-6" d="M310,520.34s476-31.19,422.62-14.17-104.53,26.11-248.08,28.38S232.42,525.19,310,520.34Z"/><path class="cls-7" d="M474.83,339.81s-7.23,3.89-6.09,9.06,47.05,22.55,52.27,19.3-7-9.25-12.83-12.6S488,341.64,489.09,339.46s-7.68-4.58-7.68-4.58Z"/><path class="cls-8" d="M410.92,180.27s113.59,25.83,118,50.14-39.81,109-39.81,109l-14.26.35s26.31-83.07,22-93.44-61.26-4.6-61.26-4.6S385,200.43,384.86,199.55s6.14-35,6.14-35Z"/><path class="cls-9" d="M329.3,516.24A95.19,95.19,0,1,1,435,432.82,95.3,95.3,0,0,1,329.3,516.24Zm21.36-181.61a87.67,87.67,0,1,0,76.83,97.32A87.77,87.77,0,0,0,350.67,334.63Z"/><path class="cls-9" d="M626.67,511.24a95.2,95.2,0,1,1,105.66-83.42A95.3,95.3,0,0,1,626.67,511.24ZM648,329.62a87.68,87.68,0,1,0,76.83,97.32A87.77,87.77,0,0,0,648,329.62Z"/><path class="cls-9" d="M539.23,401.17a99.77,99.77,0,0,1,197.12,0h4a103.71,103.71,0,0,0-205.08,0Z"/><path class="cls-9" d="M241,405.5a99.78,99.78,0,0,1,197.13,0h4a103.71,103.71,0,0,0-205.08,0Z"/><path class="cls-9" d="M595,275.15c-51.2-.09-135.63-.19-186.83-.28a3,3,0,0,0-3,1.78q-34,73-68,146c-1,2.21,1.09,4,3.1,3.93l114.57-2.77c2,0,2.72-2.44,2.2-4q-26.93-80.92-53.86-161.84c-1.17-3.53-6.44-1.2-5.28,2.31l50.88,152.88,2.78,8.36c-1.15-3.47,4.63-3.46-3-3.27l-42.84,1-50.06,1.21-14.2.33c-2.05.05.11,6.06,2.77.33l37.08-79.63,20.31-43.62q3.23-6.94,6.46-13.87c2.44-5.25,3.11-3.41-.41-3.42,51.15.1,135.51.19,186.65.28,3.67,0,4.39-5.71.68-5.73Z"/><path class="cls-9" d="M592.64,276c-39,40.12-82.9,103.07-121.91,143.19l5.17,2.07q2.22-18.85,4.44-37.71,1.24-10.53,2.48-21c.6-5.14.6-.79-1.25-.86l13.28.52c3.69.14,4.38-5.58.67-5.73l-14.82-.58a2.93,2.93,0,0,0-3.2,2.53q-3.66,31.09-7.32,62.19c-.37,3.11,3.29,4,5.16,2.07,39-40.12,82.89-103.07,121.91-143.19,2.59-2.66-2-6.1-4.6-3.47Z"/><path class="cls-9" d="M357.6,239.44s-19.46,4.51-12.15,16.4,69.79,23.29,81.27,9.57-2-22.87-8.69-24.82S357.6,239.44,357.6,239.44Z"/><path class="cls-9" d="M472.59,418.09l-52.25,10.09a2.91,2.91,0,0,0-2.41,3.29q1.18,6.33,2.38,12.65c.68,3.64,6.39,2.79,5.7-.86l-2.38-12.67q-1.21,1.66-2.41,3.29l52.25-10.1c3.63-.7,2.78-6.4-.88-5.69Z"/><path class="cls-8" d="M334,162.42S314.5,200,344.44,228.25s83.92,52.81,83.15,79S402,413,402,413s15.86,6.5,21.36,2.52,44.21-99.63,42.82-127.26-63.36-98.35-63.36-98.35S368.34,159.88,334,162.42Z"/><path class="cls-7" d="M402,413s-3.61,12.54-1.93,16.41S453,446.81,455.15,443s-9.88-9.66-16.62-13.27-15.22-10.4-15.15-14.26-9.92-4.45-9.92-4.45Z"/><path class="cls-7" d="M419.86,228.87q16.88-18.52,33.5-37.3c-23.06-6.88-42.44-11.29-42.44-11.29L391,164.58s-6.32,34.08-6.14,35C385,200.11,405,216.66,419.86,228.87Z"/><path class="cls-10" d="M344.44,228.25c9.43,8.9,21.23,17.44,33,25.76l12.4-3.34,4.18-1.12c3.42-.94,6.85-1.89,10.26-2.86,6.07-1.72,12.13-3.52,18.18-5.32l17.09-5.11c-17.32-24.32-36.67-46.4-36.67-46.4s-34.5-30-68.83-27.44C334,162.42,314.5,200,344.44,228.25Z"/><path class="cls-8" d="M559.91,138.38c-1.55,1.37-5.39-.85-7,.46-4.18,4.71-8.49,9.3-12.9,13.85-.76.79,3.33,8.52,2.58,9.32,28.25,22.79,49.59,47,82.21,57.27,0,0,9.67-3.68,11.21-6.5C636,212.79,581.48,167.88,559.91,138.38Z"/><path class="cls-8" d="M635.43,212.41s19.51,5,18.83,14.34-7.48,5.48-8,4.68-7.88-4.67-10.7-4.63-10.76-7.5-10.76-7.5Z"/><rect class="cls-9" x="592.76" y="232.87" width="5.11" height="45.62"/><rect class="cls-9" x="592.76" y="232.87" width="15.95" height="5.11"/><path class="cls-9" d="M633.37,283.56c-.5,0-1,0-1.37,0l.27-5.1c2.35.13,6.68,0,9.33-2.44a8,8,0,0,0,2.4-5.93c.29-6.77-4.34-8.4-5.5-8.7H605.61V206.42h33.56l.36.11c3.48,1.06,10,5.54,9.57,14.89a13,13,0,0,1-4.07,9.49c-4,3.66-9.9,3.92-13,3.76l.27-5.1c2.35.13,6.68,0,9.33-2.44a8,8,0,0,0,2.4-5.93c.29-6.8-4.28-9.13-5.65-9.67H610.72v44.71l28.54,0c3.58.67,10.25,4.45,9.84,14a13,13,0,0,1-4.06,9.49C641.54,282.94,636.65,283.56,633.37,283.56Z"/><path class="cls-10" d="M547,31.52s18.82,11.24,12.32,43.79c-5.41,27.1-16,26.69-16.39,42.82s-47.68,35.93-71.52,18.9S457.87,88.72,467,78.5s29.54-20.43,33.8-23.62,12.56-9.37,21.71-13.41S547,31.52,547,31.52Z"/><path class="cls-8" d="M526,166.51c-9,5.4-9.5,20.32-18.73,25.45,27.49,22.87,76.74,64.9,113.46,76.41,0,0,9.5-3.57,11-6.31C631.73,262.06,541.33,194.66,526,166.51Z"/><path class="cls-8" d="M631.16,261.7s19.16,4.92,18.49,14-7.33,5.34-7.83,4.55-7.74-4.56-10.5-4.52-10.58-7.32-10.58-7.32Z"/><path class="cls-8" d="M554.35,54.79s3.62,25.82-1.91,27.85-17.7,2.46-21,7.2,0,15.72,0,15.72l-.27,18.24s-35.34-.06-35.88-2.69-3.87-31-3.87-31l12.27-3.49s20.67-11,23.09-17.75,3.08-12.33,4.83-11.27a39.52,39.52,0,0,1,3.5,2.45S550.33,62.86,554.35,54.79Z"/><path class="cls-11" d="M333.53,162.33s50.31,26,62.91,18.52S436.51,149,454.23,150s17.92,17.42,53,42c0,0,19.94-11,23.72-18,0,0-18.67-25-13.71-30.35S542.61,162,542.61,162l17.3-23.63s-24.79-36.3-28.38-38.34.5,12.92-4.1,15.85-19-.36-23.7-29.29c0,0-39.78-22-95.68,5S333.53,162.33,333.53,162.33Z"/><path class="cls-11" d="M333.53,162.33s50.31,26,62.91,18.52S436.51,149,454.23,150s17.92,17.42,53,42c0,0,19.94-11,23.72-18,0,0-18.67-25-13.71-30.35S542.61,162,542.61,162l17.3-23.63s-24.79-36.3-28.38-38.34.5,12.92-4.1,15.85-19-.36-23.7-29.29c0,0-39.78-22-95.68,5S333.53,162.33,333.53,162.33Z"/><g class="cls-12"><g class="cls-13"><circle class="cls-2" cx="391.2" cy="143.57" r="5.8"/><circle class="cls-2" cx="370.48" cy="143.57" r="5.8"/><circle class="cls-2" cx="382.08" cy="162.27" r="5.8"/><circle class="cls-2" cx="343.81" cy="159.65" r="5.8"/><circle class="cls-2" cx="364.68" cy="121.63" r="5.8"/><circle class="cls-2" cx="393.31" cy="123.79" r="5.8"/><circle class="cls-2" cx="424.9" cy="143.57" r="5.8"/><circle class="cls-2" cx="470.14" cy="121.63" r="5.8"/><circle class="cls-2" cx="489.68" cy="149.37" r="5.8"/><circle class="cls-2" cx="520.33" cy="162.27" r="5.8"/><circle class="cls-2" cx="493.37" cy="184.63" r="5.8"/><circle class="cls-2" cx="520.33" cy="183.21" r="5.8"/><circle class="cls-2" cx="539.87" cy="142.06" r="5.8"/><circle class="cls-2" cx="552.3" cy="127.43" r="5.8"/><circle class="cls-2" cx="534.07" cy="108.57" r="5.8"/><circle class="cls-2" cx="507.27" cy="110.03" r="5.8"/><circle class="cls-2" cx="504.97" cy="133.23" r="5.8"/><circle class="cls-2" cx="461.37" cy="147.86" r="5.8"/><circle class="cls-2" cx="447.55" cy="121.63" r="5.8"/><circle class="cls-2" cx="413.3" cy="171.61" r="5.8"/><circle class="cls-2" cx="370.48" cy="176.15" r="5.8"/><circle class="cls-2" cx="349.61" cy="139.03" r="5.8"/><circle class="cls-2" cx="487.57" cy="106.67" r="5.8"/></g></g><path class="cls-10" d="M555.52,50.85s-.14,14.47-20.89,14.9c0,0,1.29-5.38-1.81-6.42s-4.36,4.83-2.13,8.44c0,0-11.72,25.85-29.21,32.9s-28,1.59-57.21,23.13c-21.67,16-71.23,1.52-69.81-36.25,1.5-40,38.31-45,64.28-37.58,21.72,6.17,60.84,4.17,70-8.37C521.32,24.42,553.67,18.89,555.52,50.85Z"/><rect class="cls-9" x="612.49" y="274.41" width="6.81" height="145.85" transform="translate(-74.42 194.23) rotate(-16.92)"/><circle class="cls-9" cx="340.42" cy="421.7" r="12.53"/><circle class="cls-9" cx="637.79" cy="416.69" r="12.53"/><rect class="cls-9" x="638.34" y="325.57" width="0.98" height="91.39"/><rect class="cls-9" x="612.13" y="333.83" width="0.99" height="91.39" transform="translate(-106.9 420.03) rotate(-35)"/><polygon class="cls-9" points="638.66 417.42 552.78 386.16 553.12 385.24 639 416.49 638.66 417.42"/><polygon class="cls-9" points="550.68 441.09 550.43 440.14 638.71 416.48 638.96 417.44 550.68 441.09"/><rect class="cls-9" x="563.76" y="451.47" width="91.39" height="0.99" transform="translate(-128.71 627.51) rotate(-49.94)"/><polygon class="cls-9" points="631.36 508.05 630.37 507.96 638.34 416.92 639.33 417 631.36 508.05"/><rect class="cls-9" x="661.19" y="410.84" width="0.99" height="91.39" transform="translate(-139.62 392) rotate(-30)"/><polygon class="cls-9" points="721.46 456.03 638.63 417.4 639.04 416.51 721.87 455.14 721.46 456.03"/><rect class="cls-9" x="638.14" y="408.53" width="91.4" height="0.99" transform="translate(-60.37 124.27) rotate(-9.95)"/><rect class="cls-9" x="625.45" y="384.15" width="91.4" height="0.99" transform="translate(-75.12 588.31) rotate(-45.08)"/><rect class="cls-9" x="339.09" y="330.46" width="0.99" height="91.39"/><rect class="cls-9" x="312.88" y="338.72" width="0.99" height="91.39" transform="translate(-163.82 249.26) rotate(-35)"/><rect class="cls-9" x="296.15" y="360.53" width="0.99" height="91.39" transform="translate(-186.54 546.03) rotate(-70)"/><rect class="cls-9" x="249.75" y="433.19" width="91.39" height="0.98" transform="translate(-102.03 91.07) rotate(-14.97)"/><rect class="cls-9" x="264.51" y="456.36" width="91.39" height="0.99" transform="translate(-239.11 400.31) rotate(-49.95)"/><polygon class="cls-9" points="332.1 512.94 331.12 512.86 339.09 421.81 340.07 421.89 332.1 512.94"/><rect class="cls-9" x="361.93" y="415.73" width="0.99" height="91.39" transform="translate(-182.15 243.02) rotate(-30)"/><rect class="cls-9" x="380.5" y="395.47" width="0.99" height="91.4" transform="translate(-179.85 600.02) rotate(-65)"/><polygon class="cls-9" points="339.67 422.34 339.5 421.37 429.5 405.5 429.67 406.47 339.67 422.34"/><rect class="cls-9" x="326.2" y="389.05" width="91.4" height="0.99" transform="translate(-166.53 377.41) rotate(-45.04)"/><polygon class="cls-8" points="554.24 63.35 557.29 72.53 554.24 74.8 554.24 63.35"/><circle class="cls-10" cx="549.35" cy="68.17" r="5.41"/><rect class="cls-10" x="540.48" y="61.64" width="1.7" height="7.87" transform="translate(229.65 513) rotate(-62.05)"/><rect class="cls-10" x="551.83" y="66.57" width="4.82" height="1.7"/><path class="cls-10" d="M550.37,76.71s2.65,1,3.87-1.25c0,0,.63-.29.49.4s-1,1.86-3.11,1.84S549.57,76.54,550.37,76.71Z"/></svg>