<svg xmlns="http://www.w3.org/2000/svg" viewBox="0 0 612.6 654.36"><defs><style>.cls-1{isolation:isolate;}.cls-2{fill:#fff;}.cls-13,.cls-3,.cls-4{opacity:0.4;}.cls-18,.cls-4,.cls-5{fill:#ddbd8e;}.cls-13,.cls-18,.cls-19,.cls-4,.cls-5,.cls-6{mix-blend-mode:multiply;}.cls-15,.cls-19,.cls-6{fill:#c9a86f;}.cls-13,.cls-7{fill:#d79749;}.cls-8{fill:#c47f33;}.cls-9{fill:#604507;}.cls-10{fill:#cc8a3c;}.cls-11{fill:#220200;}.cls-12{fill:#785806;}.cls-14{fill:#7c2b04;}.cls-16{fill:#2d1c08;}.cls-17{fill:#88682f;}.cls-18{opacity:0.6;}.cls-19{opacity:0.7;}</style></defs><title>img2</title><g class="cls-1"><g id="Layer_1" data-name="Layer 1"><rect class="cls-2" x="0.08" width="612.6" height="654.36"/><g class="cls-3"><path class="cls-4" d="M284.35,440.92a150.67,150.67,0,0,1,0-300V59.17C162.77,66.59,66.46,167.5,66.46,290.93S162.77,515.27,284.35,522.7Z"/><path class="cls-4" d="M331.5,199a92.37,92.37,0,0,1,0,183.9V433a142.36,142.36,0,0,0,0-284.17Z"/><path class="cls-5" d="M379.06,558.53l-81.84-285,41.12,293.93A278.19,278.19,0,0,0,379.06,558.53Z"/><path class="cls-6" d="M418,543.6,297.22,273.54l81.84,285A277.64,277.64,0,0,0,418,543.6Z"/><path class="cls-6" d="M408.15,548A280.14,280.14,0,0,0,565.67,373.54l-268.44-100Z"/><path class="cls-6" d="M31.39,209.58l265.84,71.64-153-223.06A280,280,0,0,0,31.39,209.58Z"/><path class="cls-6" d="M369.8,20.7,301.13,281.22,405,32.55A278,278,0,0,0,369.8,20.7Z"/><path class="cls-6" d="M569.59,222.4a278.76,278.76,0,0,0-64.28-119.54L298.7,276.45Z"/><path class="cls-6" d="M97.79,485l205.65-212.5L43.29,404.14A279.82,279.82,0,0,0,97.79,485Z"/></g><path class="cls-7" d="M320.78,97.34,246.29,213S375.15,176.69,320.78,97.34Z"/><path class="cls-7" d="M246.29,213l-40,62.66s51.35-12.28,63.44-71.35Z"/><path class="cls-8" d="M210.22,269.53l-21.79,3.89S208.1,285.78,210.22,269.53Z"/><path class="cls-9" d="M320.78,97.34l-38.16,59.24L302,186.29C328.4,167.33,348.63,138,320.78,97.34Z"/><path class="cls-10" d="M407.19,260.61S288.56,230.33,263.47,342L302,490.78s56.85-130.72-5.45-150.19l146.92-65.26Z"/><path class="cls-11" d="M317.43,331.3l126-56-36.26-14.71s-70.17-17.9-114,24.61Z"/><path class="cls-12" d="M302.41,96.64S366,68.52,425.27,111.35s48,106.43,48,106.43l-50,20.57s-5.42-40-45.66-52.15-64.46-10.82-75.28-46.72Z"/><path class="cls-11" d="M474.15,208.48s8,57.26-33.52,69.44l-24.23-2.81s-5.84-16-5.41-16.66,2.38-10.17,2.38-10.17l10-9.93a79,79,0,0,0-12.1-28.42Z"/><polygon class="cls-11" points="298.9 478.88 188.19 490.78 301.97 490.78 298.9 478.88"/><path class="cls-13" d="M296.53,340.59l66-29.33L316.8,290l-38.52,51.49c36.44,26,23.7,149.25,23.7,149.25S358.82,360.05,296.53,340.59Z"/><path class="cls-14" d="M474.15,368.56A110.32,110.32,0,1,0,584.47,478.88,110.32,110.32,0,0,0,474.15,368.56Zm0,214.8A104.48,104.48,0,1,1,578.63,478.88,104.48,104.48,0,0,1,474.15,583.36Z"/><circle class="cls-15" cx="474.15" cy="478.88" r="105.13"/><path class="cls-4" d="M468.75,535.32a56.7,56.7,0,0,1,0-112.88V391.67a87.38,87.38,0,0,0,0,174.42Z"/><path class="cls-4" d="M486.49,444.28a34.76,34.76,0,0,1,0,69.2v18.87a53.57,53.57,0,0,0,0-106.93Z"/><path class="cls-5" d="M504.39,579.57,473.59,472.34l15.47,110.61A104.64,104.64,0,0,0,504.39,579.57Z"/><path class="cls-6" d="M519,574,473.59,472.34l30.79,107.24A104.42,104.42,0,0,0,519,574Z"/><path class="cls-6" d="M515.33,575.63A105.42,105.42,0,0,0,574.61,510l-101-37.63Z"/><path class="cls-6" d="M373.56,448.27l100,27L416,391.29A105.36,105.36,0,0,0,373.56,448.27Z"/><path class="cls-6" d="M500.9,377.19l-25.84,98,39.1-93.57A104.41,104.41,0,0,0,500.9,377.19Z"/><path class="cls-6" d="M576.08,453.09a104.87,104.87,0,0,0-24.19-45l-77.74,65.32Z"/><path class="cls-6" d="M398.55,551.9l77.38-80L378,521.48A105.34,105.34,0,0,0,398.55,551.9Z"/><polygon class="cls-16" points="343.33 448.05 475.06 471.94 340.31 455.84 343.33 448.05"/><path class="cls-14" d="M159,368.56A110.32,110.32,0,1,0,269.31,478.88,110.32,110.32,0,0,0,159,368.56Zm0,214.8A104.48,104.48,0,1,1,263.47,478.88,104.48,104.48,0,0,1,159,583.36Z"/><circle class="cls-15" cx="158.99" cy="478.88" r="105.13"/><path class="cls-4" d="M153.58,535.32a56.7,56.7,0,0,1,0-112.88V391.67a87.38,87.38,0,0,0,0,174.42Z"/><path class="cls-4" d="M171.33,444.28a34.76,34.76,0,0,1,0,69.2v18.87a53.57,53.57,0,0,0,0-106.93Z"/><path class="cls-5" d="M189.22,579.57l-30.8-107.24L173.9,582.94A104.6,104.6,0,0,0,189.22,579.57Z"/><path class="cls-6" d="M203.87,574,158.43,472.34l30.8,107.24A104.15,104.15,0,0,0,203.87,574Z"/><path class="cls-6" d="M200.17,575.63A105.42,105.42,0,0,0,259.44,510l-101-37.63Z"/><path class="cls-6" d="M58.39,448.27l100,27-57.58-83.93A105.35,105.35,0,0,0,58.39,448.27Z"/><path class="cls-6" d="M185.74,377.19l-25.84,98L199,381.65A104.53,104.53,0,0,0,185.74,377.19Z"/><path class="cls-6" d="M260.92,453.09a104.86,104.86,0,0,0-24.19-45L159,473.43Z"/><path class="cls-6" d="M83.38,551.9l77.38-80L62.87,521.48A105.33,105.33,0,0,0,83.38,551.9Z"/><path class="cls-14" d="M232.12,286.81a32.06,32.06,0,0,1,.19,4c0,1.1-.1,2.19-.22,3.26L339.78,428.92l88.58-142.11Zm107,130.89L239.76,293.3h176.9Z"/><polygon class="cls-14" points="475.53 485.73 419.01 289.61 432.69 266.35 438.29 269.64 426.02 290.5 481.76 483.93 475.53 485.73"/><path class="cls-14" d="M397.4,268h71.86a1.87,1.87,0,0,1,1.87,1.87v10a1.88,1.88,0,0,1-1.88,1.88H397.4a1.87,1.87,0,0,1-1.87-1.87v-10A1.88,1.88,0,0,1,397.4,268Z"/><path class="cls-14" d="M161.37,478.12l-2.94-5.79c71.37-36.31,71.35-180.8,71.35-182.26V247.3H191.3a14.42,14.42,0,0,0,0,28.84l15.63,0v6.49l-15.63,0a20.91,20.91,0,0,1,0-41.82h45v49.25a410.75,410.75,0,0,1-8.89,79.16C215.34,424.62,192.52,462.27,161.37,478.12Z"/><circle class="cls-14" cx="340.31" cy="450.33" r="28.55"/><circle class="cls-17" cx="340.31" cy="450.33" r="7.79"/><rect class="cls-17" x="333.17" y="376.21" width="6.49" height="74.33" transform="translate(-41.46 37.52) rotate(-6.01)"/><polygon class="cls-17" points="316.88 373.16 316.88 378.24 344.3 375.7 341.81 369.41 316.88 373.16"/><circle class="cls-14" cx="159.9" cy="475.23" r="11.44"/><circle class="cls-14" cx="475.06" cy="475.23" r="11.44"/><path class="cls-7" d="M429.6,244.61S388.07,194,296.34,207c0,0-27.69,72.47,52.35,161.59,0,0,13.41-91.07-13.41-111.41l80.47,29.42Z"/><path class="cls-11" d="M423.34,238.35s-26-27.32-69.41-31.29l-7.15,54.3,69,25.22s38.55-3.94,51.83-31.72L441.93,240.5Z"/><path class="cls-13" d="M335.29,257.15l11.5,4.2,2.88-21.87C341.13,216.7,296.34,207,296.34,207L348.7,368.56S362.11,277.49,335.29,257.15Z"/><polygon class="cls-11" points="341.14 359.57 273.1 378.9 348.71 368.33 341.14 359.57"/><path class="cls-4" d="M327,170.81c5.8-31-18.64-59.26-18.64-59.26l-4,21.11L302.58,140C307.7,156.63,315.76,165.17,327,170.81Z"/><path class="cls-18" d="M332.3,88.92l31.43,93.37c3.08.81,6.27,1.68,9.58,2.63L339.66,88.09C337.11,88.31,334.65,88.6,332.3,88.92Z"/><path class="cls-15" d="M346.2,87.68q-3.36.13-6.54.41l33.65,96.83c1.44.41,2.89.84,4.37,1.28,1.82.55,3.55,1.17,5.23,1.83Z"/><path class="cls-19" d="M346.2,87.68,382.91,188a62.38,62.38,0,0,1,20.66,13.09h0L362.78,88.06A133.77,133.77,0,0,0,346.2,87.68Z"/><path class="cls-4" d="M474.12,207.32a113.92,113.92,0,0,0-21.84-69.46H407.19Z"/><path class="cls-19" d="M403.59,122.17l-1.08-24q-4.87-2.16-9.68-3.81Z"/><path class="cls-7" d="M302.41,96.66,231,214.22S358.87,174.53,302.41,96.66Z"/><path class="cls-7" d="M231,214.22l-38.29,63.7s51-13.64,61.52-73Z"/><path class="cls-7" d="M196.46,271.72l-21.68,4.47S194.78,288,196.46,271.72Z"/><path class="cls-17" d="M302.41,96.66l-36.57,60.23L286,186.07C311.88,166.42,331.33,136.55,302.41,96.66Z"/><path class="cls-4" d="M286,186.07c20.1-15.28,36.32-36.74,28.93-64.29l-41.55,46.07Z"/><path class="cls-13" d="M213.32,268.08c15.43-10,34.88-29,40.93-63.17h0A169.58,169.58,0,0,0,286,186.07l-7.26-10.49-29.1,28.71Z"/><path class="cls-7" d="M302.41,96.64s-17.84,4.54-25.74,2.71-12.44-13.41-17.52-15.14S241.4,96.1,233.4,98.05s-13.41,1.73-9.19,7.46S241.51,108,241.51,108l-5.06,17.28,6.57-2.14,2.06,15.9,25-17.63,5,2.71,4.11-3.35,8.71-.17Z"/><polygon class="cls-4" points="241.51 108 243.03 123.14 236.45 125.28 241.51 108"/><path class="cls-4" d="M245.08,139l11.47-31s3.64-6.37,7-5.07-1,7.34-1,7.34l7.5,11.14Z"/><path class="cls-11" d="M254.25,109.19h3.32l2.11-4.21s3.53-2.58,4.52-.64-1.63,5.93-1.63,5.93,12.3-.88,15.25-10.71c0,0-6.4-1.86-11.47-9.08s-6.53-8.6-13.59-5.27-32.61,14.52-32.61,14.52,5.52,16.47,21.58,8.27l11-5.27Z"/><polygon class="cls-4" points="269.94 121.23 275.26 113.84 289.59 117.79 287.86 120.6 279.15 120.76 275.04 124.12 270.06 121.41 269.94 121.23"/><path class="cls-11" d="M247.41,111.68a.32.32,0,0,1-.33.32H245.4a.32.32,0,0,1-.32-.32h0a.32.32,0,0,1,.32-.33h1.68a.33.33,0,0,1,.33.33Z"/><polygon class="cls-11" points="243.03 123.14 246.92 122.28 249.28 127.67 246.29 124.12 243.26 124.97 243.03 123.14"/></g></g></svg>