<svg id="Layer_1" data-name="Layer 1" xmlns="http://www.w3.org/2000/svg" xmlns:xlink="http://www.w3.org/1999/xlink" viewBox="0 0 809.96 607.86"><defs><style>.cls-1{fill:none;}.cls-2{fill:#fff;}.cls-3{clip-path:url(#clip-path);}.cls-4{fill:#5640ed;}.cls-5{fill:#7066f7;}.cls-6{fill:#f5ddca;}.cls-7{clip-path:url(#clip-path-2);}.cls-8{fill:#db3343;}.cls-9{fill:#ea9c1f;}.cls-10{fill:#200f72;}.cls-11{fill:#fdf3e0;}.cls-12{fill:#140560;}.cls-13{fill:#fc4f5a;}.cls-14{fill:#301593;}.cls-15{fill:#d33733;}.cls-16{fill:#3c2415;}.cls-17{fill:#541441;}.cls-18{fill:#fab430;}</style><clipPath id="clip-path"><rect class="cls-1" x="50.82" y="114.49" width="399.44" height="282.97"/></clipPath><clipPath id="clip-path-2"><rect class="cls-1" x="438.39" y="114.49" width="399.44" height="282.97"/></clipPath></defs><title>img3</title><rect class="cls-2" width="809.96" height="607.86"/><g class="cls-3"><path class="cls-4" d="M122.09,450.66,73.82,257.89S-2.16,375.48,122.09,450.66Z"/><path class="cls-5" d="M122.09,450.66,73.82,257.89S196.26,325.8,122.09,450.66Z"/><path class="cls-5" d="M265.13,397.46l128.52-76.68S292.35,291.53,265.13,397.46Z"/><path class="cls-4" d="M265.13,397.46l128.52-76.68S371.28,423.82,265.13,397.46Z"/><path class="cls-5" d="M304.59,396.19l-29.77-10.8L317.05,375a73.87,73.87,0,0,0,7.6-35.62c-1.36-36.65-3.82-56.83,11-86.42s12.54-59.29-23.72-78.85c-39.43-11.93-62.14,7.37-72.65,38.76s-26.55,43.88-53.51,68.75-23,55.26-33.77,82.71S99,399.77,90.54,464.6,156,549.1,156,549.1s66,38.53,106.07-13.17,15.87-87.28,27.74-114.28C293.79,412.55,299.21,404.4,304.59,396.19Z"/><path class="cls-4" d="M304.59,396.19l-29.77-10.8L317.05,375a73.87,73.87,0,0,0,7.6-35.62c-1.36-36.65-3.82-56.83,11-86.42,14-27.81,12.75-55.74-17.58-75.23-21.69,9.06-30.18,30.29-41.2,53-12.84,26.27-38.15,38.74-47.72,66.37-8.56,25.18-1.67,50.08-4.17,76.82-3.66,27.22-29,44.45-36.63,71.94-13.62,50.5,33.49,85.2,79,82.62,32.35-47.7,11.09-81.17,22.38-106.86C293.79,412.55,299.21,404.4,304.59,396.19Z"/><path class="cls-6" d="M297.65,205,135,595.9c-1.42,3.42,4.14,4.9,5.53,1.52l131.91-317.1,30.71-73.83c1.42-3.42-4.13-4.9-5.54-1.52L165.74,522.07,135,595.9l5.53,1.52L303.18,206.49C304.61,203.07,299,201.6,297.65,205Z"/><path class="cls-6" d="M195.75,465.78l77.47-32c3.38-1.39,1.9-6.95-1.52-5.54l-77.48,32c-3.37,1.39-1.9,6.95,1.53,5.54Z"/><path class="cls-6" d="M190.43,349.95q11.69,28.33,23.38,56.66c1.39,3.38,6.95,1.9,5.54-1.52L196,348.42c-1.39-3.37-6.95-1.89-5.54,1.53Z"/><path class="cls-6" d="M242.93,349.69l50.5-20.83c3.37-1.39,1.9-6.95-1.53-5.54l-50.5,20.83c-3.37,1.39-1.9,7,1.53,5.54Z"/><path class="cls-6" d="M254.24,221,272,264.19c1.39,3.38,6.95,1.89,5.53-1.53l-17.8-43.17c-1.39-3.37-6.95-1.9-5.54,1.53Z"/></g><g class="cls-7"><path class="cls-4" d="M509.66,450.66,461.39,257.89S385.41,375.48,509.66,450.66Z"/><path class="cls-5" d="M509.66,450.66,461.39,257.89S583.83,325.8,509.66,450.66Z"/><path class="cls-5" d="M652.7,397.46l128.52-76.68S679.92,291.53,652.7,397.46Z"/><path class="cls-4" d="M652.7,397.46l128.52-76.68S758.85,423.82,652.7,397.46Z"/><path class="cls-5" d="M692.16,396.19l-29.78-10.8L704.62,375a73.87,73.87,0,0,0,7.6-35.62c-1.36-36.65-3.82-56.83,11-86.42s12.54-59.29-23.72-78.85c-39.43-11.93-62.14,7.37-72.65,38.76s-26.55,43.88-53.51,68.75-23,55.26-33.77,82.71-53.05,35.42-61.5,100.24,65.44,84.51,65.44,84.51,66,38.53,106.07-13.17,15.87-87.28,27.74-114.28C681.36,412.55,686.78,404.4,692.16,396.19Z"/><path class="cls-4" d="M692.16,396.19l-29.78-10.8L704.62,375a73.87,73.87,0,0,0,7.6-35.62c-1.36-36.65-3.82-56.83,11-86.42,14-27.81,12.75-55.74-17.58-75.23-21.7,9.06-30.18,30.29-41.2,53-12.84,26.27-38.15,38.74-47.72,66.37-8.56,25.18-1.67,50.08-4.17,76.82-3.66,27.22-29,44.45-36.63,71.94-13.62,50.5,33.49,85.2,79,82.62,32.35-47.7,11.09-81.17,22.38-106.86C681.36,412.55,686.78,404.4,692.16,396.19Z"/><path class="cls-6" d="M685.22,205,522.6,595.9c-1.42,3.42,4.14,4.9,5.53,1.52L660,280.33l30.71-73.83c1.42-3.42-4.13-4.9-5.54-1.52L553.31,522.07,522.6,595.9l5.53,1.52L690.76,206.49C692.18,203.07,686.62,201.6,685.22,205Z"/><path class="cls-6" d="M583.32,465.78l77.47-32c3.38-1.39,1.9-6.95-1.52-5.54l-77.48,32c-3.37,1.39-1.9,6.95,1.53,5.54Z"/><path class="cls-6" d="M578,349.95q11.69,28.33,23.38,56.66c1.39,3.38,6.95,1.9,5.54-1.52l-23.38-56.67c-1.39-3.37-6.95-1.89-5.54,1.53Z"/><path class="cls-6" d="M630.5,349.69,681,328.86c3.37-1.39,1.9-6.95-1.53-5.54L629,344.15c-3.37,1.39-1.9,7,1.53,5.54Z"/><path class="cls-6" d="M641.81,221l17.81,43.17c1.39,3.38,6.95,1.89,5.53-1.53l-17.8-43.17c-1.39-3.37-6.95-1.9-5.54,1.53Z"/></g><path class="cls-4" d="M123.52,392.37s-90-6.6-80,10.06,157.34,22.22,289.17,20,226-2.4,294.43.47,152.17-28-16.51-41.7-320,14.37-383,13.91S123.52,392.37,123.52,392.37Z"/><path class="cls-4" d="M334.22,456.28S800,425.76,747.77,442.42,645.49,468,505,470.19,258.35,461,334.22,456.28Z"/><path class="cls-4" d="M222.47,518.09S688.22,487.57,636,504.23,533.73,529.78,393.26,532,146.59,522.84,222.47,518.09Z"/><path class="cls-8" d="M434.83,119.94c-8.2,7.49-15.84,16.39-24.29,23.64C441.21,179,513.86,201,554.23,205.15c0,0,9.06-5.7,10-8.85C564.26,196.31,456.61,145.77,434.83,119.94Z"/><path class="cls-8" d="M563.59,196.05s20.84,1,22.05,10.53-6.44,7.06-7.13,6.36-9-3.07-11.81-2.45-12.48-5.33-12.48-5.33Z"/><path class="cls-9" d="M417.21,100q-10.33,14.1-21.35,27.67,1.13,8.54,2.37,17.07h.08c4.77.8,9.22,4.57,12.1,8.3.3.39.59.79.89,1.18.56-1.45.85-2.29.85-2.29l14.48,15.33,25.09-31.59S426.47,112.74,417.21,100Z"/><path class="cls-10" d="M369.74,192.44s64.09,14.82,71,60.26-43.51,134.41-43.51,134.41l-12-71.75s17.46-18.42,15.07-39-23.68-26.79-23.68-26.79Z"/><path class="cls-11" d="M428.7,241.9s2.5,4.78.89,5.43-4.77-1.58-5-4.57-.78-5.8-1.65-6.94S425.22,235.54,428.7,241.9Z"/><path class="cls-11" d="M420,230.68s-3.2-1.77-3.3-3.69,1.64-.22,2.4.82S421.45,231.84,420,230.68Z"/><path class="cls-12" d="M391.67,436.25a22.1,22.1,0,1,1,1.32-.05C392.56,436.24,392.11,436.25,391.67,436.25Zm-9.77-31.56A13.5,13.5,0,0,0,378,414.3h0a13.56,13.56,0,0,0,13.63,13.46,13.55,13.55,0,1,0-.17-27.09l-.82,0A13.44,13.44,0,0,0,381.9,404.69Z"/><path class="cls-12" d="M420.87,462.82l20-10.66a6.17,6.17,0,0,0,2.55-8.36h0a6.18,6.18,0,0,0-8.36-2.55l-20,10.66a6.18,6.18,0,0,0-2.55,8.36h0A6.18,6.18,0,0,0,420.87,462.82Z"/><path class="cls-12" d="M415.63,463.14c-3.16-3.18-5.39-7.31-7.78-11.07-2.53-4-5.05-8-7.45-12q-7.21-12.19-13.92-24.66c-2.1-3.86,3.62-7.73,5.68-3.84q6.65,12.5,13.75,24.77c2.26,3.92,4.47,7.87,6.74,11.78s5.26,8.05,6.84,12.46c.78,2.18-2.12,4.35-3.86,2.6Z"/><path class="cls-12" d="M233.24,522.48a104.05,104.05,0,1,1,115.5-91.18A104.17,104.17,0,0,1,233.24,522.48ZM256.6,324a95.83,95.83,0,1,0,84,106.38A95.94,95.94,0,0,0,256.6,324Z"/><path class="cls-12" d="M558.29,517a104.06,104.06,0,1,1,115.5-91.19A104.17,104.17,0,0,1,558.29,517Zm23.36-198.53a95.84,95.84,0,1,0,84,106.38A95.94,95.94,0,0,0,581.64,318.49Z"/><path class="cls-12" d="M462.71,396.7a109.06,109.06,0,0,1,215.47,0h4.36a113.36,113.36,0,0,0-224.17,0Z"/><path class="cls-12" d="M136.73,401.43a109.06,109.06,0,0,1,215.48,0h4.35a113.36,113.36,0,0,0-224.17,0Z"/><path class="cls-12" d="M523.65,259c-56-.1-148.25-.2-204.22-.3a3.3,3.3,0,0,0-3.29,1.95Q279,340.36,241.84,420.15c-1.12,2.41,1.19,4.35,3.4,4.3,41.74-1,105.91-1.15,147.65-2.17,2.2-.05,3-2.67,2.41-4.37-19.62-59-61.67-118.81-81.29-177.77-1.28-3.85-7-1.32-5.77,2.52,18.53,55.7,59.49,112.27,78,168l3,9.14C388,416,394.37,416,386,416.2c-15.62.38-53.65-.1-69.25.27L262,417.8l-15.52.37c-2.24.06.12,6.63,3,.37l40.53-87,22.2-47.68q3.53-7.59,7.06-15.16c2.67-5.74,3.4-3.72-.45-3.74,55.91.11,148.12.21,204,.31,4,0,4.8-6.24.74-6.26Z"/><path class="cls-12" d="M326.88,224.57s13.07,3,8.17,11-46.9,15.65-54.62,6.43,1.31-15.37,5.84-16.68S326.88,224.57,326.88,224.57Z"/><rect class="cls-12" x="521.23" y="212.74" width="5.58" height="49.87"/><rect class="cls-12" x="521.23" y="212.74" width="17.44" height="5.58"/><path class="cls-12" d="M565.61,268.14c-.54,0-1,0-1.49,0l.29-5.58c2.57.14,7.3,0,10.2-2.67a8.78,8.78,0,0,0,2.62-6.48c.31-7.4-4.74-9.19-6-9.51h-36v-60H572l.4.12c3.81,1.16,10.89,6.06,10.46,16.27a14.23,14.23,0,0,1-4.44,10.38c-4.4,4-10.82,4.29-14.25,4.11l.29-5.58c2.57.14,7.3,0,10.2-2.67a8.78,8.78,0,0,0,2.62-6.48c.31-7.43-4.68-10-6.18-10.57h-30.2v48.88l31.2,0c3.92.73,11.2,4.86,10.76,15.29A14.22,14.22,0,0,1,578.37,264C574.55,267.46,569.2,268.14,565.61,268.14Z"/><rect class="cls-12" x="542.79" y="258.15" width="7.45" height="159.43" transform="translate(-74.66 173.63) rotate(-16.92)"/><circle class="cls-12" cx="245.4" cy="419.14" r="13.69"/><circle class="cls-12" cx="570.44" cy="413.67" r="13.69"/><rect class="cls-12" x="571.05" y="314.06" width="1.08" height="99.9"/><rect class="cls-12" x="542.4" y="323.09" width="1.08" height="99.9" transform="translate(-115.78 378.88) rotate(-35)"/><polygon class="cls-12" points="571.4 414.47 477.52 380.3 477.9 379.29 571.77 413.45 571.4 414.47"/><rect class="cls-12" x="473.39" y="426.35" width="99.9" height="1.08" transform="translate(-92.71 150.13) rotate(-15.01)"/><polygon class="cls-12" points="507.78 490.83 506.96 490.14 571.17 413.61 572 414.31 507.78 490.83"/><polygon class="cls-12" points="563.41 513.53 562.34 513.43 571.05 413.92 572.12 414.01 563.41 513.53"/><rect class="cls-12" x="596.02" y="407.27" width="1.08" height="99.9" transform="translate(-148.69 359.54) rotate(-30)"/><polygon class="cls-12" points="661.9 456.67 571.36 414.45 571.81 413.47 662.36 455.69 661.9 456.67"/><polygon class="cls-12" points="571.68 414.49 571.49 413.43 669.88 396.08 670.07 397.15 571.68 414.49"/><rect class="cls-12" x="556.96" y="378.1" width="99.91" height="1.08" transform="translate(-89.68 541.33) rotate(-45.11)"/><rect class="cls-12" x="243.94" y="319.41" width="1.08" height="99.9"/><rect class="cls-12" x="215.29" y="328.44" width="1.08" height="99.9" transform="translate(-178 192.22) rotate(-35)"/><rect class="cls-12" x="197" y="352.28" width="1.08" height="99.9" transform="translate(-247.99 450.28) rotate(-70)"/><rect class="cls-12" x="146.28" y="431.7" width="99.9" height="1.08" transform="translate(-105.23 65.55) rotate(-15.01)"/><polygon class="cls-12" points="180.68 496.18 179.85 495.49 244.06 418.96 244.89 419.66 180.68 496.18"/><rect class="cls-12" x="190.17" y="468.53" width="99.9" height="1.08" transform="translate(-248.2 667.13) rotate(-84.97)"/><rect class="cls-12" x="268.91" y="412.62" width="1.08" height="99.9" transform="translate(-195.18 196.69) rotate(-30)"/><rect class="cls-12" x="289.21" y="390.47" width="1.08" height="99.9" transform="translate(-231.86 516.89) rotate(-65)"/><polygon class="cls-12" points="244.57 419.84 244.39 418.78 342.77 401.43 342.96 402.5 244.57 419.84"/><rect class="cls-12" x="229.85" y="383.45" width="99.91" height="1.08" transform="translate(-189.69 311.05) rotate(-45.09)"/><rect class="cls-12" x="356.45" y="336.34" width="203.26" height="6.13" transform="matrix(0.65, -0.76, 0.76, 0.65, -98.38, 463.4)"/><path class="cls-13" d="M473.4,45.95s4,31.52-4.6,33.09S454.68,77.45,451,83.46c-5.43,8.82-6.79,22-4.14,32.72,2,8.18-23.52-32.44-20-41.83,9.33-25,1.58-31.79,10.28-34.47s26.66-5,28.35-4.69S473.4,45.95,473.4,45.95Z"/><path class="cls-14" d="M446.16,62.4l-4.61-1.67s1.68-5.8,1.41-9.14-4.31-2.73-6.55-.79.1,3.78.68,6.38-6.46,4.23-6.46,4.23,0-20.07,5.25-24.7c5.91-5.21,15-3.18,15-3.18s1.52-7.36,7.71-7.76,8.29,3.39,8.29,3.39c1.11-6.52,10.21-5.92,13.9-2.28s2,15-7.06,21.65-22.58-2-22.58-2S447.24,52.16,446.16,62.4Z"/><circle cx="458.97" cy="58.24" r="0.97" transform="translate(362.17 510.65) rotate(-85.15)"/><circle cx="472.34" cy="59.38" r="0.67" transform="translate(372.42 524.83) rotate(-85.05)"/><path d="M455,54.82c1-1.5,3.13-1.58,4.71-1.2.38.09.17.66-.21.57-1.31-.31-3.15-.28-4,1a.3.3,0,0,1-.5-.35Z"/><path d="M470.39,54.81a4.91,4.91,0,0,1,4.83,2.35c.21.33-.35.59-.55.26a4.27,4.27,0,0,0-4.17-2c-.39.05-.5-.54-.11-.6Z"/><path d="M467.66,57.36q-.43,5.06-.87,10.12a.3.3,0,0,1-.53.17l-2.41-2.24c-.29-.27.18-.65.47-.39l2.41,2.24-.53.17q.43-5.06.86-10.12a.3.3,0,0,1,.6.05Z"/><path d="M460.7,67c.54,1.43,2.62,2.07,3.92,2.39.38.1.16.66-.21.57-1.44-.36-3.65-1.12-4.25-2.7-.14-.36.41-.62.55-.26Z"/><path class="cls-15" d="M448.31,89.08s-4.78-5-1.75-9.23,13.15.59,11.75-.28c-3.5.58-5.2,1.23-7.11,3.53A38,38,0,0,0,448.31,89.08Z"/><path class="cls-16" d="M469.22,73.53a.47.47,0,0,1,.19-.92.47.47,0,0,1-.19.92Z"/><path class="cls-16" d="M471.81,71.13a.47.47,0,0,1,.19-.92.47.47,0,0,1-.19.92Z"/><path class="cls-16" d="M461.18,72.41a.47.47,0,0,1,.19-.92.47.47,0,0,1-.19.92Z"/><path class="cls-16" d="M454.43,67.66a.47.47,0,0,1,.19-.92.47.47,0,0,1-.19.92Z"/><path class="cls-16" d="M452,64.1a.47.47,0,0,1,.19-.92.47.47,0,0,1-.19.92Z"/><path class="cls-16" d="M446.9,66.41a.47.47,0,0,1,.19-.92.47.47,0,0,1-.19.92Z"/><path class="cls-16" d="M449.48,70.47a.47.47,0,0,1,.19-.92.47.47,0,0,1-.19.92Z"/><path class="cls-16" d="M457,75.32l.12,0a.47.47,0,0,1-.19.92l-.11,0a.47.47,0,0,1,.19-.92Z"/><path class="cls-16" d="M462.82,77.84a.47.47,0,0,1,.19-.91.47.47,0,0,1-.19.91Z"/><path class="cls-16" d="M454.57,73.08a.47.47,0,0,1,.19-.92.47.47,0,0,1-.19.92Z"/><path class="cls-16" d="M447.33,61.4a.47.47,0,0,1,.19-.92.47.47,0,0,1-.19.92Z"/><path class="cls-16" d="M469.53,77.25a.47.47,0,0,1,.19-.92.47.47,0,0,1-.19.92Z"/><path class="cls-16" d="M468.38,70.06a.47.47,0,0,1,.19-.92.47.47,0,0,1-.19.92Z"/><path class="cls-16" d="M458.59,64.92a.47.47,0,0,1,.19-.92.47.47,0,0,1-.19.92Z"/><path class="cls-16" d="M471.46,74.67a.47.47,0,0,1,.19-.92.47.47,0,0,1-.19.92Z"/><path class="cls-16" d="M465.56,75v-.08a.47.47,0,0,1,.92.19v.08a.47.47,0,0,1-.92-.19Z"/><path class="cls-16" d="M455.77,70.46a.47.47,0,0,1,.19-.92.47.47,0,0,1-.19.92Z"/><path class="cls-11" d="M479.17,32.93s.64,1.88-.1,2.53-1.88.17-1.7-1.28a6.56,6.56,0,0,0-.09-3.13C477,30.65,478.26,30.46,479.17,32.93Z"/><path class="cls-11" d="M476.48,29.08s-1.2-.24-1.07-1.18.71-.44.94-.07S477,29.37,476.48,29.08Z"/><path class="cls-11" d="M437.08,40s1.39-1.42,2.3-1.05,1,1.6-.37,2.1a6.56,6.56,0,0,0-2.75,1.49C436,43,435.28,42,437.08,40Z"/><path class="cls-11" d="M434.85,44.18s.33,1.18-.56,1.49-.71-.44-.49-.81S434.89,43.6,434.85,44.18Z"/><path class="cls-13" d="M464.49,138.44c-9.93,5-19.7,11.45-29.82,16.13C454.52,197,518.41,238,556.13,253c0,0,10.27-3,12.06-5.78C568.19,247.2,478.4,169.23,464.49,138.44Z"/><path class="cls-13" d="M567.62,246.78s19.76,6.68,18.35,16.14-8.12,5-8.59,4.17-7.78-5.4-10.69-5.58S556.13,253,556.13,253Z"/><path class="cls-14" d="M294.65,184.3s-7.18,20.09,0,40.18S408,439.71,408,439.71l15.78-11s-45.43-218.59-54-236.28C369.74,192.44,328.61,178.57,294.65,184.3Z"/><polygon class="cls-17" points="423.66 428.11 457.04 429.26 414.52 452.03 407.46 438.73 423.66 428.11"/><path class="cls-11" d="M298.56,206.52s-.32-5.38,1.42-5.31,3.7,3.4,2.66,6.21-1.67,5.61-1.35,7S299.12,213.74,298.56,206.52Z"/><path class="cls-11" d="M301.88,220.31s2.19,2.93,1.49,4.72-1.59-.47-1.85-1.73S301,218.67,301.88,220.31Z"/><path class="cls-18" d="M294.65,184.3s-4.43-37.18,46.51-75.21,87.59-39.82,87.59-39.82,10.7,11.48,12.67,23.32,24.87,48.59,24.87,48.59l-32.75,23.56L423.78,146s-25.82,36.83-54,46.4S294.65,184.3,294.65,184.3Z"/><path class="cls-11" d="M387.06,86.58s5.26-3,7.47-1.14,1.3,5.6-3,5.89-8.11,1-9.15,2.06S380.17,90.76,387.06,86.58Z"/><path class="cls-11" d="M376.88,96.94s-.2,3.77-3,3.92-1.6-1.91-.61-2.82S377.52,95.24,376.88,96.94Z"/><path class="cls-11" d="M373.44,185.38s-5.08,1.8-5.5.11,2.23-4.5,5.23-4.28,5.85,0,7.1-.65S380.23,182.84,373.44,185.38Z"/><path class="cls-11" d="M385.77,178.36s2.2-2.92,4.12-2.75,0,1.66-1.15,2.26S384.42,179.62,385.77,178.36Z"/></svg>